<?xml version="1.0" encoding="utf-8"?>
<!-- Generator: Adobe Illustrator 24.0.1, SVG Export Plug-In . SVG Version: 6.00 Build 0)  -->
<svg version="1.1" id="Objects" xmlns="http://www.w3.org/2000/svg" xmlns:xlink="http://www.w3.org/1999/xlink" x="0px" y="0px"
	 viewBox="0 0 202 215" style="enable-background:new 0 0 202 215;" xml:space="preserve">
<style type="text/css">
	.st0{display:none;}
	.st1{display:inline;}
	.st2{fill:#3A5999;}
	.st3{fill:#203E72;}
	.st4{fill:#6787C1;}
	.st5{opacity:0.5;}
	.st6{fill:#FFFFFF;}
	.st7{fill:#6DC02D;}
	.st8{fill:#1B89AF;}
	.st9{fill:#5DC4E8;}
	.st10{fill:#9EBFDD;}
	.st11{font-family:'CloudCalligraphy';}
	.st12{font-size:133.7859px;}
	.st13{fill:#6B63CE;}
	.st14{fill:#1E4A6B;}
	.st15{fill:#4E8AB7;}
	.st16{fill:#DB2E28;}
	.st17{fill:#961D1D;}
	.st18{fill:#ED6969;}
</style>
<g class="st0">
	<g class="st1">
		<g>
			<path class="st2" d="M189,139.2c-0.2-16.1,0-32.2,0.1-48.4c0-6.5,0.2-13.1-0.5-19.5c-0.8-6.5,1.3-13.1,0.6-19.6
				c-1-9.7,3.7-27.2-7.7-32.9c-2.1-1.1-4.1-1.4-5.9-1.2c-1.4-0.8-3-1.5-4.6-2.2c-3.6-1.5-9.9-0.9-13.8-0.7
				c-6.1,0.4-12.2-0.5-18.4-0.3c-11.9,0.5-23.8,0.5-35.6,0.2c-5.5-0.2-11.5-0.1-17.5,0.4c-1.6-1.2-3.5-2-5.9-2.1
				c-1.9-0.1-4.1,0.2-6.4,0.7c-11.3,1.2-22.7-1.4-33.9,1.4c-6.4,1.6-13.4,0.4-19,4.6c-4.8,3.7-6.7,9.7-5.5,15.5
				c-0.3,0.8-0.4,1.6-0.5,2.4c-0.1-0.1-0.2-0.2-0.3-0.3c0.2,6.2,2.4,12.4,2.1,18.6c-0.3,6.5,0.2,13.2,0.1,19.8
				c-0.3,13.8-2.4,28.6-0.5,42.4c1.9,13.5,2.8,28.3,2.8,42c0,6.6-0.2,13.1-0.2,19.7c0,6,0.2,9.4,4.8,13.3c0.2,0.9,0.6,1.7,1.4,2.7
				c1.5,1.6,3.6,2,5.6,2.4c3.6,0.7,7.1,2.5,10.9,3.1c15.1,2.7,31.3-1.9,46.5-1.7c18.8,0.2,37.4,1.4,56.2,1.9
				c8.7,0.2,17.6-0.1,26.4-0.4c7.6-0.3,13.8-1.9,15.9-10.1c0.5-1.9,0.3-3.6-0.3-5.1c0.6-1,1-2.3,1.1-3.8c0-0.2,0-0.4,0-0.5
				c0.4-1.5,0.8-3,1-4.5c1.3-1.2,2.1-2.9,1.9-5.1C189.7,161,189.9,150,189,139.2z"/>
			<path class="st3" d="M179.2,189.6c-2.2,0.1-4.2,0.6-6.4,1c-2.9,0.6-4.8,0-7.6-0.2c-6.4-0.3-12.9,0.1-19.3,0.1
				c-5.7,0-11.3,1.4-17,0.9c-2.3-0.2-4.6-0.7-7-0.6c-2.1,0-3.8,1-5.6,1.6c-1.8-0.8-3.6-0.6-5.8-0.3c-4.1,0.6-8,0.9-12.1,0.8
				c-7.2-0.2-14.5,1.8-21.7,0.8c-8.3-1.2-16.8-1-25-1.9c-3.9-0.4-7.7-1-11.6-1.3c-3.8-0.3-7.8-0.7-10.8-3.4c-2.9-2.7-2.4-7.1-3-10.6
				c-0.7-4.1-0.6-8.2-0.6-12.4c0-7.4-0.4-14.6-0.5-22c-0.1-3.4-0.4-7-0.9-10.3c-0.4-2.8,0.1-5.7-0.3-8.6c-0.3-2.3-0.8-4.7-1.4-7
				c0.9-1.3,1-3,0.3-4.4c-0.2-3.1,0-6.4-0.2-9.5c-0.2-4-0.8-7.8-0.8-11.8c-0.1-8.6-1.4-17.1-1.6-25.7c-0.1-3.5,1.1-6.8,0.9-10.4
				C21,50.2,21,46.1,21,41.9c0-8.5-0.4-15.9,5.6-22.7c1.3-1.5-0.2-4.5-2.2-3.2c-2.8,1.8-5.5,2.8-7.7,5.5c-2.4,2.9-3.3,7.2-3.6,10.8
				c-0.4,4.7,0,9.5,0,14.3c0,4.5,1.2,8.7,0.7,13.2c-0.6,4.9,0.9,9.7,0.6,14.6c-0.3,4.7,0.4,9.4,0.3,14.2c-0.1,4.5,0,8.8,0.3,13.3
				c0.3,4.2-0.7,8.5,0.1,12.7c0.2,0.9,0.7,1.7,1.4,2.3c0,0.2-0.1,0.4-0.1,0.6c-0.7,3.8,0,8-0.6,11.9c-0.5,2.9-0.2,6.1,0.1,9.1
				c0.3,4.1,0.3,8.4,0.8,12.5c1.1,8-0.7,16.5,0.8,24.4c1.3,7,0.8,14.7,7.2,19.6c6.4,4.9,14.4,4.9,22,6.1c8.7,1.4,17.4,1.8,26.2,2
				c7.8,0.2,15.7,0.6,23.5-0.8c7.3-1.3,15.8,1.3,22.3-3.3c0.1-0.1,0.3-0.2,0.4-0.3c0.2,0.1,0.3,0.2,0.5,0.2c2.6,0.9,5.3,1.2,8,1.8
				c6.3,1.4,13.2,0.1,19.6,0.1c3.6,0,7.1-0.1,10.7-0.1c3.8,0,7.2,0.7,10.9,1c5.2,0.4,12.5-1.3,14.4-6.6
				C183.8,192.7,181.9,189.6,179.2,189.6z"/>
			<path class="st4" d="M191.3,36.3c-0.3-3.2-1.8-6.5-2.9-9.4c-2.7-7.2-7.7-9.8-14.9-11.3c-6.5-1.3-13.4-0.3-20-1.1
				c-7.4-0.9-15.4-1-22.8-0.7c-8.3,0.3-16.6,0.1-24.9,0.4c-8.3,0.3-16.5,1.4-24.8,1.4c-4.1,0-8.3-0.1-12.4,0.2
				c-3.8,0.2-7.6,0.8-11.4,0.4c-3.9-0.5-7.8-0.2-11.7-0.2c-3.4,0-7.6-0.5-10.8,0.7c-0.9,0.3-1.4,1.6-0.4,2.2
				c4.8,2.8,10.8,2.2,16.2,2.2c3.3,0,6.4,0.6,9.6,0.8c3.8,0.2,7.7-0.5,11.6-0.6c15.5-0.2,31,0.2,46.5,0.4c13.8,0.2,27.6,0.7,41.3,2
				c5.6,0.6,14.6-1.2,19,3.2c2.2,2.2,3.6,5.3,4.8,8.1c1.7,3.9,1.2,7.1,0.9,11.2c-0.1,1,0.2,1.8,0.7,2.3c-0.6,3.9-1.4,7.9-1.5,8.7
				c-0.7,5.9-1.5,11.8-2.3,17.6c-0.7,5.3,1.3,10.7,0.3,15.9c-1.2,6-0.1,12.4,0.1,18.4c1.1,23.9,2.7,47.9-0.7,71.7
				c-0.4,2.5,3.5,3.1,4.2,0.8c3.3-10.5,4.2-22.4,4.4-33.4c0.2-12.9,0.4-25.8,0-38.7c-0.2-5.9-1.5-12.1-0.4-17.9
				c1.1-5.6-1.4-10.9-1.6-16.5c-0.2-5.9,0.5-11.8,0.3-17.7c-0.1-2.7,0.1-5.4,0.3-8c1.3-0.3,2.5-1.2,2.8-2.9
				C191.1,43,191.6,39.8,191.3,36.3z"/>
		</g>
		<g class="st5">
			<path class="st6" d="M121.7,88.8c1.7,0,4.5,0.6,6-0.7c1.3-1.2,0.4-5.1,0.3-6.4c-0.1-3.4-0.3-6.8-0.7-10.2
				c0.7-0.8,0.4-2.2-0.9-2.2c-3.8,0-7.6-0.4-11.4-0.3c-4.1,0.1-8.3,1.5-12.2,2.7c-7.4,2.1-11.7,8.6-13.8,15.6
				c-1.1,3.7-1.3,8.1-1.4,12c-0.1,2,0.3,4.1,0.4,6.1c0.2,2.5-4.1,1.7-5.9,1.6c-2.7-0.1-7.2-0.9-9.6,0.7c-1.7,1.1-0.9,4.9-0.7,6.4
				c0.6,4.3,0.8,9.4,2.3,13.5c0.7,1.9,5.8,0.6,6.8,0.8c1.8,0.2,3.5,0.3,5.3,0.5c2.5,0.3,2.2,0.4,2.1,2.8c-0.2,4.3-0.3,8.6-0.3,12.9
				c0.1,5.5,0.3,10.9,0.3,16.4c0,2.5,0,4.9-0.2,7.4c-0.1,1.1-0.7,2.8-0.5,4.1c0.4,1.8,2.7,1.6,4,1.5c4.6-0.6,10.6,0.1,15.1,1.2
				c0.7,0.2,1.5-0.1,1.7-0.8c1-3.3,0.5-7,0.5-10.4c0-4,0-7.8-0.3-11.8c-0.6-7.5,1.9-15,1.2-22.5c-0.3-3.7,13.9,1,15.5-1.8
				c1.2-2,0.6-5,0.7-7.3c0.2-3.7,0.5-7.6-0.1-11.3c-0.6-4.2-6.5-2.5-9.1-2.5c-0.3,0-8.6-0.5-8.5-0.2c-0.8-4.6-1.1-11.3,2.4-14.9
				C113.4,89,118.2,88.8,121.7,88.8z M125.7,84.5c0.1-0.1,0.3-0.2,0.4-0.3c-0.2,1.1-0.6,2-1.1,2.2C125.2,85.8,125.5,85.2,125.7,84.5
				z M80.2,110.1c0-0.2,0-0.4,0-0.6c0.8,0,1.6,0.1,2.5,0.1c-0.1,0-0.1,0.1-0.2,0.1c-0.7,0.1-1.4,0.2-2.1,0.3
				C80.4,110,80.3,110,80.2,110.1z M80.7,125.6c0-0.1,0.1-0.2,0.1-0.4c0-0.5-0.1-1.1-0.1-1.6c0.1,0.4,0.1,0.8,0.2,1.1
				c0.2,0.8,1,1,1.6,0.7c0,0.1,0.1,0.2,0.1,0.4C82,125.8,81.4,125.7,80.7,125.6z M82.6,113.1c-0.1,0.2-0.3,0.5-0.3,0.7
				c-0.2-0.4-0.3-0.9-0.6-1.3c-0.1-0.1-0.2-0.2-0.3-0.3c0.4-0.1,0.9-0.1,1.3-0.2C82.7,112.3,82.6,112.7,82.6,113.1z M85,126
				c0,0,0-0.1,0-0.1c0.4,0,0.8-0.2,1-0.6c0,0.1,0,0.2,0.1,0.3c0,0.1,0.1,0.3,0.2,0.4C85.8,126,85.4,126,85,126z M87.9,126
				c0.1-0.2,0.2-0.4,0.3-0.6c0-0.1,0-0.3,0-0.4c0.1,0,0.2,0.1,0.3,0.1c0,0.3,0.1,0.7,0.1,1C88.3,126.1,88.1,126.1,87.9,126z
				 M117.7,124.7c0,0.3,0.2,0.6,0.5,0.8c-0.7-0.1-1.4-0.1-2.2-0.2C116.6,125.1,117.1,124.9,117.7,124.7z M99.7,102
				c-0.1-2.4,0.1-4.9,0.2-7.3c0,2.5,0.1,4.9,0.1,7.4C100,102,99.9,102,99.7,102z M116.4,74.8c-1,0.7-2.1,1.3-3.1,1.9
				c0-0.1-0.1-0.2-0.2-0.3C114.2,75.8,115.3,75.3,116.4,74.8z M106.1,79.7c-0.9,0.9-1.7,1.8-2.6,2.7c0.7-0.9,1.4-1.9,2.1-2.8
				C105.7,79.7,105.9,79.8,106.1,79.7z M103.6,77.4c0.1,0,0.2,0.1,0.4,0.1c-0.5,0.5-1,1-1.4,1.6C102.9,78.6,103.2,78,103.6,77.4z
				 M100.1,77.4c0.4-0.1,0.8-0.1,1.2-0.2c-1.4,1.9-2.8,4.2-4.4,6.1C98.1,81.3,99.4,79.4,100.1,77.4z M95.9,90.9
				c0,3.7-0.2,7.4-0.3,11.2c0,0.1,0,0.2-0.1,0.3c0-0.1-0.1-0.1-0.1-0.2C95.4,98.4,95.4,93.7,95.9,90.9z M94.6,87.9
				c0,0,0.1-0.1,0.1-0.1c-0.3,0.4-0.4,0.9-0.3,1.6c0,0.1,0,0.3,0,0.4c-0.1,0.1-0.1,0.2-0.2,0.3c-0.1-0.1-0.2-0.3-0.3-0.4
				C94.2,89,94.4,88.4,94.6,87.9z M91.9,118.2c0-0.6,0.1-1.2,0.1-1.9c0,0.6,0,1.2,0,1.7c0,1.7-0.1,3.4-0.1,5.2
				c-0.1,0.1-0.2,0.1-0.3,0.2C91.7,121.7,91.7,120,91.9,118.2z M92.9,171.2c0.2-0.1,0.4-0.3,0.5-0.6c0.1-0.3,0.1-0.6,0.2-0.8
				c0.1,0.4,0.2,0.9,0.3,1.3c0,0,0,0.1,0,0.1C93.6,171.2,93.2,171.2,92.9,171.2z M99.3,171.5c-0.2,0-0.3,0-0.5,0
				c0.1-0.3,0.2-0.6,0.2-0.9c0.3,0.8,1.1,0.9,1.7,0.5c0.1,0.2,0.1,0.4,0.2,0.6C100.4,171.6,99.8,171.6,99.3,171.5z M102.4,143.4
				c0-3.1,0-6.2,0.1-9.3c0-0.5,0-1,0.1-1.4c0.1,0.2,0.2,0.4,0.4,0.5C102.8,136.7,102.6,140,102.4,143.4z M103.2,90
				c-0.1,0.2-0.3,0.3-0.4,0.5c0-0.2-0.1-0.4-0.1-0.6c0.2-0.2,0.4-0.4,0.6-0.6C103.2,89.6,103.2,89.8,103.2,90z M103.6,171.9
				c0.1-0.4,0.1-0.8,0.1-1.2c0.1,0.4,0.2,0.7,0.3,1.1c0,0.1,0.1,0.1,0.1,0.2C103.9,172,103.7,172,103.6,171.9z M106.1,129.7
				c-0.3,2.1-0.6,4.3-0.8,6.4c0.1-2.1,0.2-4.2,0.3-6.4C105.8,129.8,106,129.8,106.1,129.7z M105.8,105.6c0,0,0-0.1,0-0.1
				c0.1,0.9,0.2,1.8,0.4,2.6c-0.1,0-0.2,0-0.3,0.1C105.9,107.3,105.8,106.5,105.8,105.6z M106.3,172.3c-0.2,0-0.3,0-0.5-0.1
				c0.1-0.2,0.2-0.4,0.3-0.6c0-0.2,0-0.4,0-0.6c0.1,0,0.2,0,0.3-0.1C106.4,171.4,106.4,171.8,106.3,172.3z M108.1,110.2
				c-0.4,0.1-0.8,0.2-1.2,0.3c0-0.1,0-0.3-0.1-0.4c0.2,0,0.4,0,0.6,0C107.6,110.2,107.8,110.2,108.1,110.2z M104.9,88.1
				c-0.1-0.1-0.2-0.1-0.3-0.1c1.2-1.2,2.3-2.4,3.5-3.6C107.1,85.6,106,86.8,104.9,88.1z"/>
		</g>
		<g>
			<path d="M76.5,38.9c-4.8-4.1-12.3-3.1-15.9,2c-2.4,3.5-2,7.7,0.2,10.9c0.8,1.7,2.1,3.2,3.9,4.1c1.9,1,3.8,1.4,5.7,1.3
				c1.7,0.2,3.4-0.1,4.8-0.9c1.5-0.8,2.5-1.9,3.2-3.1c1.9-2.1,2.3-4.7,1.7-7.2C80,43.4,78.7,40.8,76.5,38.9z"/>
			<path d="M118.5,39.8c-0.1,0-0.3-0.1-0.4-0.1c-3.5-0.7-5.6,3.6-3.8,5.6c0.2,1.9,0.2,3.4-1.5,5.1c-1.8,1.8-5.3,1.5-7.5,1.3
				c-2.7-0.3-5.5-1.1-7.7-2.9c-2.3-2-1.4-5.4-2.3-7.9c-0.5-1.4-2.9-2-3.3-0.2c-1.7,4-2.9,9,0.4,12.7c3.2,3.6,7.8,5,12.4,5.6
				c4.5,0.6,9-0.7,12.6-3.4c4.3-3.4,4-8.6,3.4-13.3C120.7,41.3,119.6,40.1,118.5,39.8z"/>
			<path d="M143.9,37.1c-6.9-3.7-14.7,1.1-15,8.7c-0.2,0.8-0.3,1.5-0.3,2.2c-0.2,3.5,2.9,6.6,5.7,8.2c3.5,1.9,8,1.4,11.3-0.7
				C152.8,50.7,151.1,40.9,143.9,37.1z"/>
		</g>
	</g>
	<path class="st1" d="M193.6,106.6c0.1,0.1,0.1,0.1,0.2,0.2c-0.1-0.6-0.2-1.2-0.2-1.9c-0.1-0.6-0.2-1.3-0.2-1.9
		c-0.1-0.8-0.2-1.5-0.2-2.3c0-0.2,0-0.4,0-0.7c0,0,0,0-0.1,0c-0.2-3.4-0.3-6.7-0.3-10.1c0-14.8,1.9-29.5,1.9-44.4
		c0-6.6-0.5-13.1-0.7-19.6c-0.2-5.1-3.3-8.7-7.8-10.7c-3-1.3-6.7-1.7-10-2.1c-0.5-0.2-0.9-0.3-1.4-0.5c-7.2-2.2-15.2-2.3-23.2-1.9
		c-6.1-0.8-12.2-1.8-18.4-2.1c-15.9-0.9-31.9-0.2-47.8,0.2c-4.2,0.8-8.4,1.2-12.7,1.3c0,0,0,0-0.1,0.1c-0.4,0-0.7,0-1.1,0
		c-0.7,0-1.5,0-2.2,0c-3.1,0.1-6.2,0.4-9.3,0.7c-5.7-0.2-11.3-0.9-17-0.7c-3.5,0.1-6.8,0.7-10.3,0.5c-3.4-0.2-6.4,0.3-9.7,1.3
		c-4.6,1.5-7.7,3.4-9.8,7.8c-2.6,5.5-1.4,12.3-1.2,18.1c0.1,2.9,0.8,5.6,0.8,8.5c-0.1,3.2-0.4,6.4-0.6,9.6c-0.2,3.2-0.1,6.5,0,9.7
		c0,3.6-0.7,7.2-0.6,10.9c0.1,7.1-0.1,14.3-0.3,21.4c0,0-0.1,0-0.1,0c0,0,0,0.1,0,0.1c0,0,0,0.1,0,0.1c0.1,0.7,0.2,1.5,0.2,2.2
		c0,0.8-0.1,1.6-0.2,2.4c-0.1,5.6-0.2,11.2-0.2,16.8c0,6.6,0.5,13,0.6,19.6c0.2,7.4,1.5,14.7,1.8,22.1c0.3,6.7,0.7,13.3,0.7,20
		c0,6.5,0.4,10.8,4.8,16c3.9,4.6,8.1,6.1,14,7.2c3.1,0.6,6.3,0.1,9.4,0.4c3.7,0.3,7.3,1.1,11,1.4c6.9,0.5,13.4,1.2,20.4,1
		c8-0.1,16,0.7,24,0.7c13.4,0,26.8-1.6,40.2-2.9c7.3-0.7,14.7-0.8,22-1.6c0.3,0,0.6-0.1,0.8-0.1c4.5,0,9.2,0.5,13.6,0
		c1.5,0.2,3.1,0.4,4.6,0.2c12.1-1.7,12.3-19,12.3-28c0-0.1,0-0.1,0-0.2c0.8-5.9,1.5-11.7,1.8-17.6c0.2-1.3,0.3-2.5,0.4-3.8
		c0.6-7.2,1.3-14.5,1.6-21.7C195,123.8,194.2,115.2,193.6,106.6z M186.8,93.6c0,1.5,0,3.1,0.1,4.6c0.5,13.9,1.4,27.9,1.6,42
		c-0.2,2.1-0.4,4.3-0.5,6.4c-0.6,7.8-1.3,15.8-2.6,23.5c-1.2,6.8,0,13.6-1.8,20.3c-0.9,3.2-3.1,7.3-6.7,7.3c-3.4,0-6.7-0.7-10.2-0.6
		c-9.7,0.2-19.6,0.9-29.4,2c-7.1-0.3-14.5-0.1-21.5-0.1c-12.5,0-24.9-0.4-37.4,0c-10.8,0.4-21.6,1-32.4,0.2
		c-4.9-0.3-9.9-1.1-14.6-2.3c-7-1.7-10.3-6-11.5-11.9c0-1.8,0.2-3.6,0.2-5.2c0-3.8,0.1-7.6,0-11.4c-0.1-3.9-0.4-7.9-0.8-11.8
		c-0.1-6.7-0.2-13.4-0.4-20.2c-0.4-10.1-1.3-20.1-1.7-30.2c0.2-7.6,0.4-15.1,0.4-22.7c0-13.3,1.1-26.6,1.4-40
		c0.1-5.8-1.2-11.6-0.7-17.4c0.2-1.6,0.6-2.9,1.3-4c0.7-0.9,1.5-1.7,2.6-2.6c3.2-2.1,7.9-2.6,11.9-2.4c7,0.2,13.9-1.2,20.9-0.8
		c7.5,0.5,14.9-0.3,22.3,0.1c5.5,0.3,11-0.1,16.6-0.6c10,0,20,0,30,0c7.2,0,14.3-0.1,21.4-0.3c5.6,0.7,11.2,1.7,16.8,2
		c6.4,0.4,13.2,0.8,19.5,2.3c3.2,2,5.6,4.7,6.6,8.5c0.1,3.2,0.5,6.4,0.6,9.6c0.1,15.8-1.4,31.6-1.8,47.3
		C186.8,88.2,186.8,90.9,186.8,93.6z"/>
</g>
<g id="Background" class="st0">
	<g class="st1">
		<g>
			<g>
				<path class="st7" d="M189.6,105.1c-1.1-11.6-0.9-23.4-2.2-35c-0.2-1.5-0.2-3-0.3-4.5c1.8-8.8,1.7-17.8,1.4-26.8
					c0-0.9-0.1-1.8-0.3-2.6c0.6-5.5,0.6-11.2-3.3-15.1c-5.3-5.2-11.8-5.8-18.8-6.9c-7-1.1-15-0.5-22.1-0.6c-10-0.1-20,0.6-30,0.3
					c-17-0.6-34,1-51,0.3C55.2,14,47,15.7,39.2,14.6c-6.7-0.9-14.7-0.6-18.9,5.1c-0.3,0.3-0.5,0.7-0.6,1.1c-0.4,0.3-0.8,0.6-1.2,1
					c-5.3,4.9-4.3,10.1-5,16.6c-0.7,6.4,0,13.3-0.2,19.7c-0.2,3.1,0.9,5.3,2.6,6.8c-0.1,3.8,0,7.5,0,10.9c-1.4,11.3-1.1,22.7-1,34.1
					c0,2.5,0,5,0,7.4c0,2.3,0.5,4.3,1.3,6c-0.5,14.1,1.2,28.2,1.2,42.4c0,6.9,0.2,13.7,0.6,20.6c0.5,7.6,7.6,11.4,14.5,12.3
					c1.5,0.2,2.9-0.2,4.2-0.9c2.1,1.5,4.4,2.8,7.3,3.2c7.3,1,14.9,0.3,22.3-0.2c15.5-1,31.5-1.8,47-1.5c7.3,0.2,14.9-0.3,22.2,0.8
					c7.5,1.2,15.1-0.6,22.5,0.3c11.3,1.4,29.9,1.2,29.7-14.9c0-0.7-0.1-1.4-0.3-2.1c0.3-0.9,0.5-1.8,0.5-2.9
					c0.4-13.4-0.6-26.9,0.9-40.3C190,128.6,190.7,116.6,189.6,105.1z"/>
				<path class="st8" d="M179,188.4c-2.2,0.1-4.2,0.6-6.4,1c-2.9,0.6-4.8,0-7.6-0.2c-6.4-0.3-12.9,0.1-19.3,0.1
					c-5.7,0-11.3,1.4-17,0.9c-2.3-0.2-4.6-0.7-7-0.6c-2.1,0-3.8,1-5.6,1.6c-1.8-0.8-3.6-0.6-5.8-0.3c-4.1,0.6-8,0.9-12.1,0.8
					c-7.2-0.2-14.5,1.8-21.7,0.8c-8.3-1.2-16.8-1-25-1.9c-3.9-0.4-7.7-1-11.6-1.3c-3.8-0.3-7.8-0.7-10.8-3.4
					c-2.9-2.7-2.4-7.1-3-10.6c-0.7-4.1-0.6-8.2-0.6-12.4c0-7.4-0.4-14.6-0.5-22c-0.1-3.4-0.4-7-0.9-10.3c-0.4-2.8,0.1-5.7-0.3-8.6
					c-0.3-2.3-0.8-4.7-1.4-7c0.9-1.3,1-3,0.3-4.4c-0.2-3.1,0-6.4-0.2-9.5c-0.2-4-0.8-7.8-0.8-11.8c-0.1-8.6-1.4-17.1-1.6-25.7
					c-0.1-3.5,1.1-6.8,0.9-10.4c-0.2-4.1-0.3-8.2-0.3-12.4c0-8.5-0.4-15.9,5.6-22.7c1.3-1.5-0.2-4.5-2.2-3.2
					c-2.8,1.8-5.5,2.8-7.7,5.5c-2.4,2.9-3.3,7.2-3.6,10.8c-0.4,4.7,0,9.5,0,14.3c0,4.5,1.2,8.7,0.7,13.2c-0.6,4.9,0.9,9.7,0.6,14.6
					c-0.3,4.7,0.4,9.4,0.3,14.2c-0.1,4.5,0,8.8,0.3,13.3c0.3,4.2-0.7,8.5,0.1,12.7c0.2,0.9,0.7,1.7,1.4,2.3c0,0.2-0.1,0.4-0.1,0.6
					c-0.7,3.8,0,8-0.6,11.9c-0.5,2.9-0.2,6.1,0.1,9.1c0.3,4.1,0.3,8.4,0.8,12.5c1.1,8-0.7,16.5,0.8,24.4c1.3,7,0.8,14.7,7.2,19.6
					c6.4,4.9,14.4,4.9,22,6.1c8.7,1.4,17.4,1.8,26.2,2c7.8,0.2,15.7,0.6,23.5-0.8c7.3-1.3,15.8,1.3,22.3-3.3
					c0.1-0.1,0.3-0.2,0.4-0.3c0.2,0.1,0.3,0.2,0.5,0.2c2.6,0.9,5.3,1.2,8,1.8c6.3,1.4,13.2,0.1,19.6,0.1c3.6,0,7.1-0.1,10.7-0.1
					c3.8,0,7.2,0.7,10.9,1c5.2,0.4,12.5-1.3,14.4-6.6C183.6,191.5,181.7,188.4,179,188.4z"/>
				<path class="st9" d="M191.1,35.1c-0.3-3.2-1.8-6.5-2.9-9.4c-2.7-7.2-7.7-9.8-14.9-11.3c-6.5-1.3-13.4-0.3-20-1.1
					c-7.4-0.9-15.4-1-22.8-0.7c-8.3,0.3-16.6,0.1-24.9,0.4c-8.3,0.3-16.5,1.4-24.8,1.4c-4.1,0-8.3-0.1-12.4,0.2
					c-3.8,0.2-7.6,0.8-11.4,0.4c-3.9-0.5-7.8-0.2-11.7-0.2c-3.4,0-7.6-0.5-10.8,0.7c-0.9,0.3-1.4,1.6-0.4,2.2
					c4.8,2.8,10.8,2.2,16.2,2.2c3.3,0,6.4,0.6,9.6,0.8c3.8,0.2,7.7-0.5,11.6-0.6c15.5-0.2,31,0.2,46.5,0.4c13.8,0.2,27.6,0.7,41.3,2
					c5.6,0.6,14.6-1.2,19,3.2c2.2,2.2,3.6,5.3,4.8,8.1c1.7,3.9,1.2,7.1,0.9,11.2c-0.1,1,0.2,1.8,0.7,2.3c-0.6,3.9-1.4,7.9-1.5,8.7
					c-0.7,5.9-1.5,11.8-2.3,17.6c-0.7,5.3,1.3,10.7,0.3,15.9c-1.2,6-0.1,12.4,0.1,18.4c1.1,23.9,2.7,47.9-0.7,71.7
					c-0.4,2.5,3.5,3.1,4.2,0.8c3.3-10.5,4.2-22.4,4.4-33.4c0.2-12.9,0.4-25.8,0-38.7c-0.2-5.9-1.5-12.1-0.4-17.9
					c1.1-5.6-1.4-10.9-1.6-16.5c-0.2-5.9,0.5-11.8,0.3-17.7c-0.1-2.7,0.1-5.4,0.3-8c1.3-0.3,2.5-1.2,2.8-2.9
					C190.9,41.8,191.4,38.6,191.1,35.1z"/>
			</g>
			<g>
				<path d="M116.4,43.4c-0.1,0-0.3-0.1-0.4-0.1c-0.1,0-0.2,0-0.2,0c-5.1-2.5-10.7-1.4-16.2-1.1c-2,0.1-5.9-0.3-8.1,1
					c-0.7-0.1-1.4,0.2-1.6,1.1c-1.7,4-2.9,9,0.4,12.7c3.2,3.6,7.8,5,12.4,5.6c4.5,0.6,9-0.7,12.6-3.4c4.3-3.4,4-8.6,3.4-13.3
					C118.6,44.9,117.5,43.6,116.4,43.4z"/>
				<path d="M74.8,41.1C70,37.5,64.6,37.1,59,39.2c-5.3,1.9-9,6.4-9.6,12c-0.3,2.6,3,8.8,5.9,5.3c1.2-1.4,1.4-3.3,2.3-4.9
					c1.4-2.5,4.5-3.5,7.1-4c2.7-0.5,5.3,0.8,6,3.5c0.2,0.8-0.3,2.1-0.3,3c0,1.5,0.7,2.5,1.7,3.6c3.1,3.4,7.8-0.4,6.2-4.3
					c0.5,1.2,0.9-2,0.9-1.8c0.1-1.2,0-2.3-0.2-3.6C78.7,45.3,77,42.7,74.8,41.1z"/>
				<path d="M140.8,36.3c-4.3,0.6-9.3,3-11,7.2c-2,4.8-0.3,7.7,1.4,12.1c0.7,1.7,3.2,1.2,3.8-0.3c0.8-2.2,0-4.3,0.6-6.5
					c0.8-2.6,3.6-3.4,6-4c2.9-0.7,4.6,0.8,5.5,3.6c0.9,3-0.1,5.4,2.1,8c1.5,1.8,3.9,1.1,5.2-0.4c3.2-3.8,1.1-11.1-1.6-14.7
					C149.8,37.2,145.7,35.7,140.8,36.3z"/>
			</g>
		</g>
		<path d="M191.4,104.9c-0.3-1.1-0.5-2.3-0.5-3.5c0-0.7,0.1-1.4,0.2-2.1c-0.1-0.5-0.1-1-0.1-1.5c0,0,0,0,0,0c0,0,0-0.1,0-0.1
			c0-0.2,0-0.3,0-0.5c0-0.1,0-0.2,0-0.4c-0.1-8.7-0.1-17.4,0.5-26.1c0.2-2.8,0.3-5.6,0.4-8.4c0.4-6,0.7-12.1,0.7-18.1
			c0-3.9-0.2-7.8-0.4-11.7c0-1.1-0.1-2.1-0.1-3.2c0-0.4-0.1-0.7-0.1-1.1c-0.1-1.2-0.1-2.4-0.1-3.6c-0.2-5.1-3.3-8.7-7.8-10.7
			c-3.6-1.6-8.2-1.9-12.1-2.3c-0.1,0-0.2,0-0.3,0c-5.1-1.2-10.6-1.5-16.1-1.4c-8.2-0.7-16.3-2.3-24.6-2.8
			c-15.9-0.9-31.9-0.2-47.8,0.2C79,8.5,74.8,8.9,70.5,9c0,0,0,0-0.1,0.1c-0.4,0-0.7,0-1.1,0c-0.7,0-1.5,0-2.2,0
			c-3.1,0.1-6.2,0.4-9.3,0.7c-5.7-0.2-11.3-0.9-17-0.7C37.4,9.1,34,9.6,30.5,9.4c-3.4-0.2-6.4,0.3-9.7,1.3c-4.6,1.5-7.7,3.4-9.8,7.8
			c-2.6,5.5-1.4,12.3-1.2,18.1c0.1,2.9,0.8,5.6,0.8,8.5c-0.1,3.2-0.4,6.4-0.6,9.6c-0.2,3.2-0.1,6.5,0,9.7c0,3.6-0.7,7.2-0.6,10.9
			c0.1,6.4-0.1,12.7-0.2,19.1c0.1,0.6,0.1,1.2,0.1,1.7c0,0.9-0.1,1.7-0.3,2.5c0,0,0,0,0,0.1c0,0.3,0,0.5,0,0.8c0,0,0,0,0.1,0
			c-0.2,6.3-0.3,12.6-0.3,18.8c0,6.6,0.5,13,0.6,19.6c0.2,7.4,1.5,14.7,1.8,22.1c0.3,6.7,0.7,13.3,0.7,20c0,6.5,0.4,10.8,4.8,16
			c3.9,4.6,8.1,6.1,14,7.2c3.1,0.6,6.3,0.1,9.4,0.4c3.7,0.3,7.3,1.1,11,1.4c6.9,0.5,13.4,1.2,20.4,1c8-0.1,16,0.7,24,0.7
			c13.4,0,26.8-1.6,40.2-2.9c2.6-0.3,5.2-0.4,7.8-0.6c4.6,0,9.3,0,13.9-0.2c7-0.3,14.6,1.2,21.3-1.2c0.7-0.2,1.3-0.5,1.9-0.8
			c7.1-3.6,7.7-11.7,8.7-18.6c1.6-10.5,3-20.6,3.2-31.3c0.1-3.8,0-7.6-0.2-11.5c0.2-2.9,0.4-5.8,0.5-8.7
			C192.9,122.5,192.1,113.7,191.4,104.9z M185.9,145.4c-0.6,7.8-1.3,15.8-2.6,23.5c-1.2,6.8,0,13.6-1.8,20.3
			c-0.9,3.2-3.1,7.3-6.7,7.3c-3.4,0-6.7-0.7-10.2-0.6c-11.8,0.2-23.8,1.3-35.5,2.7c-4.7,0-9.4,0.1-14,0.1c-12.5,0-24.9-0.4-37.4,0
			c-10.8,0.4-21.6,1-32.4,0.2c-0.2,0-0.3,0-0.5,0c-2.6-0.4-5.2-1-7.8-1c-0.2,0-0.3,0-0.5,0c-2-0.3-3.9-0.7-5.8-1.2
			c-9-2.2-12-8.6-12-17.4c-0.1-14.4,0.1-28.6-0.5-43.1c-0.7-16-2.4-31.9-1.7-47.9c0.5-10.5,0.4-21.2-0.1-31.8
			c0.2-4.7,0.4-9.3,0.5-14c0.1-4-0.5-8-0.7-12c0.5-2.6,1.2-5.1,2.2-7.7c0,0,0-0.1,0.1-0.1c1.1-1.6,2.7-3.1,4.8-4.6
			c1.6-1.1,4.1-1.7,6.8-2.1c0.7,0,1.4,0,2.1,0c3.1,0.1,6.2-0.1,9.3-0.4c5.5,0,11.1-0.1,16.6-0.1c21.7,0.1,43.4,0.1,65.2,0.1
			c8.5,0,17-0.1,25.5-0.4c3.8,0.5,7.6,1,11.4,1.3c6.3,0.4,13.1,0.8,19.3,2.2c2.6,1.3,4.9,3.1,6.4,5.4c0.2,0.9,0.3,2,0.3,3.1
			c0.1,3.9,0.7,7.8,0.7,11.7c0,14.7-1.1,29.2-1.8,43.8c-0.7,14.2,1.3,28.5,2,42.7C187.2,132.1,186.4,138.9,185.9,145.4z"/>
		<text transform="matrix(0.9089 0 0 1 38.6607 163.584)" class="st10 st11 st12">line</text>
	</g>
</g>
<g>
	<g>
		<g>
			<path class="st13" d="M188.4,41.2c0.1-2.4,0.2-4.9,0-7.3C187.3,23.2,176.5,16,166,17.8c-0.2-0.1-0.3-0.3-0.5-0.4
				c-4-3-10.4-3-15.1-2.4c-11.5,1.4-23.8,1.6-35.4,1.3c-12.3-0.3-24.3-0.1-36.5,0.5c-4.7,0.2-9.7,0.2-14.7,0.4
				c-2.7-1.7-5.9-2.5-9.2-1.6c-5,1.3-9.6,1.8-14.7,1.2c-4.6-0.6-11.7-1.5-16.4,1.5C10,26.8,12.6,38.6,13.7,52.4
				c2,25.7-2.1,51.8,1,77.4c1.4,12.2,2.2,24.8,2,37.1c-0.1,8.5-2.2,19.5,3,26.1c-0.4,3.1,2.3,6.2,5.1,7.1c12.1,4,26.7,4.4,39.5,4.4
				c17.6,0,35.2-1.7,52.8-2.2c15.1-0.5,30.4,0.7,45.6,1c8.3,0.1,15-1.5,20.3-8.3c3-3.9,3.8-10.1,3.2-15.5c0-0.1,0-0.2,0-0.3
				c1.6-22,1-43.9,0.8-66c-0.1-11.3-0.6-22.8-1.4-34c-0.1-1.7-0.2-3.3-0.2-5c1.5-1.5,2.5-3.5,2.7-6.2
				C188.3,60.5,190.5,49.6,188.4,41.2z"/>
			<path class="st14" d="M178.7,190.9c-2.2,0.1-4.2,0.6-6.4,1c-2.9,0.6-4.8,0-7.6-0.2c-6.4-0.3-12.9,0.1-19.3,0.1
				c-5.7,0-11.3,1.4-17,0.9c-2.3-0.2-4.6-0.7-7-0.6c-2.1,0-3.8,1-5.6,1.6c-1.8-0.8-3.6-0.6-5.8-0.3c-4.1,0.6-8,0.9-12.1,0.8
				c-7.2-0.2-14.5,1.8-21.7,0.8c-8.3-1.2-16.8-1-25-1.9c-3.9-0.4-7.7-1-11.6-1.3c-3.8-0.3-7.8-0.7-10.8-3.4c-2.9-2.7-2.4-7.1-3-10.6
				c-0.7-4.1-0.6-8.2-0.6-12.4c0-7.4-0.4-14.6-0.5-22c-0.1-3.4-0.4-7-0.9-10.3c-0.4-2.8,0.1-5.7-0.3-8.6c-0.3-2.3-0.8-4.7-1.4-7
				c0.9-1.3,1-3,0.3-4.4c-0.2-3.1,0-6.4-0.2-9.5c-0.2-4-0.8-7.8-0.8-11.8C21.4,83.1,20,74.6,19.9,66c-0.1-3.5,1.1-6.8,0.9-10.4
				c-0.2-4.1-0.3-8.2-0.3-12.4c0-8.5-0.4-15.9,5.6-22.7c1.3-1.5-0.2-4.5-2.2-3.2c-2.8,1.8-5.5,2.8-7.7,5.5
				c-2.4,2.9-3.3,7.2-3.6,10.8c-0.4,4.7,0,9.5,0,14.3c0,4.5,1.2,8.7,0.7,13.2c-0.6,4.9,0.9,9.7,0.6,14.6c-0.3,4.7,0.4,9.4,0.3,14.2
				c-0.1,4.5,0,8.8,0.3,13.3c0.3,4.2-0.7,8.5,0.1,12.7c0.2,0.9,0.7,1.7,1.4,2.3c0,0.2-0.1,0.4-0.1,0.6c-0.7,3.8,0,8-0.6,11.9
				c-0.5,2.9-0.2,6.1,0.1,9.1c0.3,4.1,0.3,8.4,0.8,12.5c1.1,8-0.7,16.5,0.8,24.4c1.3,7,0.8,14.7,7.2,19.6c6.4,4.9,14.4,4.9,22,6.1
				c8.7,1.4,17.4,1.8,26.2,2c7.8,0.2,15.7,0.6,23.5-0.8c7.3-1.3,15.8,1.3,22.3-3.3c0.1-0.1,0.3-0.2,0.4-0.3c0.2,0.1,0.3,0.2,0.5,0.2
				c2.6,0.9,5.3,1.2,8,1.8c6.3,1.4,13.2,0.1,19.6,0.1c3.6,0,7.1-0.1,10.7-0.1c3.8,0,7.2,0.7,10.9,1c5.2,0.4,12.5-1.3,14.4-6.6
				C183.3,194,181.4,190.9,178.7,190.9z"/>
			<path class="st15" d="M190.8,37.6c-0.3-3.2-1.8-6.5-2.9-9.4c-2.7-7.2-7.7-9.8-14.9-11.3c-6.5-1.3-13.4-0.3-20-1.1
				c-7.4-0.9-15.4-1-22.8-0.7c-8.3,0.3-16.6,0.1-24.9,0.4c-8.3,0.3-16.5,1.4-24.8,1.4c-4.1,0-8.3-0.1-12.4,0.2
				c-3.8,0.2-7.6,0.8-11.4,0.4c-3.9-0.5-7.8-0.2-11.7-0.2c-3.4,0-7.6-0.5-10.8,0.7c-0.9,0.3-1.4,1.6-0.4,2.2
				c4.8,2.8,10.8,2.2,16.2,2.2c3.3,0,6.4,0.6,9.6,0.8c3.8,0.2,7.7-0.5,11.6-0.6c15.5-0.2,31,0.2,46.5,0.4c13.8,0.2,27.6,0.7,41.3,2
				c5.6,0.6,14.6-1.2,19,3.2c2.2,2.2,3.6,5.3,4.8,8.1c1.7,3.9,1.2,7.1,0.9,11.2c-0.1,1,0.2,1.8,0.7,2.3c-0.6,3.9-1.4,7.9-1.5,8.7
				c-0.7,5.9-1.5,11.8-2.3,17.6c-0.7,5.3,1.3,10.7,0.3,15.9c-1.2,6-0.1,12.4,0.1,18.4c1.1,23.9,2.7,47.9-0.7,71.7
				c-0.4,2.5,3.5,3.1,4.2,0.8c3.3-10.5,4.2-22.4,4.4-33.4c0.2-12.9,0.4-25.8,0-38.7c-0.2-5.9-1.5-12.1-0.4-17.9
				c1.1-5.6-1.4-10.9-1.6-16.5c-0.2-5.9,0.5-11.8,0.3-17.7c-0.1-2.7,0.1-5.4,0.3-8c1.3-0.3,2.5-1.2,2.8-2.9
				C190.5,44.3,191.1,41.1,190.8,37.6z"/>
		</g>
		<g class="st5">
			<path class="st6" d="M143.8,98.1c-0.3-4.5,0.5-8-4.4-9.9c-7-2.8-15.2-2.4-22.6-2.1c-15.5,0.6-31,1.6-46.5,1.4
				c-0.1-0.1-0.2-0.1-0.3-0.1c-0.5,0-1,0-1.4,0.1c-0.6,0-1.2,0-1.8,0c-0.5,0-0.9,0.2-1.1,0.5c-10,2.8-9.6,15.5-9.6,25.2
				c0,7.8-0.5,15.5-0.6,23.3c-0.1,8.7,0.9,17.3,1.4,26c0.3,4.8,1.1,8.2,5.6,10.3c0.6,0.3,1.2,0.5,1.8,0.7c0.2,0.2,0.3,0.4,0.5,0.6
				c0.4,0.5,1.3,0.5,1.6-0.1c5.5,1.1,12.1,0.2,17.1-0.1c7.1-0.4,14.3-0.5,21.3-0.1c7.9,0.4,16-0.7,23.9-0.6c4.5,0,11.4,0.9,14.3-3.5
				c1.2-1.8,1-4.1,1.1-6.2c0.2-4.8,0.9-9.6,1.4-14.4C147,131.9,145,115.2,143.8,98.1z M59.1,158.3c-0.5-4.6-0.8-9.2-0.9-13.8
				C58.4,149,58.7,153.7,59.1,158.3C59.1,158.3,59.1,158.3,59.1,158.3z M59.9,107.6c-0.2-0.1-0.3-0.2-0.5-0.2
				c0.1-0.1,0.2-0.2,0.2-0.3c0.3-1,0.6-2.2,0.9-3.4C60.4,105,60,106.3,59.9,107.6z M64.2,90.6c0,0.1,0,0.1,0,0.2
				c-0.3,0.1-0.7,0.3-1,0.5c-0.1,0.1-0.2,0.2-0.3,0.3c-0.1,0.1-0.3,0.2-0.4,0.3c-0.2,0.3-0.4,0.6-0.6,0.9c-0.2-0.1-0.5-0.1-0.7-0.1
				c0.8-1.1,2-1.9,3.2-2.5C64.3,90.3,64.2,90.4,64.2,90.6z M65.7,105.2c0,0-0.1,0-0.1,0c0-0.2,0-0.4,0-0.6c0.2-1.2,0.3-2.2,0.4-3
				c0-0.6,0.1-1.2,0.1-1.8c0.1-0.2,0.1-0.3,0.2-0.5C66,101.3,65.8,103.3,65.7,105.2z M134.8,162.8c0.2-0.3,0.4-0.6,0.5-0.9
				c0.1,0,0.3,0,0.4,0c-0.3,1.1-0.6,2.2-1,3.3c0,0.1-0.1,0.1-0.2,0.2C134.6,164.5,134.7,163.6,134.8,162.8z M131.8,90.4
				c0.4-0.2,0.6-0.6,0.6-1.1c0.4,0,0.7,0.1,1.1,0.1c-0.2,0.1-0.3,0.3-0.4,0.5c-0.1,0.4-0.2,0.8-0.3,1.3c-0.2,0-0.4,0-0.6,0
				c-0.1-0.1-0.1-0.1-0.2-0.2c-0.4-0.3-0.8-0.1-1.1,0.3c-0.4,0-0.7,0-1.1,0.1C130.7,91.1,131.3,90.8,131.8,90.4z M132.3,95.7
				c-0.3-0.2-0.7-0.3-1.1-0.3c-0.1,0-0.2,0-0.3,0c0.1-0.1,0.1-0.2,0.1-0.3c0.3-0.1,0.6-0.3,1-0.4C132.1,94.9,132.2,95.3,132.3,95.7z
				 M133.1,103.4c0.3,1,0.4,2,0.5,3c-0.4,1.3-0.5,2.7-0.5,4.1c-0.2,0.6-0.4,1.2-0.8,1.8c-0.8,1.4-5,0.6-6.4,0.7
				c-1.4,0.1-6.9,1.7-7.5-0.4c-0.3-1.1-0.5-2.3-0.8-3.4c0.2-0.7,0.2-1.4,0.2-2.3c0-0.6-0.5-0.9-0.9-0.9c-0.1-0.8-0.2-1.7-0.3-2.5
				c0-0.4,0-0.7,0.1-1c0.2-0.5,0.4-1.1,0.7-1.6c0.8-1.1,2.1-1.7,3.6-2c0.2,0.3,0.6,0.5,1,0.3c0.6-0.3,1.1-0.5,1.7-0.7
				c0.3,0,0.5,0,0.8-0.1c0.3,0,0.4-0.2,0.5-0.4c1.4-0.4,2.9-0.7,4.5-0.7C132.5,97.4,132.5,101.3,133.1,103.4z M132,122.9
				c-0.3-0.1-0.6-0.1-0.9-0.1c0.3-0.3,0.6-0.6,0.9-0.9C132,122.2,132,122.5,132,122.9z M125.5,129.7c0.3-0.6,0.6-1.2,0.9-1.7
				c-0.1,0.7-0.2,1.4-0.3,2.1C125.9,129.9,125.7,129.8,125.5,129.7z M125.5,135.6c-0.2,2-0.5,4-1,6c0,0,0-0.1,0-0.1
				c0-0.1-0.1-0.2-0.1-0.3C124.8,139.3,125.2,137.5,125.5,135.6z M122.1,146.7c-0.7,0.9-1.4,1.7-2.2,2.4c0.1-0.2,0.3-0.5,0.4-0.7
				c0.6-0.6,1.1-1.2,1.4-1.7C121.8,146.7,121.9,146.7,122.1,146.7z M116.2,90.9c2.7-0.1,5.4-0.6,8.1-1c1.3,0,2.6-0.1,3.9-0.1
				c-0.5,0.3-1.1,0.5-1.6,0.8c-2.1,0.1-4.2,0.1-6.3,0.2c-1.2,0.1-3,0.4-4.7,0.4C115.8,91.1,116,91,116.2,90.9z M108.6,115.9
				c3.5,1,5.1,6.1,6.6,9c4.6,9.1,1.1,21.9-10.3,22.7c-8.3,0.6-16-4-18-12.2c0-0.1,0-0.1,0-0.2c0.7-3.1,0.8-6.7,0.3-10
				c0.1-0.5,0.2-0.9,0.4-1.4c1.2-3.9,4.3-5.8,7.6-7.5c0.9-0.2,1.7-0.4,2.6-0.6C101.4,115.2,104.8,114.8,108.6,115.9z M111.1,148.9
				c-0.1,0.1-0.2,0.2-0.4,0.2c-0.7,0.3-1.4,0.6-2.1,0.9c-0.4,0-0.7,0.1-1.1,0.1C108.8,149.9,110,149.5,111.1,148.9z M95.2,151.9
				c-0.2,0.1-0.4,0.1-0.5,0.1c-0.5,0.2-0.9,0.7-0.9,1.2c-0.1,0-0.2,0-0.2,0.1c-0.2-0.9-0.5-1.7-0.9-2.5c0.5,0.1,1,0.3,1.5,0.4
				C94.5,151.5,94.9,151.7,95.2,151.9z M90.6,147.1c-0.3-0.5-0.6-0.9-0.9-1.4c0.4,0.3,0.8,0.7,1.2,1
				C90.8,146.7,90.6,146.9,90.6,147.1z M90.9,151.3c-0.3-0.3-0.7-0.7-1-1c-0.2-0.7-0.4-1.2-0.8-1.8c0.1,0,0.2,0,0.4,0
				C90,149.4,90.5,150.3,90.9,151.3z M84.1,98.8c0-0.1,0-0.3,0-0.4c3.1-1,6.2-2.1,9.1-3c0.3-0.1,0.6-0.2,0.9-0.3
				C90.8,96.4,87.5,97.6,84.1,98.8z M86.6,120.9c-0.1,0.2-0.3,0.4-0.4,0.6c0-0.1-0.1-0.2-0.1-0.3c0-0.3,0-0.7,0-1
				c0.1,0,0.1-0.1,0.2-0.1c0,0.1,0,0.1,0,0.2C86.4,120.6,86.5,120.8,86.6,120.9z M85.6,112.8c0-0.3,0-0.6-0.1-0.8
				c0.1-0.1,0.3-0.1,0.4-0.2c0,0.3,0,0.5,0,0.8C85.8,112.6,85.7,112.7,85.6,112.8z M85.9,140.8c-0.6-0.6-1.4-0.2-1.6,0.4
				c0-0.1-0.1-0.1-0.1-0.2c0-0.3-0.1-0.5-0.1-0.8c0.5,0,1-0.4,1-1c0-0.1,0-0.2,0-0.3C85.4,139.6,85.6,140.2,85.9,140.8z M90.6,117
				c0.1,0,0.3,0,0.4,0c-0.8,0.4-1.6,0.9-2.3,1.5c0-0.1,0-0.1,0-0.2C89.4,117.8,90,117.4,90.6,117z M89.4,110.3
				c0-0.2,0.1-0.4,0.1-0.6c0.8-0.5,1.7-0.9,2.5-1.4c0.3,0,0.7-0.2,0.9-0.5c1-0.5,2-1.1,2.9-1.6c-1.2,0.8-2.5,1.6-3.7,2.4
				C91.3,109.2,90.3,109.8,89.4,110.3z M100.5,101.1c-2.8,1-5.5,2.3-8.2,3.8c0-0.1-0.1-0.1-0.1-0.2c3.4-1.7,6.9-3.4,10.4-4.8
				C101.9,100.2,101.2,100.7,100.5,101.1z M97,99.4c-3.1,1.5-6.1,3.1-9.2,4.7c0-0.3-0.1-0.6-0.1-0.9c3.3-1.3,6.6-2.7,9.9-4.1
				C97.4,99.2,97.2,99.3,97,99.4z M94.6,90.4c-0.6,0.1-1.3,0.2-1.9,0.3c-1.3,0.2-2.5,0.5-3.8,0.8c-0.3,0-0.6,0.1-0.9,0.1
				c-1.3-0.2-2.6-0.3-3.8-0.4C87.7,90.9,91.2,90.6,94.6,90.4z M88.7,93.7c-2.5,0.8-5,1.6-7.4,2.4c0-0.2,0-0.5-0.1-0.7
				C83.7,94.9,86.2,94.3,88.7,93.7z M79.5,104.7c0.1,2.7,0.2,5.4,0.4,8.2c0,0.2,0,0.4,0,0.5c0,1,0.1,1.9,0.1,2.9
				c-0.1,0.1-0.3,0.2-0.4,0.2C79.5,112.6,79.3,108.6,79.5,104.7z M78.7,96c-0.1,0.4-0.2,0.7-0.3,1.1c-0.2,0.1-0.4,0.1-0.7,0.2
				c0-0.3-0.1-0.5-0.1-0.8c0-0.1-0.1-0.2-0.1-0.2C77.9,96.2,78.3,96.1,78.7,96z M78.6,131.9c-0.5-1.9-1-4-1.3-6
				C77.8,127.9,78.2,129.9,78.6,131.9z M76.2,105.6c0.1,2.5,0.1,5,0.1,7.5C76.2,110.6,76.1,108.1,76.2,105.6z M76.3,137.7
				c-0.2-0.5-0.4-1.1-0.6-1.7c-0.4-1.3-0.6-2.6-0.6-3.9C75.4,134,75.8,135.8,76.3,137.7z M70.8,93.3c0.2,0,0.5,0,0.7,0
				c1.5,0,3.1,0,4.6-0.1c-0.8,0.2-1.6,0.3-2.3,0.5c-0.5-0.1-1,0-1.3,0.4c-0.6,0.2-1.2,0.4-1.8,0.6c-0.5-0.2-1.2,0-1.4,0.6
				c0,0,0,0-0.1,0C69.7,94.6,70.3,94,70.8,93.3z M70,110.1c0-0.4,0-0.7,0-1.1c0.3-0.7,0.6-1.4,0.9-2.1c0,0.6,0,1.2,0,1.8
				C70.6,109.2,70.3,109.6,70,110.1z M70.7,116.5c-0.2,0.2-0.3,0.4-0.5,0.5c0-0.2,0-0.3,0-0.5c0.2-0.3,0.3-0.6,0.5-0.9
				C70.7,116,70.7,116.3,70.7,116.5z M67,142.9c0,0.5,0,1.1-0.1,1.6c-0.1-1.8-0.2-3.6-0.3-5.4c0.1,0,0.2,0.1,0.3,0.1
				C67,140.5,67,141.6,67,142.9z M69.2,121.5c0.4-0.1,0.8-0.4,0.8-1v0c0-0.3,0.6-0.6,0.8-0.8c0.1,0.6,0.2,1.1,0.3,1.7
				c-1,0.7-2.1,1.3-3.3,1.8C68.3,122.6,68.7,122,69.2,121.5z M74.9,165.7c-0.4,0.1-0.7,0.5-0.8,0.8c-0.1,0-0.1,0-0.2,0
				c0.2-0.4,0.1-0.9-0.2-1.2c0.7,0,1.4,0.1,2.1,0.1C75.5,165.5,75.2,165.6,74.9,165.7z M94.9,163.9c-0.9,0.1-1.8,0.3-2.7,0.5
				c-0.3,0-0.6,0-0.9,0.1c-1.4,0-2.9,0.1-4.3,0.1c2.7-0.2,5.5-0.5,8.3-0.7C95.1,163.9,95,163.9,94.9,163.9z M105.5,168.5
				C105.4,168.5,105.4,168.5,105.5,168.5c-0.5,0-1-0.1-1.4-0.1c0.5-0.1,0.9-0.3,1.3-0.4c0.5,0.2,1.1,0.3,1.7,0.5
				C106.5,168.5,106,168.5,105.5,168.5z M121.9,170.7c0.6-0.1,1.3-0.2,1.9-0.3c0.3-0.1,0.7-0.1,1.1-0.2c1.3,0.1,2.6,0.3,3.9,0.3
				C126.4,170.5,124.1,170.6,121.9,170.7z M114.5,167c1.1-0.1,2.3-0.2,3.5-0.4c2.1,0,4.1,0,6.2-0.1c-0.1,0-0.1,0.1-0.2,0.1
				c-0.5,0-1.1,0-1.6,0C120,166.6,117.3,166.9,114.5,167z M130.2,166.5c-0.6,0.1-1.1,0.3-1.7,0.4c0,0,0,0,0,0
				c0.4-0.2,0.9-0.5,1.3-0.7c0,0,0.1-0.1,0.1-0.1c0.2,0,0.3-0.1,0.5-0.1C130.3,166.2,130.2,166.4,130.2,166.5z M132.4,158.3
				c-0.9,4.4-14.4,3.6-17.9,3.4c-5.4-0.4-10.9-0.8-16.3-0.6c-5.7,0.1-11.3,1.3-17,1.4c-2.3,0.1-4.7-0.4-7-0.4
				c-5.9,0-4.4-7.3-4.5-11.1c-0.2-5.8-0.7-11.5-1.1-17.2c-0.1-1.9,0.3-4.5-0.1-6.5c1.7-1.6,4.6-2.7,4.5,0.5c-0.1,2.4,0,4.7,0.3,7
				c0.4,3.5,2,7.4,4.3,10c2.5,2.9,5.2,6.4,8.4,8.5c4.2,2.7,7,3.8,12,4.8c3.9,0.8,8.8-0.5,12.6-1.4c0.8-0.2,1.7-0.4,2.6-0.7
				c0.3,0.1,0.6,0.1,0.8,0c0.4-0.2,0.7-0.4,1-0.6c1.9-0.7,3.7-1.6,5.1-2.7c7.1-5.3,8.4-15,8.7-23.3c-0.3-2.2,1.2-3,4.4-2.3
				c0.2,1.5,0.3,3,0.3,4.4c0.1,3,0.4,5.9,0.5,8.9C133.9,146.3,133.6,152.3,132.4,158.3z M138.2,169.1c-0.7,0.3-1.4,0.4-2.1,0.5
				c0.8-0.7,1.6-1.5,2.3-2.3C138.3,167.9,138.2,168.4,138.2,169.1C138.2,169,138.2,169.1,138.2,169.1z M143.5,138.9
				c-0.3-0.2-0.6-0.3-0.9-0.1c0-0.9,0.1-1.8,0.1-2.7c0.2-0.2,0.4-0.4,0.4-0.9c0.2-2.5,0.2-5,0.2-7.5c0.1,2.1,0.2,4.1,0.2,6.2
				C143.6,135.6,143.5,137.2,143.5,138.9z"/>
		</g>
		<g>
			<path d="M74,33c-8.8,1.2-16.9,9.5-12.7,18.7c0.6,1.3,2.3,0.9,2.8-0.2c1.1-2.4,1.6-4.7,3.2-6.9c2.2-2.8,5-3.4,8.3-4
				c5.6-1.2,4.5,8.8,6.1,11.6c1.8,3,7,2.4,7-1.5C88.8,41.6,84.8,31.5,74,33z"/>
			<path d="M114.5,40.7c0.8,7-5.3,7.3-10.7,5.8c-2.2-0.6-7.1-4.3-7-6.9c0-0.5-0.5-1-1-0.8c-3,0.8-2.8,3.5-2.3,6.1
				c0.7,4.2,4.4,6.8,8.1,8.4c4.1,1.9,10.1,1,14-1c4.1-2.1,4.6-8.2,4.9-12.1C120.8,36,114,36.2,114.5,40.7z"/>
			<path d="M142,31.4c-5-0.7-9.7,1.2-13,5c-3.5,4-3.3,9.2-2.2,14c0.4,1.6,3,1.9,3.4,0.2c1.2-5.5,2.5-11.1,8.8-12.3
				c7.4-1.4,7.9,7.3,7.2,12c-0.5,3.6,4,4.8,6.3,3c3.9-3,2.7-8.9,0.9-12.9C151.1,35.9,147.1,32.2,142,31.4z"/>
		</g>
	</g>
	<path d="M190.3,93.7c0-0.6,0.1-1.3,0.1-1.9c-0.1-0.6-0.1-1.2-0.1-1.8c0-0.2,0-0.4,0-0.7c0-0.2,0-0.5,0-0.7c0-0.6,0-1.2,0.1-1.7
		c0.2-13.7,1.9-27.3,1.9-41c0-6.6-0.5-13.1-0.7-19.6c-0.2-5.1-3.3-8.7-7.8-10.7c-3.6-1.6-8.2-1.9-12.1-2.3
		c-4.5-0.5-8.9-0.9-13.4-1.2c-9.2-0.6-18.3-2.5-27.5-3c-15.9-0.9-31.9-0.2-47.8,0.2c-4.2,0.8-8.4,1.2-12.7,1.3c0,0,0,0-0.1,0.1
		c-0.4,0-0.7,0-1.1,0c-0.7,0-1.5,0-2.2,0c-3.1,0.1-6.2,0.4-9.3,0.7c-5.7-0.2-11.3-0.9-17-0.7c-3.5,0.1-6.8,0.7-10.3,0.5
		c-3.4-0.2-6.4,0.3-9.7,1.3c-4.6,1.5-7.7,3.4-9.8,7.8c-2.6,5.5-1.4,12.3-1.2,18.1c0.1,2.9,0.8,5.6,0.8,8.5c-0.1,3.2-0.4,6.4-0.6,9.6
		c-0.2,3.2-0.1,6.5,0,9.7c0,3.6-0.7,7.2-0.6,10.9C9,83.4,8.9,89.9,8.7,96.3c0,0,0,0-0.1-0.1c0,0.4,0.1,0.9,0.1,1.3
		c0,0.1,0,0.2,0,0.3c0,0.1,0,0.2,0,0.3c0,0.7-0.1,1.3-0.2,1.9c0,0,0,0,0.1,0c-0.2,6.6-0.3,13.3-0.3,20c0,6.6,0.5,13,0.6,19.6
		c0.2,7.4,1.5,14.7,1.8,22.1c0.3,6.7,0.7,13.3,0.7,20c0,6.5,0.4,10.8,4.8,16c3.9,4.6,8.1,6.1,14,7.2c3.1,0.6,6.3,0.1,9.4,0.4
		c3.7,0.3,7.3,1.1,11,1.4c6.9,0.5,13.4,1.2,20.4,1c8-0.1,16,0.7,24,0.7c12.6,0,25.2-1.4,37.8-2.7c7.7,0.3,15.3,0.3,23,0
		c7.3-0.3,15.5,1.4,22.4-1.6c2.6-1.1,4.3-2.8,5.6-4.7c3.7-5,4.5-13.2,4.6-19.5c1.3-8.6,2.3-17.2,2.4-26c0-0.3,0-0.6,0-0.9
		c0.6-6.8,1.2-13.5,1.4-20.3c0.4-12.2-1.3-24.5-1.8-36.7C190.3,95.3,190.3,94.5,190.3,93.7z M185.6,146.9
		c-0.6,7.8-1.3,15.8-2.6,23.5c-1.2,6.8,0,13.6-1.8,20.3c-0.9,3.2-3.1,7.3-6.7,7.3c-3.4,0-6.7-0.7-10.2-0.6
		c-14,0.3-28.2,1.7-42.1,3.5c-0.6,0.1-1.3,0.2-1.9,0.2c-2.2,0-4.4,0-6.6,0c-12.5,0-24.9-0.4-37.4,0c-5.7,0.2-11.3,0.4-17,0.5
		c-0.6-0.1-1.1-0.1-1.7-0.2c-3.3-0.4-6.6-0.7-9.9-0.9c-3.7-0.2-7.2-1.3-11-1.4c-7.7-0.1-13.3-1.4-17.7-7.9c-0.8-1.7-1.3-3.7-1.6-5.8
		c0-1.8,0.2-3.7,0.2-5.4c0-3.8,0.1-7.6,0-11.4c-0.1-3-0.3-6-0.6-8.9c0-7-0.2-14.1-0.5-21.1c-0.5-12.1-1.6-24-1.8-36
		c0.1-5.1,0.2-10.2,0.3-15.4c0.1-4.2,0.2-8.5,0.2-12.7c0.3-10.2,1-20.4,1.2-30.6c0.1-5.2-1-10.4-0.8-15.6c0.3-1,0.7-2,1.1-3
		c0,0,0-0.1,0.1-0.1c1.1-1.6,2.7-3.1,4.8-4.6c3.5-2.3,11-2.6,15.3-2.5c6.5,0.2,13-0.1,19.5-0.1c21.7,0.1,43.4,0.1,65.2,0.1
		c10.8,0,21.5-0.2,32.3-0.6c0.2,0,0.3,0,0.5,0c1.7,0.2,3.5,0.4,5.2,0.5c3.7,0.2,7.5,0.5,11.3,0.9c6.8,1.6,12.9,4.8,14.9,11
		c0.2,3.5,0.6,7,0.6,10.6c0,14.7-1.1,29.2-1.8,43.8c-0.3,7.2,0,14.4,0.5,21.6c0.4,10.7,1.1,21.5,1.3,32.2
		C186.1,141.1,185.8,144.1,185.6,146.9z"/>
</g>
<g class="st0">
	<g class="st1">
		<g>
			<path class="st16" d="M190.6,70.1c-0.1-9.1,0.5-19-0.8-28.1c-1.1-7.5-0.5-16.5-8.1-20.9c-7.1-4.1-14.5-3.5-22.3-4.8
				c-9.3-1.6-19.1,0.3-28.4,0c-9.5-0.3-18.9,0.1-28.4,0.8c-2.3,0.2-4.7,0.2-7,0.3c-0.9-0.1-1.6-0.1-1.5,0c-0.1,0-0.3,0-0.4,0
				c-7.7-1.5-15.6-0.3-23.4-0.4c-7.8-0.1-15.9,0.5-23.7,0.7c-1.4,0-2.9,0.2-4.5,0.3c-8.1-1.6-16.6-1-23.4,3.8
				c-3.7,2.7-4.6,6.4-3.7,9.9c-0.7,0.9-1.2,2.1-1.2,3.4c-0.4,6.1,0.1,12.2,0.3,18.2c0.1,5.8-0.5,11.6-0.2,17.3
				c0.6,11.1,0.3,22.3,1,33.5c1.6,24.3,3.9,48.6,3.2,72.9c-0.3,10.6,0.4,20.3,12.1,23.8c5,1.5,9.9,1.1,15,1.2
				c7.1,0.3,14.1,0.2,21.2,0c10.6-0.3,21.2-0.1,31.7-1c1.4,0.3,2.8,0.5,4.2,0.8c5.3,1-6-1.1,2,0.7c7.9,1.8,15-0.2,22.6-1.1
				c0.9,0.5,1.9,0.8,2.9,0.9c10.9,1,22,0.1,33,0.7c2.3,0.1,4.9-0.4,7.4-1c2.5,0.5,5.2,0.2,7.7-1.6c1.1-0.8,2.1-1.6,3-2.5
				c1.7-1.5,3-3.5,4-5.6c0.3-0.7,0.5-1.5,0.6-2.3c1.8-5.7,1.5-12.3,2.6-18.6c2.2-13.4,2.8-28,0-41.3c1.1-3.9,1.2-8.2,0.2-12.1
				c0-1.1-0.1-2.2-0.4-3.3c0.3-5.2,0.9-10.5,1.2-15.5C189.7,89.7,190.6,79.9,190.6,70.1z"/>
			<path class="st17" d="M179.4,191.2c-2.2,0.1-4.2,0.6-6.4,1c-2.9,0.6-4.8,0-7.6-0.2c-6.4-0.3-12.9,0.1-19.3,0.1
				c-5.7,0-11.3,1.4-17,0.9c-2.3-0.2-4.6-0.7-7-0.6c-2.1,0-3.8,1-5.6,1.6c-1.8-0.8-3.6-0.6-5.8-0.3c-4.1,0.6-8,0.9-12.1,0.8
				c-7.2-0.2-14.5,1.8-21.7,0.8c-8.3-1.2-16.8-1-25-1.9c-3.9-0.4-7.7-1-11.6-1.3c-3.8-0.3-7.8-0.7-10.8-3.4c-2.9-2.7-2.4-7.1-3-10.6
				c-0.7-4.1-0.6-8.2-0.6-12.4c0-7.4-0.4-14.6-0.5-22c-0.1-3.4-0.4-7-0.9-10.3c-0.4-2.8,0.1-5.7-0.3-8.6c-0.3-2.3-0.8-4.7-1.4-7
				c0.9-1.3,1-3,0.3-4.4c-0.2-3.1,0-6.4-0.2-9.5c-0.2-4-0.8-7.8-0.8-11.8c-0.1-8.6-1.4-17.1-1.6-25.7c-0.1-3.5,1.1-6.8,0.9-10.4
				c-0.2-4.1-0.3-8.2-0.3-12.4c0-8.5-0.4-15.9,5.6-22.7c1.3-1.5-0.2-4.5-2.2-3.2c-2.8,1.8-5.5,2.8-7.7,5.5
				c-2.4,2.9-3.3,7.2-3.6,10.8c-0.4,4.7,0,9.5,0,14.3c0,4.5,1.2,8.7,0.7,13.2c-0.6,4.9,0.9,9.7,0.6,14.6c-0.3,4.7,0.4,9.4,0.3,14.2
				c-0.1,4.5,0,8.8,0.3,13.3c0.3,4.2-0.7,8.5,0.1,12.7c0.2,0.9,0.7,1.7,1.4,2.3c0,0.2-0.1,0.4-0.1,0.6c-0.7,3.8,0,8-0.6,11.9
				c-0.5,2.9-0.2,6.1,0.1,9.1c0.3,4.1,0.3,8.4,0.8,12.5c1.1,8-0.7,16.5,0.8,24.4c1.3,7,0.8,14.7,7.2,19.6c6.4,4.9,14.4,4.9,22,6.1
				c8.7,1.4,17.4,1.8,26.2,2c7.8,0.2,15.7,0.6,23.5-0.8c7.3-1.3,15.8,1.3,22.3-3.3c0.1-0.1,0.3-0.2,0.4-0.3c0.2,0.1,0.3,0.2,0.5,0.2
				c2.6,0.9,5.3,1.2,8,1.8c6.3,1.4,13.2,0.1,19.6,0.1c3.6,0,7.1-0.1,10.7-0.1c3.8,0,7.2,0.7,10.9,1c5.2,0.4,12.5-1.3,14.4-6.6
				C184,194.3,182.1,191.2,179.4,191.2z"/>
			<path class="st18" d="M191.5,37.9c-0.3-3.2-1.8-6.5-2.9-9.4c-2.7-7.2-7.7-9.8-14.9-11.3c-6.5-1.3-13.4-0.3-20-1.1
				c-7.4-0.9-15.4-1-22.8-0.7c-8.3,0.3-16.6,0.1-24.9,0.4c-8.3,0.3-16.5,1.4-24.8,1.4c-4.1,0-8.3-0.1-12.4,0.2
				c-3.8,0.2-7.6,0.8-11.4,0.4c-3.9-0.5-7.8-0.2-11.7-0.2c-3.4,0-7.6-0.5-10.8,0.7c-0.9,0.3-1.4,1.6-0.4,2.2
				c4.8,2.8,10.8,2.2,16.2,2.2c3.3,0,6.4,0.6,9.6,0.8c3.8,0.2,7.7-0.5,11.6-0.6c15.5-0.2,31,0.2,46.5,0.4c13.8,0.2,27.6,0.7,41.3,2
				c5.6,0.6,14.6-1.2,19,3.2c2.2,2.2,3.6,5.3,4.8,8.1c1.7,3.9,1.2,7.1,0.9,11.2c-0.1,1,0.2,1.8,0.7,2.3c-0.6,3.9-1.4,7.9-1.5,8.7
				c-0.7,5.9-1.5,11.8-2.3,17.6c-0.7,5.3,1.3,10.7,0.3,15.9c-1.2,6-0.1,12.4,0.1,18.4c1.1,23.9,2.7,47.9-0.7,71.7
				c-0.4,2.5,3.5,3.1,4.2,0.8c3.3-10.5,4.2-22.4,4.4-33.4c0.2-12.9,0.4-25.8,0-38.7c-0.2-5.9-1.5-12.1-0.4-17.9
				c1.1-5.6-1.4-10.9-1.6-16.5c-0.2-5.9,0.5-11.8,0.3-17.7c-0.1-2.7,0.1-5.4,0.3-8c1.3-0.3,2.5-1.2,2.8-2.9
				C191.3,44.6,191.8,41.4,191.5,37.9z"/>
		</g>
		<g class="st5">
			<path class="st6" d="M70.4,70.8c0.2,0.7,0.5,1.4,0.8,2.2c1.8,5.1,3,10.5,5.3,15.4c0,0,0,0,0,0c0.5,4.2-0.5,8.7-0.1,12.9
				c0.3,3.1-0.7,6.6,0.6,9.4c0.2,0.4,0.7,0.7,1.1,0.7c1,0,1.7-0.2,2.4-0.8c1.5-0.1,1.7-0.1,3.1-0.9c0.6-0.3,0.8-0.9,0.7-1.5
				c-0.9-7.6-2-18.1,0.4-25.4c1.8-5.6,7.3-11.4,6.5-17.5c-0.1-0.5-0.6-1-1.2-1c-1.7,0-5.9,0-6.9,1.7c-1.7,2.8-2.4,6.2-3.1,9.5
				c-0.4-5.2-0.9-11.6-5.4-10.7c-3.5,0.7-4.6,2.3-4.5,4.3c-0.1,0.2-0.2,0.4-0.1,0.7C70.2,70.2,70.3,70.5,70.4,70.8z M84.9,76.3
				c0.6-1.8,1.4-3.7,1.9-5.6c0.3-0.7,0.5-1.5,0.8-2.2c0.1-0.3,0.1-0.5,0-0.8c1.6,0.8-1,5.7-2.7,8.8C84.9,76.4,84.9,76.3,84.9,76.3z
				 M81.4,87.7c-0.1,1.2-0.1,2.5-0.2,3.8c-0.1-1.1-0.3-2.2-0.4-3.2C81.1,88.1,81.3,87.9,81.4,87.7z M78,84.1
				c0.1,0.4,0.3,0.9,0.4,1.3c0,0.2-0.1,0.4-0.1,0.6c0,0,0,0,0,0c0,0-0.1-0.1-0.1-0.1c-0.3-0.5-0.5-1-0.7-1.5
				C77.7,84.4,77.9,84.3,78,84.1z M75.9,68.8c-0.3-0.1-0.6-0.1-0.9,0c-0.1-0.4-0.3-0.8-0.4-0.9c-0.1-0.2-0.3-0.3-0.4-0.4
				C74.8,67.3,75.4,67.6,75.9,68.8z"/>
			<path class="st6" d="M109.7,91.9c-0.2-4.6,0.3-12.2-3.1-15.6c-2-2.1-6.5-1.9-8.9-1.1c-1.4,0.4-2.5,1.4-3.4,2.6
				c-2.4,1.9-2.9,4.7-3.3,7.8c-0.8,6.7-0.7,13.7,0,20.3c0.8,7.4,13.5,6.2,16.6,1.5C110.9,102.5,109.9,97.5,109.7,91.9z M94.6,84.7
				c-0.1,0.2-0.2,0.5-0.3,0.7c-0.2-0.2-0.5-0.3-0.8-0.3c0-0.1,0-0.2,0-0.2c0.2,0,0.5,0,0.7-0.1C94.5,84.7,94.6,84.6,94.6,84.7
				C94.7,84.6,94.6,84.7,94.6,84.7z M96.1,91.4c0,0.1,0,0.1,0.1,0.1c-0.1,1-0.1,2.1-0.1,3.1c-0.1-1.4-0.2-2.8-0.2-4.2
				C96,90.7,96,91,96.1,91.4z M98.8,103.5c0.4,0.3,0.8,0.4,1.2,0.5c-0.2,0.3-0.3,0.5-0.5,0.9c0,0,0,0,0,0c-0.3-0.5-0.8-0.7-1.3-0.6
				c0-0.3,0-0.5,0-0.8c-0.3-0.1-0.6-0.4-0.7-0.8c-0.3-0.7-0.5-1.5-0.6-2.3c-0.4,0-0.8,0.2-0.9,0.5c0-0.1-0.1-0.2-0.1-0.3
				c0.4-0.1,0.8-0.5,0.7-1c0-0.2,0-0.4,0-0.6c0.1,0.3,0.2,0.7,0.3,1c-0.2-1.7,0-3.5,0.1-5.3c0.2-2.9,0.3-6.2,1.3-9
				c0.1-0.2,0.2-0.3,0.3-0.4c0-0.2,0-0.4,0-0.5c2.4-4,2.8,4,2.8,5.8c0.1,2.8-0.1,5.7-0.2,8.5c0,0.3-0.1,0.5-0.2,0.7
				c0,0.9,0,1.7-0.2,2.5C100.5,103.1,99.6,103.6,98.8,103.5z M100.9,108.4c0.1-0.3,0.2-0.8,0.3-1.3c0.2,0.2,0.5,0.4,0.7,0.5
				c0,0.1,0,0.3,0,0.4c0,0.1,0,0.1,0.1,0.2C101.7,108.3,101.3,108.4,100.9,108.4z M103.8,96.3c0-0.5,0-1,0-1.5
				c0.1,0.1,0.3,0.2,0.5,0.3c0.1,0.4,0.1,0.9,0.2,1.3C104.2,96.4,104,96.3,103.8,96.3z M105.7,81.7c-0.2,0-0.3,0-0.5,0
				c-0.4-1.2-0.9-2.4-1.4-3.6c1.1,0.9,1.7,2.2,2.1,3.6C105.8,81.7,105.8,81.7,105.7,81.7z"/>
			<path class="st6" d="M131.4,87.4c-0.3-4-0.1-7.8-1-11.7c-0.6-2.7-4.5-4-6.3-1.4c-1.6,2.5-1.3,6.6-1.6,9.4
				c-0.1,0.8-0.1,1.5-0.1,2.3c0.5,4.6,0.9,9.2,1,13.7c0.1,2.8-4.4,2.8-4.3,0c0.2-8.4,0.4-16.9,1.2-25.2c0-0.1,0.1-0.2,0.1-0.2
				c-1.1-2.4-6.7-0.3-8.2,0.5c-1.2,0.6-0.7,2.1,0.2,2.4c0,4.1,0,8.3,0,12.4c0,4.1-0.8,8.4-0.3,12.4c0.8,6,3.8,10.2,10.3,9.7
				c6.6-0.5,8.1-4.1,9.1-9.7C132.4,97.2,131.8,92.3,131.4,87.4z M114.8,91.4c-0.2,0.1-0.4,0.2-0.5,0.4c0-0.7,0-1.3,0-2
				c0.1,0,0.2,0,0.3,0c0.1,0.4,0.2,0.9,0.3,1.3C114.8,91.1,114.8,91.3,114.8,91.4z M116.1,76.9c-0.2-0.3-0.4-0.5-0.6-0.8
				c1-0.3,2-0.3,2.1,1.2c0,0,0,0,0,0c-0.1-0.1-0.2-0.2-0.4-0.3C116.9,76.9,116.5,76.8,116.1,76.9z M117.2,98.4
				c-0.1-1.9-0.2-3.8-0.2-5.8c0.1-0.1,0.1-0.1,0.2-0.2c0.1,0.3,0.1,0.5,0.2,0.8c0.1,0.3,0.2,0.4,0.3,0.6c0,1.6,0,3.2,0,4.8
				C117.6,98.5,117.4,98.4,117.2,98.4z M122.6,105.5c-0.8,0.5-1.8,0.5-3.1-0.1c0,0-0.1-0.1-0.1-0.1c0-0.1,0-0.2,0-0.3
				c0.8,0.5,2,0.6,2.9,0.2c0.2-0.1,0.3-0.2,0.5-0.3C122.7,105.1,122.7,105.3,122.6,105.5z M126,78.6c0-0.1-0.1-0.1-0.1-0.2
				c0,0,0-0.1-0.1-0.1c0-0.4,0.1-0.7,0.1-1.1c2.5-0.3,3.4,0.9,2.6,3.8c0,0.4,0,0.7,0,1.1c0,0-0.1,0-0.1,0c0-1.1-0.1-2.1-0.3-3.2
				C128.1,77.6,126.5,77.7,126,78.6z M127.1,94.3c0.2,0.2,0.4,0.3,0.6,0.3c0,0.4,0,0.8-0.1,1.2c-0.2,0-0.4,0-0.5,0
				C127.1,95.3,127.1,94.8,127.1,94.3z M127.2,106L127.2,106c0-1.2,0.8-2.4,1.1-3.6c0.3-0.7,0.5-1.3,0.8-2
				C128.8,102.4,128.7,104.4,127.2,106z"/>
			<path class="st6" d="M115,150.7c-0.1-1.7,0.2-5-1.2-6.4c-0.4-0.4-0.7-0.7-1.1-0.9c-0.1,0-0.1,0-0.2,0c-0.1,0-0.1,0.1-0.2,0.1
				c-0.9,0.1-1.8,0.3-2.6,0.9c-0.5,0.4-1,0.9-1.5,1.4c0.1,0.4,0.4,0.7,0.8,0.8c-0.2,2.3-0.2,4.7-0.4,7c-0.2,2.3-0.4,4.6,0.6,6.7
				c1.1,2.4,5.6,2.3,5.8-0.7C115.3,156.6,115.2,153.6,115,150.7z"/>
			<path class="st6" d="M131.1,150.6c0.4,0.3,0.9,0.5,1.3,0.6c1.3-0.3,2.5-0.7,3.2-1.4c1.9-1.9,0.7-3.9,0.2-6.1
				c-0.1-0.5,0-0.8,0.2-1.1c-0.2-0.2-0.5-0.4-0.8-0.5c-0.6-0.3-1.3-0.1-1.5,0.5c-1.5,0-2.7,0.7-3.4,2.3
				C129.6,146.5,129.2,149.4,131.1,150.6z"/>
			<path class="st6" d="M151.2,130.7c-0.2-4.6,0.2-9.2-3.9-12.3c-6.5-5-16.1-5.2-25-4.3c-4.7-0.2-9.5-0.5-14.3-0.2
				c-2.5,0.1-5-0.1-7.5,0.2c-2.1,0.2-4.4,0.7-6.7,1c-2.3-0.2-4.7-0.3-7-0.4c-6.1-0.1-12-0.7-18.1-0.6c-0.1-0.2-0.4-0.3-0.7-0.3
				c-4.7,0.5-8.1,1.3-10.3,5.7c-2.6,5.2-2.8,13-3.5,18.7c-0.8,7.5-0.7,15-0.2,22.5c0.3,4.8-0.3,12.1,2.9,16.2
				c7.2,9.2,26.3,7.3,36.5,6.5c15.7-1.3,31.4,0.7,47-2c12-2.1,10.5-18.1,10.1-26.8C150.3,146.6,151.5,138.6,151.2,130.7z
				 M96.5,135.3c0.1-0.5,0.1-1.1,0.1-1.7c0.1,0.7,0.2,1.3,0.4,2c0,0,0,0,0,0c-0.2-0.1-0.3-0.1-0.5-0.1
				C96.5,135.4,96.5,135.3,96.5,135.3z M90.4,136c0.2,0.3,0.4,0.5,0.7,0.5c-0.2,0.3-0.4,0.7-0.4,1.2c-0.2,1.5-0.3,3-0.4,4.6
				c0-1.6,0-3.1,0-4.7C90.4,137.1,90.4,136.6,90.4,136z M90.1,158.8C90.1,158.8,90.1,158.8,90.1,158.8c0.3,1.6,0,1.8-0.8,0.5
				C89.6,159.3,90,159.2,90.1,158.8z M89.3,123.7c-0.2,1.2-0.3,1.7-0.4,2.6c0-0.9,0-1.4-0.1-2.6H89.3z M85.9,120.5
				c0,0.1,0,0.1,0,0.2c0,0.2,0,0.3,0,0.5c-0.7,0-1.4,0-2.1,0.1c-0.1-0.5-0.9-0.5-0.9,0.1c-1.9,0.1-3.8,0.3-5.7,0.3
				C80.1,121,83,120.7,85.9,120.5z M83.1,135.4c-0.2,0-0.5,0-0.7,0c0,0,0,0,0,0c0-0.1,0-0.2,0-0.2c0,0,0,0,0,0c0,0,0,0,0,0
				c0.1-0.4,0.2-0.8,0.2-1.2c0.1-0.1,0.1-0.1,0.2-0.2c0,0.3,0,0.6,0,0.9C82.8,135,82.9,135.3,83.1,135.4z M69.4,117
				c-0.1,0.2-0.2,0.5-0.2,0.8c0,0.1-0.1,0.1-0.1,0.2c-0.2,0-0.4,0-0.6,0.1c-0.1-0.4-0.3-0.7-0.5-1C68.5,117.1,68.9,117.1,69.4,117z
				 M64.5,116.3c0.1,0.2,0.2,0.5,0.4,0.6c0,0.1,0,0.2-0.1,0.3c-0.6-0.4-1.8-0.2-1.9,0.8c-0.2,1-0.5,2.5-0.5,3.8c0,0,0,0,0,0
				c-0.1-1.4,0-3-0.2-4.1C62.9,117.3,63.6,116.8,64.5,116.3z M60.7,160.6c0-0.8,0-1.5-0.1-2.3c0.2,0,0.3,0,0.4,0
				C60.9,159.1,60.8,159.9,60.7,160.6z M60.6,137.3c0,0.1,0.1,0.2,0.1,0.2c0.1,0.4,0.2,0.8,0.3,1.2c0,0.4,0,0.9,0,1.3
				c-0.1-0.4-0.2-0.7-0.3-1.1c0,0,0,0,0,0C60.7,138.4,60.7,137.8,60.6,137.3z M59.8,127.5c0.1-1.2,0.4-2.4,0.7-3.6
				c0.1,0.6,0.3,1.2,0.7,1.8C60.6,126.1,60.1,126.7,59.8,127.5z M62.7,136c0,0.1,0,0.2,0,0.3c-0.1-0.2-0.2-0.5-0.3-0.7
				c0-0.3-0.1-0.5-0.1-0.8c0.7,0.1,1.2,0.1,1.7,0.3c0,0.1,0,0.2,0,0.3C63.5,135.1,62.7,135.3,62.7,136z M64.9,155.6
				c-0.3-2.6-0.8-5.3-1.2-7.9c0-0.1,0-0.2,0-0.3c0.6,2.8,1.1,5.6,1.6,8.3C65.2,155.6,65.1,155.6,64.9,155.6z M65.2,136.5
				c0.2,0.5,0.3,1.2,0.3,2.1c0,1.5,0,3,0,4.6C65.3,140.9,65.1,138.7,65.2,136.5z M77.9,137.9c-0.4-0.4-1.2-0.6-1.6,0
				c-0.2-0.2-0.4-0.3-0.7-0.4c0,0,0.1,0,0.1-0.1c0.2-0.2,0.4-0.3,0.7-0.5c0.1,0.2,0.3,0.3,0.6,0.3c0.5,0,1.2,0,1.9-0.1
				c0,0,0,0,0,0.1C78.4,137.1,78,137.4,77.9,137.9z M72.2,132.5c0.6,1.2,1,2.5,1.3,3.9c0.1-0.8,0.4-1.3,1.4-1.5c0,0,0,0,0,0
				c-0.7,0.5-1.1,1-1.4,1.6c0.7,3,0.8,6.2,1,9.1c0.3,6.8,0.7,13.7,0.9,20.5c0,1.4-1.3,2.2-2.5,2.1c-0.9,1.9-2.2,2-4.1,0.5
				c-0.3-1.7-0.4-3.3-0.5-5c-0.1-3,0.2-6.1,0.2-9.1c0.1-6.6-0.2-13.3-0.7-19.8c-0.1-1.6-1.6-3.6-3.4-3c-1,0.7-1.8,0.5-2.5-0.4
				c-0.7-3.1,0.5-4.2,3.4-4.4c1.9-0.2,4.1-0.5,5.9-1.2c3.1-0.1,7.9-0.4,8.1,0.6C80.8,132.2,75.2,130.5,72.2,132.5z M79.1,135.1
				c0.2-0.2,0.5-0.5,0.7-0.7c0.3-0.3,0.6-0.6,1-0.9c0,0.3-0.1,0.6-0.1,0.9C80.2,134.7,79.6,135,79.1,135.1z M81.1,153.2
				c0.1-3.1,0-6.2-0.2-9.3c-0.1-1.4,0.1-3.8-0.3-5.7c0.9,0.1,1.7,0.2,2.6,0.1c1-0.7,2.6-0.5,2.9,1c0.9,4.3,0.1,9,0.3,13.4
				c0.1,2.6,0,6.1,1.3,8.5c1,1.8,2.2,1.6,2.9-0.1c2.9-6.7,0.4-14.2,2.2-21c0-0.1,0.1-0.3,0.2-0.3c0-0.2,0-0.4,0-0.5
				c0.6-1.4,1.5-1.8,2.6-1.3c1.9,0.3,1.2,3.3,1.2,4.4c-0.3,7,0.5,13.8,0.5,20.8c0,5.1-3,6.5-6.6,6.2c-0.6-0.1-1.2-0.2-1.8-0.3
				c-0.2,0-0.4-0.1-0.6-0.1c-0.3-0.1-0.7-0.2-1-0.3C79.7,166.4,80.8,159.3,81.1,153.2z M92.4,180.6c-2.4,0.1-4.8,0.1-7.2,0.1
				c0.1,0,0.3-0.1,0.4-0.1c2.3-0.2,4.6-0.4,6.9-0.7C92.4,180.2,92.3,180.4,92.4,180.6z M91.3,177.9c-0.3,0-0.7,0-1,0.1
				c0-0.1,0-0.2-0.1-0.3c1.8-0.1,3.6-0.3,5.5-0.3C94.2,177.5,92.8,177.7,91.3,177.9z M87.9,175.6c0.4-0.2,0.7-0.4,1.1-0.7
				c2.3-0.3,4.6-0.6,6.9-0.9C93.2,174.6,90.5,175.1,87.9,175.6z M96.9,170.7c0.3-0.3,0.5-0.6,0.7-0.9c0,0.4,0,0.7,0.1,1.1
				C97.4,170.9,97.2,170.8,96.9,170.7z M113,132.4c0.2,1,0.5,2.1,0.8,3.1c0,0.1,0.1,0.1,0.1,0.2c0,0.2,0,0.4,0.1,0.6
				c0,0.1,0,0.2,0.1,0.3c-0.1,0-0.2,0-0.3,0c-0.5,0-0.9-0.2-1.2-0.6c0.2-0.2,0.4-0.4,0.4-0.8C113,134.3,113,133.4,113,132.4z
				 M105.6,170.1c-0.1-0.3-0.2-0.6-0.2-0.9c0.4,0.2,0.9,0.4,1.4,0.6C106.4,169.9,106,170,105.6,170.1z M115.3,175.5
				c-0.4,0-0.9-0.1-1.3-0.1c0.3-0.3,0.5-0.7,0.4-1.1c0.1,0,0.3,0,0.4,0c0.1,0.2,0.3,0.5,0.5,0.6c0,0.2,0,0.5,0.1,0.7
				C115.4,175.5,115.4,175.5,115.3,175.5z M118.8,164.6c-0.2,1.5-1.7,2.2-2.8,1.8c-2,1.6-5,1.8-8.1,1.2c-4.6-0.9-3.9-12.9-4-16.5
				c-0.1-5.7,0.3-11.3,0.1-17c-0.1-1.7,0-3.6-0.6-5.3c0.3-1.6,0.7-3.3,1.7-3.1c0.4,0.1,2.5-0.3,2.6-0.5c-0.3,0.9,0.2,2.1,0.4,3
				c0.8,2.9,0.5,6,0.8,9c0.2,1.7,2.2,2,3.5,2.1c2.2,0.1,4.2,0.1,4.9,2.1C120.8,148,119.7,157.5,118.8,164.6z M120.4,139.6
				c-0.1-1.2-0.1-2.5-0.2-3.7c0,0,0-0.1,0-0.1c0.1,0.1,0.3,0.1,0.5,0.1c0,1.1,0.1,2.2,0.2,3.2c0,0.1,0,0.3,0,0.4
				C120.7,139.6,120.5,139.6,120.4,139.6z M141.2,121.2c-0.3,0.2-0.7,0.4-1,0.6c-0.2-0.3-0.3-0.5-0.5-0.7
				C140.3,121.2,140.7,121.2,141.2,121.2z M137.8,129.3c0,0.1,0,0.2,0,0.3c-0.5,0.2-1,0.5-1.5,0.8c0-0.1,0-0.2-0.1-0.2
				C136.7,129.9,137.3,129.6,137.8,129.3z M134.3,131.4c-1,0.5-1.9,1.1-2.8,1.7c-0.4,0.1-0.8,0.3-1.2,0.4c0,0-0.1,0-0.1,0
				c1.3-0.8,2.7-1.5,4-2.3C134.3,131.3,134.3,131.4,134.3,131.4z M131.4,117.5c0,0-0.1,0.1-0.1,0.1c-1.2,0.3-2.3,0.6-3.5,0.9
				c-0.1-0.2-0.3-0.4-0.5-0.5C128.6,117.8,130,117.6,131.4,117.5z M132.2,124.4c-2.1,0.9-4.1,1.9-6,2.9c-0.3,0.1-0.6,0.2-0.8,0.3
				c0-0.1,0-0.1,0-0.2C127.5,126.3,129.9,125.3,132.2,124.4z M123.7,142c0.3,0,0.5,0,0.8-0.2c0.1,0,0.1-0.1,0.2-0.1
				c-0.3,0.6-0.6,1.2-0.8,1.9C123.9,143,123.8,142.5,123.7,142z M129.3,178.3c-0.9,0.2-1.7,0.3-2.6,0.4c0.3-0.1,0.6-0.3,0.9-0.4
				c0,0,0,0,0,0C128.2,178.4,128.8,178.3,129.3,178.3C129.3,178.3,129.3,178.3,129.3,178.3z M138.1,168.5
				C138,168.5,138,168.5,138.1,168.5c-4.1,5.3-10.5,1.3-12.2-3.6c-1.7-4.8-2.1-11.3-0.7-16.2c0-0.2,0.1-0.3,0.3-0.3
				c-0.2-2.5,0.5-4.9,2.1-7.2c2.7-3.1,11.4-4.1,12.7,1.6c0.5,2.2,0.9,4.5,1,6.7c0.3,6.4-7.5,5.4-10.9,5.5c-0.1,0-0.2,0-0.3,0.1
				c-0.7-0.4-1.7-0.1-1.8,0.9c0,2.9,0.2,7.3,3.6,8.4c0.9,0.3,2.4,0.2,3.3-0.2c0.5-0.3,1.1-1.3,1.3-1.6c4.4-6.1,4.6-1.1,4.8,1.5
				C140.3,166.1,139.2,167.6,138.1,168.5z M132.2,156.3c-0.5,0.2-0.9,0.5-1.3,0.9c-0.1-0.3-0.2-0.7-0.2-1
				C131.2,156.2,131.7,156.3,132.2,156.3z M142.4,157.7c-0.2-0.2-0.5-0.3-0.8-0.4c0,0-0.1,0-0.1,0c0.5-0.4,1-1,1.4-1.5
				C142.8,156.4,142.6,157.1,142.4,157.7z M144.3,143.6c-0.3-1.8-0.5-3.6-0.5-5.4c0.1,0,0.2,0.1,0.3,0.1c0,0.1,0.1,0.2,0.1,0.3
				c0,0.8,0.1,1.6,0.1,2.2c0,1.2,0.1,2.4,0.2,3.6C144.4,144.1,144.4,143.8,144.3,143.6z M148.1,129.6c-0.1-1-0.3-2-0.5-3
				c0-1.3-0.2-2.6-1-3.6l0,0c0,0,0,0,0,0c0,0,0,0,0,0c-0.1-0.2-0.2-0.4-0.4-0.5c-0.1-0.1-0.2-0.2-0.3-0.3c0.1-0.3,0-0.6-0.2-0.8
				c0.1-0.1,0.3-0.2,0.4-0.3c1.8,2.1,2.4,5.5,2.5,8.9C148.4,129.9,148.3,129.7,148.1,129.6z"/>
		</g>
		<g>
			<path d="M79.6,36.4c-0.5-0.1-1-0.2-1.5-0.3c-0.5-0.1-1-0.2-1.5-0.2c-2.3-0.1-4.1,1.1-5.4,2.8c-1.1,1.1-1.8,2.4-2.1,3.9
				c-0.8,4.2,1.3,8.8,5.7,10c0.4,0.1,0.7,0.2,1.1,0.2c1,0.3,2.1,0.5,3.1,0.3c2.9-0.5,4.5-2.6,5.8-5.2C87,43.4,84.5,37.8,79.6,36.4z"
				/>
			<path d="M113.1,43.9c-0.1,0-0.2,0.2-0.3,0.7c-0.3,0.8-0.7,1.4-1.1,2.1c-0.9,1.4-4.6,0.9-6.1,0.9c-4.7,0-5.6-3.8-8.3-6.6
				c-0.9-0.9-2.2-0.6-2.7,0.6c-1.4,3.3-0.4,6.6,1.7,9.3c2.7,3.5,7.1,4.2,11.2,4.2c3.9,0,8.1-0.9,10.2-4.5c1.6-2.7,2.7-5.9,1.6-8.9
				C117.9,38.1,112.8,40.4,113.1,43.9z"/>
			<path d="M138.1,36.6c-4.9-2.2-10.4,1.6-11.9,6.2c-1.6,4.8,1.5,9,5.8,10.7c3.5,1.4,7.9,0.3,9.7-3.1c0.7-0.8,1.3-1.8,1.7-2.8
				C145.1,43,142.3,38.5,138.1,36.6z"/>
		</g>
	</g>
	<path class="st1" d="M192,109.8c-0.2-1-0.3-1.9-0.3-3c0-0.4,0-0.9,0.1-1.3c0-0.4-0.1-0.9-0.1-1.3c0-0.3,0-0.6,0-0.8
		c-0.2-0.9-0.3-1.8-0.3-2.8c0-0.2,0-0.5,0-0.7c0-0.3,0-0.6,0-0.8c0-0.2,0-0.4,0-0.7c0-0.2,0-0.4,0-0.6c0-0.1,0-0.2,0-0.3
		c-0.1,0.1-0.1,0.2-0.2,0.3c-0.1-1.8-0.1-3.5-0.1-5.3c0-0.6,0-1.1,0-1.7c0-14.6,1.9-29,1.9-43.6c0-6.6-0.5-13.1-0.7-19.6
		c-0.2-5.1-3.3-8.7-7.8-10.7c-3.4-1.5-7.5-1.8-11.2-2.2c-6.1-1.7-12.7-2-19.4-1.7c-7.5-0.8-14.9-2.2-22.4-2.6
		c-15.9-0.9-31.9-0.2-47.8,0.2c-4.2,0.8-8.4,1.2-12.7,1.3c0,0,0,0-0.1,0.1c-0.4,0-0.7,0-1.1,0c-0.7,0-1.5,0-2.2,0
		c-3.1,0.1-6.2,0.4-9.3,0.7c-5.7-0.2-11.3-0.9-17-0.7c-3.5,0.1-6.8,0.7-10.3,0.5c-3.4-0.2-6.4,0.3-9.7,1.3c-4.6,1.5-7.7,3.4-9.8,7.8
		c-2.6,5.5-1.4,12.3-1.2,18.1c0.1,2.9,0.8,5.6,0.8,8.5c-0.1,3.2-0.4,6.4-0.6,9.6c-0.2,3.2-0.1,6.5,0,9.7c0,3.6-0.7,7.2-0.6,10.9
		c0,5.8,0,11.7-0.2,17.5c0,0,0-0.1-0.1-0.1c0.1,0.7,0.2,1.4,0.2,2.1c0,0.2,0,0.4,0,0.5c0,0.3,0,0.5,0,0.8c0,0.8-0.1,1.7-0.2,2.5
		c0.1,0.8,0.2,1.6,0.2,2.5c0,1.1-0.1,2.1-0.4,3.1c-0.1,4.7-0.2,9.5-0.2,14.2c0,6.6,0.5,13,0.6,19.6c0.2,7.4,1.5,14.7,1.8,22.1
		c0.3,6.7,0.7,13.3,0.7,20c0,6.5,0.4,10.8,4.8,16c3.9,4.6,8.1,6.1,14,7.2c3.1,0.6,6.3,0.1,9.4,0.4c3.7,0.3,7.3,1.1,11,1.4
		c6.9,0.5,13.4,1.2,20.4,1c8-0.1,16,0.7,24,0.7c13.4,0,26.8-1.6,40.2-2.9c4.1-0.4,8.3-0.6,12.5-0.8c3,0,6-0.1,9-0.2
		c5.9-0.2,12.4,0.8,18.3-0.4c0.4,0,0.9,0,1.3-0.1c3.8-0.5,6.5-2.7,8.3-5.6c2.8-4.1,3.3-9.6,4-14.5c1.6-10.5,3-20.6,3.2-31.3
		c0-2.9,0-5.8-0.1-8.7c0.3-3.7,0.6-7.5,0.7-11.2C193.3,126,192.6,117.9,192,109.8z M186.3,148.2c-0.6,7.8-1.3,15.8-2.6,23.5
		c-1.2,6.8,0,13.6-1.8,20.3c-0.9,3.2-3.1,7.3-6.7,7.3c-3.4,0-6.7-0.7-10.2-0.6c-11.1,0.2-22.4,1.1-33.5,2.5
		c-5.5-0.1-11,0.1-16.3,0.1c-12.5,0-24.9-0.4-37.4,0c-10.8,0.4-21.6,1-32.4,0.2c-1.1-0.1-2.2-0.2-3.4-0.3c-1.1-0.2-2.2-0.4-3.4-0.4
		c-2.7-0.4-5.3-0.9-7.9-1.6c-9-2.2-12-8.6-12-17.4c-0.1-14.4,0.1-28.6-0.5-43.1c-0.7-16-2.4-31.9-1.7-47.9c0.4-9.5,0.4-19.1,0-28.6
		c0.3-5.7,0.5-11.3,0.6-17c0.1-4.5-0.7-8.9-0.8-13.4c0.5-2.2,1.1-4.3,2-6.5c0,0,0-0.1,0.1-0.1c1.1-1.6,2.7-3.1,4.8-4.6
		c1.1-0.7,2.5-1.2,4.2-1.6c1.7-0.2,3.4-0.2,4.9-0.2c4.3,0.1,8.5-0.4,12.8-0.7c2.9,0,5.7-0.1,8.6-0.1c4.5,0.3,9.1,0.1,13.6,0
		c2.3,0,4.7,0,7,0c0.4,0,0.9,0,1.3,0c2.8,0.1,5.6,0.1,8.5,0c13.1,0,26.1,0,39.2,0c8.1,0,16.1-0.1,24.1-0.4c4.3,0.6,8.6,1.2,13,1.5
		c6.5,0.4,13.4,0.8,19.7,2.3c2.6,1.4,4.7,3.2,6.1,5.6c0.2,0.9,0.2,1.8,0.2,2.8c0.1,3.9,0.7,7.8,0.7,11.7c0,14.7-1.1,29.2-1.8,43.8
		c-0.7,14.2,1.3,28.5,2,42.7C187.6,134.9,186.8,141.7,186.3,148.2z"/>
</g>
</svg>
