<?xml version="1.0" encoding="utf-8"?>
<!-- Generator: Adobe Illustrator 24.0.1, SVG Export Plug-In . SVG Version: 6.00 Build 0)  -->
<svg version="1.1" id="圖層_1" xmlns="http://www.w3.org/2000/svg" xmlns:xlink="http://www.w3.org/1999/xlink" x="0px" y="0px"
	 viewBox="0 0 258 180" style="enable-background:new 0 0 258 180;" xml:space="preserve">
<style type="text/css">
	.st0{fill:#FFFFFF;}
	.st1{fill:#1C1C1B;}
	.st2{fill:#A151D5;}
	.st3{display:none;}
	.st4{display:inline;fill:#FFFFFF;}
	.st5{display:inline;fill:#1C1C1B;}
	.st6{display:inline;}
</style>
<g>
	<path class="st0" d="M169.4,166.6c1.1,2.5-0.3,5.6-3,5.7c-4.5,0.1-7.5-5.6-4.4-8.8c0.2,0.5,0.7,0.9,1.4,0.7
		C165.6,163.6,168.4,164.2,169.4,166.6z"/>
	<path class="st0" d="M196.4,152.7c1.4,5.9-2.9,11.2-8.2,11.5c-4.1,0.2-8.6-2.5-10-7c-1.4-4.6,1.2-9.1,4.9-10.7
		c0.2,0.6,0.7,1,1.4,0.7C189.2,145.6,194.9,146.5,196.4,152.7z"/>
	<path class="st1" d="M185,144c5.7-2.9,12.8,1.1,14.4,7.8c1.9,7.7-3.2,14.6-10,15.7c-6.5,1-14.1-4.2-14.5-11.9
		C174.4,149.2,179.4,143.5,185,144z M178.2,157.3c1.4,4.4,5.8,7.2,10,7c5.3-0.3,9.7-5.6,8.2-11.5c-1.5-6.2-7.2-7.1-11.9-5.4
		c-0.7,0.2-1.2-0.2-1.4-0.7C179.4,148.2,176.8,152.7,178.2,157.3z"/>
	<path class="st1" d="M169.4,166.6c-1.1-2.4-3.8-3-6-2.4c-0.7,0.2-1.1-0.2-1.4-0.7c-3.1,3.2-0.1,8.9,4.4,8.8
		C169.1,172.2,170.6,169.2,169.4,166.6z M158.5,169.1c-1-3.6,1-7.9,4.5-8.3c0.3,0,0.6,0.2,0.7,0.5c3.3-0.6,7.1,1,8.3,4.7
		c1.2,3.9-0.7,8.3-4.5,9C163.9,175.7,159.6,173.1,158.5,169.1z"/>
	<g>
		<path class="st0" d="M225.2,34.6c14.5,11.4,24.7,26.9,21,42.6c-3.2,13.5-15.1,24.8-31.6,31.5c-1.5-2.2-3.8-4.1-7.1-5.7
			c-1.7-0.8-4.1,0.8-2.9,2c9.7,9.7,8.9,23.1-9,27.9c-16.6,4.5-43.2-3.5-36.1-18.7c0.6-1.2-1.9-1.9-2.8-0.8c-2.4,2.9-3.3,5.6-3.1,8.1
			c-37.8,4.1-78.6,4.9-111.1-11.8C12.6,94.4-1,64.1,22.2,41.7c22.7-21.9,64.8-30.1,101.1-31.5C160.9,8.8,198.8,13.9,225.2,34.6z
			 M228.5,92.3c14.4-24.5,0.2-54.7-32.6-67.3c-1.1-0.4-1.9,0.6-0.9,1.1c30.4,15.5,41.9,40.1,29.9,65.5
			C224.1,93.3,227.6,93.9,228.5,92.3z"/>
		<path class="st1" d="M195.9,25c32.8,12.7,46.9,42.9,32.6,67.3c-0.9,1.5-4.4,1-3.6-0.7c12-25.4,0.5-50-29.9-65.5
			C194.1,25.6,194.9,24.6,195.9,25z"/>
		<path class="st1" d="M159.5,114.3c-7.2,15.2,19.5,23.1,36.1,18.7c17.9-4.8,18.7-18.2,9-27.9c-1.2-1.2,1.2-2.9,2.9-2
			c3.3,1.6,5.6,3.6,7.1,5.7c16.5-6.7,28.4-17.9,31.6-31.5c3.7-15.7-6.5-31.2-21-42.6c-26.4-20.7-64.3-25.9-102-24.4
			c-36.3,1.4-78.4,9.5-101.1,31.5C-1,64.1,12.6,94.4,42.5,109.8c32.5,16.7,73.2,15.9,111.1,11.8c-0.2-2.5,0.7-5.2,3.1-8.1
			C157.6,112.4,160.1,113.1,159.5,114.3z M195.7,136.8c-14,3.2-37.3-2.3-41.5-12.6c-45,7.2-99.6,4.7-131.1-22.4
			c-24.5-21.1-23.5-51,4.6-70C58.2,11.2,104,5.3,144.5,6.5c40.7,1.2,80.8,14.2,99.6,41.4c16,23.2,5.4,52.2-27.9,64.1
			C219.4,121.8,209.2,133.7,195.7,136.8z"/>
	</g>
	<g>
		<g>
			<g>
				<path class="st2" d="M28,86.1c-0.3-2.1-0.6-7.4-1.1-15.6c-0.2-4.2-0.4-7.5-0.4-10.1c0-1.5,0-2.8,0-3.7c0-0.5,0.1-1,0.1-1.4
					c0.1-0.8,0.3-1.5,0.5-2c0.7-1.3,2.1-2.4,4.1-3.1c1.2-0.4,2.9-0.8,4.9-1.1c1.2-0.2,2.9-0.4,4.9-0.6l3.3-0.3
					c0.7-0.1,1.4,0.1,2,0.6c0.6,0.5,0.9,1.3,1,2.2c0.1,0.9-0.1,1.7-0.5,2.4c-0.4,0.7-1,1.1-1.8,1.3c-0.5,0.1-1.7,0.3-3.6,0.4
					c-2,0.2-3.5,0.4-4.7,0.5c-1.8,0.3-3.1,0.6-4.1,1c-0.4,0.1-0.7,0.2-0.9,0.3c0,0.8,0,1.8,0,3.2l0.2,5.4c0.8-0.1,2-0.4,3.5-0.8
					c2.8-0.6,4.8-1,5.9-1.2c0.7-0.1,1.4,0.1,2,0.6c0.6,0.5,0.9,1.3,1,2.2c0.1,0.9-0.1,1.7-0.5,2.4c-0.4,0.7-1,1.1-1.8,1.3
					c-1,0.2-2.8,0.6-5.6,1.2c-1.6,0.4-3,0.7-4.1,0.9c0.4,7.1,0.7,11.5,0.8,13.1c0.1,0.9,0,1.7-0.5,2.4c-0.4,0.7-1,1.2-1.8,1.3
					c-0.7,0.1-1.4-0.1-2-0.6C28.4,87.8,28.1,87.1,28,86.1z"/>
				<path d="M30.6,89.7c-0.7,0-1.4-0.3-2-0.8c-0.7-0.7-1.1-1.5-1.2-2.6c-0.3-2.2-0.6-7.4-1.1-15.7c-0.2-4.1-0.4-7.5-0.4-10.1
					c0-1.5,0-2.8,0-3.7c0-0.6,0.1-1,0.1-1.4c0.1-0.9,0.3-1.6,0.6-2.2c0.8-1.5,2.3-2.6,4.5-3.4c1.3-0.4,3-0.8,5-1.2
					c1.3-0.2,2.9-0.4,4.9-0.6l3.3-0.3c0.8-0.2,1.7,0.1,2.5,0.8c0.7,0.7,1.1,1.5,1.3,2.6c0.1,1-0.1,2-0.6,2.8
					c-0.5,0.9-1.3,1.4-2.2,1.6c-0.5,0.1-1.7,0.3-3.6,0.4c-1.9,0.2-3.5,0.4-4.7,0.5c-1.7,0.3-3,0.6-3.9,0.9c-0.2,0.1-0.3,0.1-0.5,0.2
					c0,0.7,0,1.6,0,2.8l0.2,4.6c0.7-0.1,1.6-0.4,2.7-0.6c2.9-0.6,4.8-1,5.9-1.2c0.9-0.2,1.8,0.1,2.5,0.8c0.7,0.7,1.1,1.5,1.3,2.6
					c0.1,1-0.1,2-0.6,2.9c-0.5,0.9-1.3,1.4-2.2,1.6c-1,0.2-2.8,0.6-5.6,1.2c-1.4,0.3-2.6,0.6-3.6,0.8c0.4,6.7,0.6,11,0.8,12.5
					c0.1,1-0.1,2-0.6,2.8c-0.5,0.9-1.3,1.4-2.2,1.6C31,89.6,30.8,89.7,30.6,89.7z M44.8,48.9c-0.1,0-0.2,0-0.3,0l-3.4,0.3
					c-2,0.2-3.6,0.4-4.9,0.6c-2,0.3-3.6,0.7-4.8,1.1c-1.9,0.7-3.1,1.6-3.8,2.8c-0.2,0.4-0.4,1-0.5,1.7c0,0.3-0.1,0.8-0.1,1.3
					c0,0.9,0,2.1,0,3.6c0.1,2.5,0.2,5.9,0.4,10c0.4,8.2,0.8,13.5,1.1,15.6l0,0c0.1,0.8,0.3,1.3,0.8,1.8c0.4,0.4,0.9,0.6,1.4,0.5
					c0.5-0.1,1-0.4,1.3-1c0.4-0.6,0.5-1.2,0.4-2c-0.2-1.6-0.5-6.1-0.9-13.2l0-0.6l0.6-0.1c1.1-0.2,2.5-0.5,4.1-0.9
					c2.8-0.6,4.7-1,5.6-1.2c0.6-0.1,1-0.4,1.3-1c0.4-0.6,0.5-1.3,0.4-2c-0.1-0.7-0.4-1.3-0.8-1.8c-0.4-0.4-0.9-0.5-1.4-0.4
					c-1.1,0.2-3,0.6-5.9,1.2c-1.5,0.4-2.7,0.6-3.5,0.8l-0.7,0.1l-0.3-6.1c0-1.4,0-2.5,0-3.3l0-0.4l0.4-0.2c0.3-0.1,0.6-0.2,1-0.4
					c1-0.4,2.4-0.7,4.2-1c1.2-0.1,2.7-0.3,4.7-0.6c2.4-0.2,3.2-0.4,3.5-0.4c0.6-0.1,1-0.4,1.4-1c0.4-0.6,0.5-1.3,0.4-2
					c-0.1-0.7-0.4-1.3-0.8-1.8C45.6,49,45.2,48.9,44.8,48.9z"/>
			</g>
			<g>
				<path class="st2" d="M49.3,61.8c2.7-3.1,5.4-5.1,8.1-6c2.1-0.7,3.9-0.7,5.5,0.2c1.9,1,3.3,3,4.1,6.1c0.6,2.4,1.1,6.3,1.3,11.6
					c0,0.8,0.1,2.6,0.2,5.3c0.1,2.7,0.2,4.6,0.3,5.8c0.1,0.9-0.1,1.7-0.6,2.4c-0.5,0.7-1.1,1.1-1.8,1.1c-0.5,0-1-0.1-1.4-0.3
					c-0.4,0.3-0.8,0.5-1.3,0.6c-0.2,0-0.7,0.1-1.6,0.2c-0.9,0.1-1.6,0.2-2.1,0.2c-0.5,0-1.2,0.1-2.1,0.1c-0.8,0-1.6,0-2.4-0.1
					c-0.8-0.1-1.5-0.3-2.1-0.5c-1.5-0.5-2.7-1.4-3.7-2.6c-0.9-1.2-1.5-2.6-1.8-4.2c-0.4-2.8,0.2-5.6,1.9-8.4
					c1.4-2.4,3.2-4.3,5.6-5.6c2.3-1.3,4.7-1.6,7.2-0.7c-0.1-1.2-0.3-2.1-0.5-2.9c-0.3-1.1-0.7-1.8-1.1-2.1c-0.4-0.2-1.1-0.2-1.9,0.1
					c-1.9,0.7-3.9,2.2-6,4.5c-0.5,0.6-1.2,0.9-1.9,0.9c-0.7,0-1.4-0.4-1.9-1c-0.5-0.7-0.7-1.4-0.7-2.3
					C48.5,63.2,48.8,62.5,49.3,61.8z M63.3,82.1c0-0.7,0-1.8-0.1-3.3L63,75.3l-0.6-0.8l-0.5-0.7c-0.2-0.3-0.4-0.4-0.4-0.4
					c-1.2-0.6-2.5-0.6-3.9,0.1c-1.4,0.7-2.5,1.8-3.5,3.4c-0.8,1.3-1.1,2.5-0.9,3.6c0.1,0.7,0.6,1.3,1.6,1.7c0.4,0.1,0.9,0.2,1.3,0.3
					c0.5,0.1,1,0.1,1.6,0.1c0.6,0,1.2,0,1.6-0.1l1.9-0.3c0.9-0.1,1.5-0.2,1.9-0.2H63.3z"/>
				<path d="M57.2,89.8c-0.6,0-1.3,0-1.9-0.1c-0.8-0.1-1.6-0.3-2.3-0.6c-1.6-0.6-2.9-1.5-3.9-2.8c-1-1.3-1.6-2.8-1.9-4.5
					c-0.4-2.9,0.3-5.9,2-8.8c1.4-2.5,3.4-4.5,5.8-5.9c2.2-1.3,4.4-1.6,6.7-1c-0.1-0.7-0.2-1.3-0.3-1.8c-0.3-1.3-0.7-1.6-0.8-1.7
					c-0.1-0.1-0.5-0.1-1.4,0.2c-1.8,0.6-3.7,2.1-5.7,4.3c-0.7,0.8-1.5,1.1-2.4,1.1c-0.9,0-1.7-0.5-2.4-1.3c-0.6-0.8-0.9-1.7-0.8-2.8
					c0-1.1,0.4-2,1-2.7l0,0c2.8-3.1,5.6-5.2,8.4-6.2c2.2-0.8,4.3-0.7,6,0.3c2.1,1.1,3.6,3.3,4.4,6.5c0.6,2.5,1.1,6.4,1.3,11.7
					c0,0.8,0.1,2.6,0.2,5.3c0.1,2.7,0.2,4.6,0.3,5.7c0.1,1.1-0.2,2-0.7,2.8c-0.6,0.9-1.4,1.3-2.3,1.4c-0.5,0-1,0-1.4-0.2
					c-0.4,0.3-0.8,0.4-1.3,0.5c-0.1,0-0.4,0-1.6,0.2c-0.9,0.1-1.6,0.2-2.2,0.3c-0.6,0-1.2,0.1-2.1,0.1
					C57.6,89.8,57.4,89.8,57.2,89.8z M59.5,67.1c-1.3,0-2.6,0.4-3.9,1.1c-2.2,1.3-4,3.1-5.3,5.4c-1.6,2.7-2.2,5.4-1.8,8
					c0.2,1.5,0.8,2.8,1.6,3.9c0.9,1.1,2,1.9,3.4,2.4c0.6,0.2,1.3,0.4,2,0.5c0.7,0.1,1.5,0.1,2.3,0.1c0.8,0,1.5-0.1,2.1-0.1
					c0.5,0,1.2-0.1,2.1-0.2c1.2-0.2,1.5-0.2,1.7-0.2c0.3,0,0.6-0.2,0.9-0.4l0.4-0.3l0.4,0.2c0.3,0.2,0.7,0.3,1.1,0.2
					c0.5-0.1,1-0.3,1.3-0.9c0.4-0.6,0.6-1.2,0.5-2C68,83.7,68,81.8,67.9,79c-0.1-2.7-0.1-4.5-0.2-5.3c-0.2-5.2-0.7-9.1-1.3-11.4
					c-0.7-2.8-2-4.7-3.7-5.6c-1.5-0.8-3.1-0.9-5-0.2c-2.6,0.9-5.3,2.9-7.9,5.8c-0.4,0.5-0.7,1.1-0.7,1.9c0,0.8,0.2,1.4,0.6,1.9
					c0.4,0.5,0.8,0.8,1.4,0.8c0.5,0,1-0.2,1.4-0.6c2.1-2.4,4.2-4,6.3-4.7c1-0.4,1.8-0.4,2.4-0.1c0.7,0.4,1.1,1.2,1.5,2.5
					c0.2,0.8,0.4,1.8,0.5,3l0.1,1.1l-1-0.4C61.3,67.2,60.4,67.1,59.5,67.1z M57.3,83.3c-0.5,0-0.9,0-1.3-0.1c-0.5-0.1-1-0.2-1.5-0.3
					c-1.3-0.5-2-1.3-2.1-2.2c-0.2-1.1,0.2-2.5,1-4c1-1.7,2.2-3,3.7-3.7c1.6-0.8,3.1-0.8,4.5-0.1c0.2,0.1,0.3,0.2,0.6,0.6l1.3,1.6
					l0.1,3.6c0.1,1.5,0.1,2.7,0.1,3.4v0.7h-0.8c-0.3,0-0.9,0.1-1.8,0.2l-1.9,0.3c-0.5,0-1,0.1-1.7,0.1
					C57.7,83.3,57.5,83.3,57.3,83.3z M59.7,73.7c-0.6,0-1.2,0.2-1.9,0.5c-1.3,0.6-2.3,1.7-3.2,3.2c-0.7,1.2-1,2.3-0.9,3.1
					c0,0.2,0.1,0.7,1.2,1.2c0.3,0.1,0.7,0.2,1.2,0.3c0.4,0.1,1,0.1,1.6,0.1c0.6,0,1.1,0,1.6-0.1l1.8-0.3c0.6-0.1,1.1-0.1,1.4-0.2
					c0-0.7,0-1.6-0.1-2.7l-0.1-3.2l-1-1.3c-0.1-0.1-0.3-0.3-0.3-0.3C60.6,73.8,60.2,73.7,59.7,73.7z"/>
			</g>
			<g>
				<path class="st2" d="M84.2,66.2l-0.5-0.9l-0.4-0.6l-0.2-0.3c-1.1-0.8-2.3-1.3-3.6-1.3c-1.4,0-2.5,0.4-3.4,1.2
					c-0.2,0.1-0.3,0.3-0.4,0.4c0.1,0.1,0.1,0.1,0.2,0.2c0.6,0.4,1.8,1.1,3.6,2c2.3,1.1,3.9,2,4.8,2.7c2,1.5,3.3,3.3,3.9,5.5
					c0.8,3.2,0.6,6-0.6,8.4c-1.1,2.1-2.8,3.5-5,4.2c-2,0.6-4,0.6-6.2-0.2c-2.2-0.7-4-2-5.5-3.9c-0.6-0.7-1.1-1.6-1.5-2.8l-0.2-0.6
					l-0.3-0.8c-0.1-0.2-0.2-0.4-0.3-0.6c-0.4-0.8-0.4-1.6-0.2-2.5c0.2-0.9,0.6-1.5,1.2-2c0.6-0.4,1.3-0.5,2-0.3
					c0.7,0.2,1.2,0.8,1.6,1.6c0,0,0.3,0.8,0.9,2.3c0.2,0.5,0.4,0.9,0.5,1.1c0.8,1,1.8,1.7,3.1,2.1s2.4,0.4,3.5,0.1
					c0.9-0.3,1.5-0.7,1.8-1.4c0.4-0.7,0.4-1.7,0-3c-0.1-0.6-0.7-1.3-1.6-1.9c-0.7-0.5-2.1-1.3-4-2.1c-2.1-1.1-3.6-1.9-4.5-2.6
					c-2-1.6-3-3.6-3-6.1c0-1.9,1-3.7,2.8-5.4c2-1.7,4.3-2.5,6.6-2.5s4.5,0.8,6.4,2.3c0.6,0.5,1.2,1.1,1.7,2l0.4,0.7
					c0.1,0.2,0.2,0.4,0.3,0.4c0.5,0.7,0.7,1.5,0.6,2.4c-0.1,0.9-0.4,1.7-0.9,2.2c-0.6,0.6-1.2,0.8-2,0.8
					C85.3,67.2,84.7,66.8,84.2,66.2z"/>
				<path d="M79.8,88.7c-1.2,0-2.4-0.2-3.6-0.6c-2.3-0.7-4.2-2.1-5.8-4.2c-0.6-0.7-1.1-1.7-1.6-3l-0.5-1.4c-0.1-0.1-0.2-0.3-0.3-0.6
					c-0.4-0.9-0.5-1.8-0.3-2.8c0.2-1,0.7-1.8,1.5-2.4c0.8-0.5,1.7-0.7,2.6-0.4c0.9,0.3,1.6,0.9,2,1.9c0.1,0.2,0.3,0.7,0.9,2.3
					c0.2,0.6,0.4,0.9,0.5,1c0.7,0.9,1.6,1.5,2.7,1.9c1.1,0.4,2.1,0.4,3.1,0.1c0.7-0.2,1.1-0.5,1.4-1c0.3-0.5,0.3-1.4,0-2.5
					c-0.1-0.5-0.6-1-1.3-1.5c-0.7-0.5-2-1.2-3.8-2.1c-2.2-1.1-3.7-2-4.6-2.6c-2.2-1.7-3.3-4-3.2-6.6c0-2.1,1.1-4,3.1-5.8
					c2.2-1.8,4.6-2.7,7.1-2.7c2.5,0.1,4.8,0.9,6.8,2.4c0.7,0.5,1.3,1.3,1.9,2.2l0.4,0.7c0.1,0.2,0.2,0.3,0.2,0.3
					c0.6,0.9,0.8,1.8,0.8,2.9c-0.1,1.1-0.4,2-1.1,2.7C87.8,67.7,87,68,86,68c-0.9-0.1-1.7-0.6-2.3-1.4l0,0l-1.1-1.7
					c-0.9-0.7-2-1-3.1-1.1c-1.1,0-2.1,0.3-2.8,0.9c0.5,0.3,1.4,0.8,3.1,1.6c2.4,1.1,3.9,2,4.9,2.8c2.2,1.6,3.5,3.6,4.1,5.9
					c0.9,3.3,0.7,6.3-0.6,8.9c-1.2,2.3-3,3.8-5.4,4.5C81.8,88.6,80.8,88.7,79.8,88.7z M70.9,74.6c-0.3,0-0.6,0.1-0.9,0.3
					c-0.5,0.3-0.8,0.9-1,1.6c-0.2,0.7-0.1,1.4,0.2,2c0.1,0.2,0.2,0.4,0.3,0.6l0.5,1.4c0.4,1.1,0.9,2,1.4,2.6
					c1.4,1.8,3.1,3.1,5.2,3.7c2,0.7,4,0.7,5.8,0.2c2.1-0.6,3.6-1.9,4.6-3.9c1.1-2.2,1.3-4.9,0.5-7.9c-0.5-2-1.7-3.8-3.6-5.2
					c-0.9-0.7-2.4-1.5-4.7-2.6c-1.9-0.9-3.1-1.6-3.7-2c-0.1-0.1-0.2-0.2-0.3-0.3l-0.3-0.4l0.3-0.4c0.1-0.2,0.3-0.4,0.5-0.5
					c1-0.9,2.3-1.3,3.8-1.3c1.5,0,2.8,0.5,4,1.4l0.1,0.1l0.2,0.4l0.4,0.6l0.5,0.9c0.4,0.5,0.8,0.8,1.3,0.8c0.5,0.1,1-0.1,1.4-0.6
					c0.5-0.5,0.7-1.1,0.8-1.8c0-0.8-0.1-1.4-0.5-2c0,0-0.2-0.2-0.3-0.5l-0.4-0.7c-0.5-0.8-1-1.4-1.5-1.8c-1.8-1.4-3.8-2.1-6-2.1
					c-2.2,0-4.3,0.7-6.2,2.3c-1.7,1.5-2.6,3.2-2.6,4.9c-0.1,2.2,0.8,4.1,2.7,5.5c0.8,0.6,2.3,1.5,4.4,2.5c1.9,0.9,3.3,1.6,4.1,2.2
					c1,0.8,1.6,1.5,1.8,2.3c0.4,1.4,0.3,2.6-0.1,3.4c-0.4,0.8-1.1,1.4-2.2,1.7c-1.2,0.4-2.5,0.3-3.9-0.1c-1.4-0.4-2.5-1.2-3.4-2.4
					c-0.2-0.3-0.4-0.7-0.6-1.3c-0.6-1.5-0.8-2-0.9-2.2l0-0.1c-0.3-0.6-0.7-1-1.2-1.2C71.2,74.6,71.1,74.6,70.9,74.6z"/>
			</g>
			<g>
				<path class="st2" d="M96.2,74.9c0.8,1.7,1.9,3.1,3.3,4.1c1.4,1,3,1.5,4.8,1.5c1.3,0,2.4-0.1,3.3-0.4c0.8-0.3,1.6-0.7,2.4-1.4
					c0.2-0.2,0.3-0.4,0.4-0.5c0.1-0.2,0.3-0.5,0.5-0.9c0.2-0.4,0.5-0.9,0.9-1.4c0.5-0.7,1.1-1.1,1.8-1.2c0.7-0.1,1.4,0.2,2,0.8
					c0.6,0.6,0.9,1.3,1,2.2c0.1,0.9-0.1,1.7-0.6,2.4c0,0-0.1,0.2-0.4,0.5l-0.6,1.1c-0.2,0.4-0.5,0.8-0.8,1.2c-0.3,0.4-0.6,0.8-0.9,1
					c-1.3,1.2-2.7,2.1-4.1,2.5c-1.4,0.4-3,0.6-4.7,0.6c-1.8,0-3.6-0.4-5.3-1.1c-1.7-0.8-3.1-1.8-4.4-3.2c-1.2-1.3-2.3-2.9-3.1-4.8
					c-0.8-1.8-1.4-3.8-1.6-5.9c-0.2-2.1-0.1-4.4,0.3-6.7c0.4-1.8,0.9-3.4,1.7-4.6c0.8-1.3,1.8-2.4,3-3.4c1.5-1.2,3-1.9,4.7-2.2
					c1.6-0.3,3.2-0.2,4.7,0.2c1.5,0.5,2.9,1.1,4.1,1.9c1.3,0.8,2.4,1.8,3.3,2.9c1,1.2,1.8,2.5,2.4,4c0.6,1.5,0.7,3,0.5,4.5
					c-0.3,1.9-1.1,3.3-2.4,4.2c-1.3,1-2.9,1.5-4.7,1.7c-0.9,0.1-2.1,0.1-3.7,0.1c-1.8,0-2.9-0.1-3.2-0.1c-1.7,0-2.8,0.1-3.2,0.1
					H96.2z M109.4,67.6c-0.1-0.7-0.5-1.6-1.3-2.5c-1.4-1.6-3-2.6-4.9-3.1c-1.9-0.5-3.6-0.1-5.3,1c-0.8,0.6-1.3,1.2-1.7,1.8
					c-0.4,0.6-0.6,1.3-0.8,2.3c-0.1,0.4-0.1,0.9-0.2,1.4l1.8,0.1c0.5,0,1.7-0.1,3.5-0.1c0.4,0,1.6,0,3.5,0.1c1.4,0,2.4,0,3.1-0.1
					C108.3,68.2,109.1,67.9,109.4,67.6z"/>
				<path d="M104.3,87.8c-1.9,0-3.8-0.4-5.5-1.2c-1.8-0.8-3.3-1.9-4.6-3.3c-1.3-1.4-2.4-3-3.2-4.9c-0.9-1.9-1.4-3.9-1.6-6.1
					c-0.2-2.2-0.1-4.5,0.3-6.9c0.4-1.9,1-3.5,1.8-4.8c0.8-1.3,1.9-2.5,3.2-3.5c1.5-1.2,3.2-2,4.9-2.3c1.7-0.3,3.4-0.2,5,0.3
					c1.5,0.5,3,1.1,4.3,2c1.3,0.9,2.5,1.9,3.4,3c1.1,1.2,1.9,2.7,2.5,4.2c0.6,1.6,0.8,3.2,0.5,4.9c-0.3,2-1.2,3.6-2.7,4.7
					c-1.4,1-3.1,1.7-5,1.8c-0.9,0.1-2.2,0.1-3.7,0.1c-1.8,0-2.9-0.1-3.2-0.1c-1.7,0-2.7,0.1-3.1,0.1l-0.2,0c0.7,1.2,1.5,2.2,2.6,2.9
					c1.3,0.9,2.8,1.4,4.4,1.4c1.3,0,2.3-0.1,3.1-0.4c0.7-0.2,1.5-0.7,2.1-1.3c0.1-0.1,0.2-0.3,0.3-0.4c0.1-0.2,0.3-0.4,0.5-0.8
					c0.2-0.4,0.6-0.9,0.9-1.4c0.6-0.9,1.3-1.4,2.3-1.5c0.9-0.1,1.8,0.2,2.5,1c0.7,0.7,1.1,1.6,1.1,2.6c0.1,1-0.2,2-0.7,2.8
					c-0.1,0.1-0.2,0.2-0.3,0.5l-0.6,1.1c-0.2,0.4-0.5,0.8-0.8,1.3c-0.4,0.5-0.7,0.9-1,1.1c-1.4,1.3-2.9,2.2-4.4,2.6
					C107.7,87.6,106.1,87.8,104.3,87.8z M101.5,55.8c-0.6,0-1.2,0.1-1.8,0.2c-1.5,0.3-3,1-4.4,2.1c-1.2,0.9-2.2,2-2.9,3.2
					c-0.7,1.2-1.2,2.7-1.6,4.4c-0.4,2.3-0.5,4.4-0.3,6.5c0.2,2,0.7,4,1.5,5.7c0.8,1.8,1.8,3.3,3,4.6c1.2,1.3,2.6,2.3,4.2,3
					c1.6,0.7,3.3,1.1,5,1.1c1.7,0,3.2-0.2,4.6-0.6c1.3-0.4,2.6-1.2,3.9-2.3c0.3-0.2,0.6-0.6,0.9-1c0.3-0.4,0.6-0.8,0.8-1.1l0.6-1.1
					c0.2-0.4,0.4-0.6,0.4-0.6c0.4-0.5,0.5-1.2,0.5-1.9c0-0.7-0.3-1.3-0.8-1.8c-0.4-0.4-0.9-0.6-1.4-0.6c-0.5,0.1-1,0.3-1.3,0.9
					c-0.4,0.5-0.6,1-0.9,1.4c-0.2,0.4-0.4,0.7-0.5,0.9c-0.1,0.2-0.3,0.4-0.5,0.6c-0.8,0.8-1.7,1.3-2.7,1.6c-0.9,0.3-2.1,0.4-3.5,0.4
					c-1.9,0-3.7-0.6-5.2-1.7c-1.5-1.1-2.7-2.5-3.5-4.4l-0.4-0.9h2.3c0.4,0,1.4-0.1,3.2-0.1c0,0,0,0,0,0c0.4,0,1.5,0,3.3,0.1
					c1.5,0,2.7,0,3.6-0.1c1.7-0.2,3.2-0.7,4.4-1.6c1.2-0.9,1.9-2.1,2.1-3.8c0.2-1.4,0.1-2.8-0.5-4.2c-0.5-1.4-1.3-2.7-2.3-3.9
					c-0.9-1-1.9-2-3.1-2.7c-1.2-0.8-2.5-1.4-4-1.8C103.3,55.9,102.5,55.8,101.5,55.8z M97.1,69L94.6,69l0-0.7c0-0.5,0.1-1,0.2-1.5
					c0.2-1,0.5-1.9,0.9-2.5c0.4-0.6,1-1.3,1.8-1.9c1.9-1.3,3.8-1.6,5.8-1.1c2,0.5,3.7,1.6,5.2,3.3c0.9,1.1,1.4,2,1.5,2.9l0,0.3
					l-0.2,0.2c-0.5,0.5-1.3,0.8-2.7,0.9c-0.7,0.1-1.7,0.1-3.1,0.1c-1.9,0-3-0.1-3.5-0.1C98.8,69,97.6,69,97.1,69z M96,67.7l1.1,0
					c0.4,0,1.6-0.1,3.5-0.1c0,0,0,0,0,0c0.5,0,1.6,0,3.5,0.1c1.3,0,2.3,0,3-0.1c0.9-0.1,1.4-0.2,1.7-0.3c-0.2-0.5-0.5-1.1-1.1-1.8
					c-1.3-1.5-2.8-2.5-4.5-2.9c-1.7-0.4-3.2-0.1-4.7,0.9c-0.7,0.5-1.2,1.1-1.5,1.6c-0.3,0.5-0.5,1.2-0.7,2
					C96.1,67.3,96,67.5,96,67.7z"/>
			</g>
			<g>
				<path class="st2" d="M123.7,88.4c-0.3,0.3-0.6,0.5-0.9,0.6c-0.7,0.2-1.4,0.1-2-0.3c-0.6-0.4-1.1-1.1-1.3-2l-0.3-1.3
					c0,0,0-0.1,0-0.2c-0.8-4.2-1.4-8.4-1.6-12.7c-0.3-4.3-0.4-9.3-0.4-14.9v-0.2c0,0,0-0.1,0-0.1c0-0.1,0-0.2-0.1-0.4
					c0-0.2-0.1-0.4-0.1-0.7c-0.2-1.6,0.1-3,0.7-4.1c0.1-0.3,0.3-0.5,0.6-0.8c0.2-0.3,0.4-0.5,0.6-0.7c0.2-0.2,0.4-0.4,0.7-0.5
					c0.3-0.2,0.5-0.3,0.7-0.4c0.2-0.1,0.4-0.2,0.7-0.3s0.5-0.2,0.6-0.2c0.1,0,0.3-0.1,0.5-0.2c0.2-0.1,0.3-0.1,0.4-0.2
					c1-0.4,2.4-0.6,4.2-0.6c1.7,0,3.5,0.1,5.1,0.3c2,0.3,3.7,0.8,5.1,1.5c2,0.9,3.4,2.3,4.1,4c1,2.3,1.1,4.5,0.4,6.6
					c-0.4,1.2-1.1,2.4-2.1,3.4c0.8,0.4,1.6,0.9,2.3,1.6c1.6,1.4,2.7,3,3.3,4.9c0.6,1.9,0.7,3.8,0.2,5.8c-0.4,1.7-1,3.3-2,4.8
					c-0.9,1.4-2,2.7-3.2,3.7c-1.7,1.4-3.5,2.5-5.3,3.1c-1.9,0.7-3.7,0.9-5.4,0.9C127.3,89,125.5,88.8,123.7,88.4z M122.3,55.9
					c0.1,0.8,0.2,1.4,0.2,1.8c0,5,0.1,9.4,0.3,13.1c0.2,3.8,0.6,7.4,1.2,11c2.3,0.7,4.6,0.8,6.8,0.5c2.2-0.3,4.2-1.2,6-2.7
					c1.6-1.4,2.6-3,3-4.7c0.3-1.5-0.2-2.7-1.4-3.8c-0.9-0.8-1.8-1.2-2.8-1.4c-1-0.2-2.3-0.2-3.9,0c0,0-0.1,0-0.1,0.1
					c-0.1,0-0.2,0.1-0.4,0.2l-0.9,0.5c-2.1,1.1-3.7,0.7-4.9-0.9c-0.6-0.9-0.9-1.8-0.8-2.9c0.1-1.1,0.5-2,1.3-2.6
					c0.4-0.4,1.1-0.8,2-1c0.4-0.1,0.7-0.2,1-0.2c0.3-0.1,0.6-0.1,0.7-0.1c0.1,0,0.2-0.1,0.3-0.1c0.3-0.2,0.9-0.5,1.7-0.8
					c0.8-0.4,1.5-0.7,2.1-1c0.6-0.3,1.1-0.7,1.6-1.1c0.6-0.5,0.9-0.9,1.1-1.3c0.1-0.3,0-0.6-0.2-1.1c-0.1-0.3-0.6-0.6-1.3-0.9
					c-1-0.5-2.3-0.8-3.8-1.1c-1.6-0.2-3-0.3-4.3-0.3c-1.3,0-2.2,0.2-2.8,0.4C123.1,55.6,122.6,55.8,122.3,55.9z"/>
				<path d="M122,89.8c-0.6,0-1.2-0.2-1.7-0.6c-0.8-0.5-1.3-1.3-1.5-2.4l-0.3-1.4c-0.8-4.2-1.4-8.5-1.7-12.8
					c-0.3-4.3-0.4-9.3-0.4-14.9v-0.2c0,0,0-0.2-0.1-0.4c0-0.2-0.1-0.4-0.1-0.7c-0.2-1.8,0.1-3.3,0.8-4.5c0.2-0.3,0.4-0.6,0.6-0.9
					c0.2-0.3,0.5-0.5,0.7-0.7c0.2-0.2,0.5-0.4,0.7-0.6c0.3-0.2,0.5-0.4,0.7-0.5c0.2-0.1,0.5-0.2,0.8-0.4c0.3-0.1,0.5-0.2,0.7-0.2
					c0.1,0,0.3-0.1,0.5-0.1c0.1,0,0.1,0,0.1-0.1l0-0.1l0.2-0.1c1.1-0.4,2.6-0.6,4.4-0.6c1.8,0,3.5,0.1,5.3,0.3
					c2,0.3,3.8,0.9,5.3,1.6c2.2,1,3.6,2.5,4.4,4.4c1,2.4,1.2,4.8,0.4,7.1c-0.4,1.1-0.9,2.1-1.7,3c0.6,0.4,1.2,0.8,1.7,1.3
					c1.7,1.5,2.9,3.2,3.5,5.2c0.6,2,0.7,4,0.3,6.1c-0.4,1.7-1.1,3.4-2,5c-1,1.5-2.1,2.8-3.3,3.9c-1.8,1.5-3.6,2.6-5.6,3.2
					c-2,0.7-3.9,1-5.7,0.9c-1.6-0.1-3.4-0.3-5.1-0.6c-0.3,0.2-0.6,0.4-1,0.5C122.6,89.8,122.3,89.8,122,89.8z M119.8,85.4l0.3,1.2
					c0.2,0.7,0.5,1.2,1,1.6c0.5,0.3,0.9,0.4,1.5,0.2c0.2-0.1,0.5-0.2,0.6-0.4l0.2-0.3l0.4,0.1c1.8,0.3,3.6,0.5,5.3,0.6
					c1.6,0.1,3.4-0.2,5.2-0.8c1.8-0.6,3.5-1.6,5.1-3c1.2-1,2.2-2.2,3.1-3.6c0.9-1.4,1.5-2.9,1.9-4.5c0.4-1.9,0.3-3.7-0.2-5.5
					c-0.5-1.7-1.6-3.3-3.1-4.6c-0.7-0.6-1.4-1.1-2.2-1.5l-0.8-0.4l0.6-0.6c0.9-0.9,1.6-2,1.9-3.1c0.7-1.9,0.5-4-0.4-6.1
					c-0.7-1.6-1.9-2.8-3.8-3.7c-1.3-0.7-3-1.2-4.9-1.5c-1.6-0.2-3.3-0.4-5-0.3c-1.6,0-2.9,0.2-3.9,0.5c-0.1,0.1-0.3,0.1-0.4,0.2
					c-0.2,0.1-0.4,0.1-0.6,0.2c-0.1,0-0.3,0.1-0.5,0.2c-0.2,0.1-0.4,0.2-0.6,0.3c-0.2,0.1-0.4,0.2-0.6,0.4c-0.2,0.2-0.4,0.3-0.6,0.5
					c-0.2,0.2-0.4,0.4-0.6,0.6c-0.2,0.2-0.4,0.4-0.5,0.7c-0.6,1-0.8,2.2-0.6,3.7c0,0.2,0.1,0.4,0.1,0.6c0,0.1,0,0.2,0.1,0.3
					c0,0.1,0,0.2,0,0.3v0.2c0,5.6,0.1,10.6,0.4,14.8c0.3,4.2,0.8,8.5,1.6,12.6C119.8,85.2,119.8,85.3,119.8,85.4z M128.8,83.2
					c-1.6,0-3.3-0.2-5-0.7l-0.4-0.1l-0.1-0.4c-0.6-3.6-1-7.3-1.3-11.1c-0.2-3.7-0.3-8.2-0.3-13.1c0-0.4-0.1-1-0.2-1.7l-0.1-0.5
					l0.5-0.2c0.3-0.2,0.9-0.4,1.7-0.6c0.6-0.2,1.6-0.4,3-0.4c1.3,0,2.8,0.1,4.4,0.3c1.6,0.3,3,0.7,4,1.2c0.9,0.4,1.4,0.8,1.6,1.2
					c0.3,0.8,0.4,1.3,0.2,1.7c-0.2,0.5-0.6,1-1.3,1.6c-0.5,0.4-1.1,0.8-1.7,1.1c-0.6,0.3-1.3,0.7-2.1,1.1c-0.8,0.4-1.4,0.7-1.7,0.8
					c-0.2,0.1-0.3,0.1-0.5,0.2c-0.1,0-0.4,0.1-0.8,0.1c-0.3,0-0.6,0.1-0.9,0.2c-0.8,0.2-1.3,0.5-1.7,0.8c-0.7,0.6-1,1.3-1.1,2.2
					c-0.1,0.9,0.1,1.7,0.7,2.5c1,1.4,2.3,1.6,4.1,0.7l0.9-0.5c0.2-0.1,0.4-0.2,0.4-0.2c0.1-0.1,0.3-0.1,0.5-0.1c1.6-0.2,2.9-0.2,4,0
					c1.1,0.2,2.1,0.7,3.1,1.6c1.4,1.2,1.9,2.7,1.6,4.4c-0.4,1.8-1.5,3.6-3.2,5.1c-1.9,1.6-4,2.5-6.3,2.8
					C130.2,83.1,129.5,83.2,128.8,83.2z M124.6,81.3c2.1,0.5,4.2,0.7,6.2,0.4c2.1-0.3,4-1.1,5.7-2.5c1.5-1.3,2.4-2.8,2.8-4.3
					c0.2-1.2-0.1-2.2-1.2-3.1c-0.8-0.7-1.6-1.1-2.5-1.3c-0.9-0.2-2.1-0.2-3.6,0c-0.1,0-0.2,0.1-0.5,0.2l-0.8,0.5
					c-3,1.5-4.8,0.2-5.7-1.1c-0.7-1-1-2.1-0.9-3.3c0.1-1.3,0.6-2.3,1.5-3.1c0.5-0.5,1.3-0.9,2.2-1.1c0.4-0.1,0.7-0.2,1.1-0.3
					c0.3,0,0.5-0.1,0.6-0.1c0.1,0,0.2-0.1,0.3-0.1c0.3-0.2,0.9-0.4,1.7-0.8c0.8-0.4,1.5-0.7,2-1c0.5-0.3,1-0.6,1.5-1
					c0.6-0.5,0.8-0.8,0.9-1c0,0,0,0,0,0c0,0,0-0.2-0.2-0.7c0,0-0.2-0.2-1-0.6c-0.9-0.4-2.1-0.8-3.6-1c-1.5-0.2-3-0.3-4.2-0.3
					c-1.5,0-2.2,0.2-2.5,0.3c-0.5,0.2-0.8,0.3-1.1,0.4c0.1,0.6,0.1,1,0.1,1.4c0,5,0.1,9.4,0.3,13.1C123.6,74.4,124,77.9,124.6,81.3z
					 M131.9,70.5C131.8,70.5,131.8,70.5,131.9,70.5C131.8,70.5,131.8,70.5,131.9,70.5z"/>
			</g>
			<g>
				<path class="st2" d="M154.3,58.3c0.4-0.2,0.8-0.3,1.2-0.3c0.7,0,1.2,0.1,1.4,0.1l1.4,0.2c0.8,0.1,1.3,0.2,1.6,0.3l1.6,0.4
					c0.7,0.2,1.3,0.4,1.7,0.7l1.6,0.9c0.6,0.4,1.1,0.8,1.6,1.3c0.4,0.5,0.8,1,1.3,1.7s0.8,1.4,1.2,2.1c0.7,1.7,1.1,3.5,1.2,5.4
					c0.1,1.9,0,3.7-0.4,5.5s-1.1,3.4-2,5c-0.9,1.6-1.9,2.9-3.1,4s-2.5,1.9-4,2.5c-1.5,0.5-3,0.7-4.5,0.4c-1.6-0.3-3-0.9-4.2-1.9
					c-1.2-1-2.2-2.2-3-3.6c-0.8-1.4-1.3-2.9-1.7-4.5c-0.4-1.6-0.6-3.2-0.7-4.8c0-1.6,0.1-3.2,0.4-4.8c0.3-1.6,0.7-3.1,1.3-4.6
					c0.6-1.5,1.4-2.8,2.5-3.8C151.6,59.4,152.9,58.6,154.3,58.3z M158.2,65c-0.1,0-0.7-0.1-1.9-0.3c-0.4,0-0.8,0-0.9,0
					c-1,0.3-1.9,1.2-2.6,2.7c-0.7,1.6-1,3.5-1,5.8c0.1,2.4,0.6,4.3,1.5,5.9c0.9,1.5,2.1,2.5,3.5,2.7c1,0.1,2,0,2.9-0.5
					s1.8-1.2,2.5-2.1c0.7-0.9,1.3-2,1.8-3.2c0.5-1.2,0.7-2.4,0.7-3.7c0-1.3-0.2-2.5-0.7-3.7c-0.5-1.1-1.1-2-2-2.5
					c-0.8-0.6-1.9-1-3.2-1.2C158.7,65,158.5,65,158.2,65z"/>
				<path d="M157.7,89.1c-0.6,0-1.1-0.1-1.7-0.2c-1.7-0.3-3.2-0.9-4.5-2c-1.3-1-2.4-2.3-3.2-3.8c-0.8-1.5-1.4-3-1.8-4.6
					c-0.4-1.6-0.6-3.3-0.7-4.9c0-1.6,0.1-3.3,0.4-4.9c0.3-1.6,0.7-3.2,1.3-4.7c0.6-1.5,1.5-2.9,2.6-4c1.1-1.1,2.4-1.9,3.9-2.3
					c0.5-0.3,1-0.4,1.5-0.3c0.7,0,1.2,0.1,1.4,0.1l1.5,0.2c0.8,0.1,1.4,0.2,1.8,0.3l1.5,0.4c0.8,0.2,1.4,0.4,1.9,0.7l1.5,0.8
					c0.7,0.5,1.3,0.9,1.7,1.5c0.4,0.5,0.9,1.1,1.3,1.8c0.5,0.7,0.9,1.4,1.2,2.2c0.7,1.7,1.2,3.6,1.3,5.6c0.1,2,0,3.9-0.5,5.7
					c-0.4,1.8-1.1,3.5-2,5.1c-0.9,1.6-2,3-3.2,4.1c-1.2,1.1-2.6,2-4.2,2.6C159.8,88.9,158.7,89.1,157.7,89.1z M155.3,58.7
					c-0.3,0-0.5,0.1-0.7,0.2l-0.2,0.1c-1.3,0.3-2.4,1-3.4,2c-1,1-1.8,2.2-2.3,3.6c-0.6,1.4-1,2.9-1.3,4.4c-0.3,1.5-0.4,3.1-0.3,4.6
					c0.1,1.5,0.3,3.1,0.7,4.6c0.4,1.5,1,3,1.7,4.3c0.7,1.3,1.7,2.5,2.8,3.4c1.2,0.9,2.5,1.5,3.9,1.7c1.4,0.3,2.8,0.2,4.2-0.4
					c1.4-0.5,2.7-1.3,3.8-2.3c1.1-1,2.1-2.3,3-3.8s1.5-3.1,1.9-4.8c0.4-1.7,0.5-3.5,0.4-5.3c-0.1-1.8-0.5-3.6-1.2-5.2
					c-0.3-0.7-0.7-1.4-1.1-2c-0.4-0.6-0.8-1.2-1.2-1.6c-0.4-0.4-0.9-0.8-1.4-1.2l-1.5-0.9c-0.4-0.2-0.9-0.4-1.5-0.6l-1.6-0.4
					c-0.2-0.1-0.6-0.2-1.5-0.3l-1.4-0.2c-0.1,0-0.6,0-1.4-0.1C155.4,58.7,155.4,58.7,155.3,58.7z M157.5,82.5c-0.3,0-0.5,0-0.8-0.1
					c-1.7-0.3-3-1.3-4-3c-1-1.6-1.5-3.7-1.6-6.2c-0.1-2.4,0.3-4.4,1-6.1c0.8-1.8,1.8-2.8,3.1-3.1c0.3-0.1,0.6-0.1,1.1,0
					c1.1,0.2,1.7,0.3,1.9,0.3c0.2,0,0.4,0,0.6,0l0.1,0l0.1,0c1.4,0.2,2.6,0.7,3.5,1.3c0.9,0.6,1.7,1.6,2.2,2.8
					c0.5,1.3,0.7,2.6,0.7,3.9c0,1.3-0.2,2.7-0.8,3.9c-0.5,1.3-1.1,2.4-1.9,3.3c-0.8,1-1.7,1.8-2.8,2.3
					C159.2,82.3,158.3,82.5,157.5,82.5z M155.8,65.4c-0.2,0-0.2,0-0.3,0c-0.8,0.2-1.5,1-2.2,2.4c-0.7,1.5-1,3.3-0.9,5.5
					c0.1,2.2,0.6,4.1,1.4,5.6c0.8,1.4,1.8,2.2,3.1,2.4c0.8,0.1,1.7,0,2.5-0.5c0.9-0.4,1.7-1.1,2.3-1.9c0.7-0.9,1.2-1.9,1.7-3
					c0.5-1.1,0.7-2.3,0.7-3.4c0-1.2-0.2-2.3-0.6-3.5c-0.4-1-1-1.7-1.7-2.2c-0.7-0.5-1.7-0.8-2.8-1.1c-0.2,0-0.5,0-0.7,0
					c-0.1,0-0.1,0-2-0.3C156,65.4,155.9,65.4,155.8,65.4z"/>
			</g>
			<g>
				<path class="st2" d="M179.1,58.3c0.4-0.2,0.8-0.3,1.2-0.3c0.7,0,1.2,0.1,1.4,0.1l1.4,0.2c0.8,0.1,1.3,0.2,1.6,0.3l1.6,0.4
					c0.7,0.2,1.3,0.4,1.7,0.7l1.6,0.9c0.6,0.4,1.1,0.8,1.6,1.3c0.4,0.5,0.8,1,1.3,1.7s0.8,1.4,1.2,2.1c0.7,1.7,1.1,3.5,1.2,5.4
					c0.1,1.9,0,3.7-0.4,5.5s-1.1,3.4-2,5c-0.9,1.6-1.9,2.9-3.1,4s-2.5,1.9-4,2.5c-1.5,0.5-3,0.7-4.5,0.4c-1.6-0.3-3-0.9-4.2-1.9
					c-1.2-1-2.2-2.2-3-3.6c-0.8-1.4-1.3-2.9-1.7-4.5c-0.4-1.6-0.6-3.2-0.7-4.8c0-1.6,0.1-3.2,0.4-4.8c0.3-1.6,0.7-3.1,1.3-4.6
					c0.6-1.5,1.4-2.8,2.5-3.8C176.5,59.4,177.8,58.6,179.1,58.3z M183.1,65c-0.1,0-0.7-0.1-1.9-0.3c-0.4,0-0.8,0-0.9,0
					c-1,0.3-1.9,1.2-2.6,2.7c-0.7,1.6-1,3.5-1,5.8c0.1,2.4,0.6,4.3,1.5,5.9c0.9,1.5,2.1,2.5,3.5,2.7c1,0.1,2,0,2.9-0.5
					s1.8-1.2,2.5-2.1c0.7-0.9,1.3-2,1.8-3.2c0.5-1.2,0.7-2.4,0.7-3.7c0-1.3-0.2-2.5-0.7-3.7c-0.5-1.1-1.1-2-2-2.5
					c-0.8-0.6-1.9-1-3.2-1.2C183.6,65,183.3,65,183.1,65z"/>
				<path d="M182.5,89.1c-0.6,0-1.1-0.1-1.7-0.2c-1.7-0.3-3.2-0.9-4.5-2c-1.3-1-2.4-2.3-3.2-3.8c-0.8-1.5-1.4-3-1.8-4.6
					c-0.4-1.6-0.6-3.3-0.7-4.9c0-1.6,0.1-3.3,0.4-4.9c0.3-1.6,0.7-3.2,1.3-4.7c0.6-1.5,1.5-2.9,2.6-4c1.1-1.1,2.4-1.9,3.9-2.3
					c0.5-0.3,1-0.4,1.5-0.3c0.7,0,1.2,0.1,1.4,0.1l1.5,0.2c0.8,0.1,1.4,0.2,1.8,0.3l1.5,0.4c0.8,0.2,1.4,0.4,1.9,0.7l1.5,0.8
					c0.7,0.5,1.3,0.9,1.7,1.5c0.4,0.5,0.9,1.1,1.3,1.8c0.5,0.7,0.9,1.4,1.2,2.2c0.7,1.7,1.2,3.6,1.3,5.6c0.1,2,0,3.9-0.5,5.7
					c-0.4,1.8-1.1,3.5-2,5.1c-0.9,1.6-2,3-3.2,4.1c-1.2,1.1-2.6,2-4.2,2.6C184.7,88.9,183.6,89.1,182.5,89.1z M180.2,58.7
					c-0.3,0-0.5,0.1-0.7,0.2l-0.2,0.1c-1.3,0.3-2.4,1-3.4,2c-1,1-1.8,2.2-2.3,3.6c-0.6,1.4-1,2.9-1.3,4.4c-0.3,1.5-0.4,3.1-0.3,4.6
					c0.1,1.5,0.3,3.1,0.7,4.6c0.4,1.5,1,3,1.7,4.3c0.7,1.3,1.7,2.5,2.8,3.4c1.2,0.9,2.5,1.5,3.9,1.7c1.4,0.3,2.8,0.2,4.2-0.4
					c1.4-0.5,2.7-1.3,3.8-2.3c1.1-1,2.1-2.3,3-3.8s1.5-3.1,1.9-4.8c0.4-1.7,0.5-3.5,0.4-5.3c-0.1-1.8-0.5-3.6-1.2-5.2
					c-0.3-0.7-0.7-1.4-1.1-2c-0.4-0.6-0.8-1.2-1.2-1.6c-0.4-0.4-0.9-0.8-1.4-1.2l-1.5-0.9c-0.4-0.2-0.9-0.4-1.5-0.6l-1.6-0.4
					c-0.2-0.1-0.6-0.2-1.5-0.3l-1.4-0.2c-0.1,0-0.6,0-1.4-0.1C180.3,58.7,180.3,58.7,180.2,58.7z M182.4,82.5c-0.3,0-0.5,0-0.8-0.1
					c-1.7-0.3-3-1.3-4-3c-1-1.6-1.5-3.7-1.6-6.2c-0.1-2.4,0.3-4.4,1-6.1c0.8-1.8,1.8-2.8,3.1-3.1c0.3-0.1,0.6-0.1,1.1,0
					c1.1,0.2,1.7,0.3,1.9,0.3c0.2,0,0.4,0,0.6,0l0.1,0l0.1,0c1.4,0.2,2.6,0.7,3.5,1.3c0.9,0.6,1.7,1.6,2.2,2.8
					c0.5,1.3,0.7,2.6,0.7,3.9c0,1.3-0.2,2.7-0.8,3.9c-0.5,1.3-1.1,2.4-1.9,3.3c-0.8,1-1.7,1.8-2.8,2.3
					C184.1,82.3,183.2,82.5,182.4,82.5z M180.6,65.4c-0.2,0-0.2,0-0.3,0c-0.8,0.2-1.5,1-2.2,2.4c-0.7,1.5-1,3.3-0.9,5.5
					c0.1,2.2,0.6,4.1,1.4,5.6c0.8,1.4,1.8,2.2,3.1,2.4c0.8,0.1,1.7,0,2.5-0.5c0.9-0.4,1.7-1.1,2.3-1.9c0.7-0.9,1.2-1.9,1.7-3
					c0.5-1.1,0.7-2.3,0.7-3.4c0-1.2-0.2-2.3-0.6-3.5c-0.4-1-1-1.7-1.7-2.2c-0.7-0.5-1.7-0.8-2.8-1.1c-0.2,0-0.5,0-0.7,0
					c-0.1,0-0.1,0-2-0.3C180.9,65.4,180.7,65.4,180.6,65.4z"/>
			</g>
			<g>
				<path class="st2" d="M202.9,46.9c-0.1,7.8-0.1,14.7,0,20.6c0.1-0.3,0.3-0.5,0.5-0.7c0.1-0.1,0.2-0.1,0.3-0.2l1.4-1.7
					c3-3.7,5.2-6.3,6.6-7.8c0.6-0.6,1.2-0.8,2-0.8c0.7,0.1,1.4,0.5,1.8,1.1c0.5,0.7,0.7,1.5,0.6,2.4c-0.1,0.9-0.4,1.7-0.9,2.2
					c-1.7,1.7-3.8,4.2-6.3,7.3l-0.3,0.4l1.9,3.1l2,3.3l1.8,3l2.1,3.3c0.7,1,1.4,1.9,2.1,2.9c0.5,0.7,0.7,1.4,0.7,2.3
					c0,0.9-0.3,1.7-0.9,2.3c-0.5,0.6-1.2,0.9-1.9,0.8c-0.7,0-1.4-0.4-1.9-1.1l-1.7-2.5l-1.6-2.4c-0.4-0.7-1-1.5-1.7-2.6l-1.5-2.5
					l-1.7-2.7l-1.5-2.5l-1.8,2.1c0,3.8-0.2,7.1-0.6,9.9c-0.1,0.9-0.4,1.6-1,2.2c-0.6,0.5-1.3,0.7-2,0.6c-0.7-0.1-1.3-0.6-1.8-1.3
					c-0.4-0.7-0.6-1.5-0.5-2.5c0.1-1.1,0.2-2.1,0.3-3.2c0.1-1.1,0.1-2.3,0.2-3.6c0-1.3,0-2.4,0-3.2c0-0.8,0-2.1,0-3.7
					c0-1.6,0-2.8,0-3.6c0-10.2,0-17.4,0-21.5c0-0.9,0.3-1.6,0.8-2.2c0.5-0.7,1.2-1,1.9-1c0.7,0,1.4,0.3,1.9,1
					C202.6,45.2,202.9,46,202.9,46.9z"/>
				<path d="M216.5,91.5c-0.1,0-0.1,0-0.2,0c-0.9,0-1.7-0.5-2.4-1.4l-1.7-2.5l-1.6-2.4c-0.4-0.7-1-1.5-1.7-2.6l-4.3-7l-1.1,1.2
					c0,3.7-0.2,7-0.6,9.8c-0.1,1.1-0.5,1.9-1.2,2.6c-0.8,0.7-1.6,0.9-2.6,0.8c-0.9-0.2-1.7-0.7-2.2-1.6c-0.5-0.9-0.7-1.8-0.6-2.9
					c0.1-1,0.2-2.1,0.3-3.2c0.1-1.1,0.1-2.3,0.2-3.5c0-1.3,0-2.3,0-3.2c0-0.8,0-2.1,0-3.7c0-1.6,0-2.8,0-3.6c0-10.3,0-17.4,0-21.5
					c0-1,0.3-1.9,1-2.7c0.7-0.8,1.5-1.2,2.4-1.2c0.9,0,1.7,0.4,2.4,1.2c0.6,0.8,0.9,1.7,0.9,2.8v0c-0.1,7-0.1,13.4-0.1,18.9l1.1-1.3
					c3-3.7,5.2-6.3,6.7-7.8c0.7-0.7,1.5-1.1,2.5-1c0.9,0.1,1.7,0.6,2.3,1.4c0.6,0.8,0.8,1.8,0.7,2.8c-0.1,1.1-0.4,2-1.1,2.7
					c-1.7,1.7-3.8,4.2-6.3,7.3l1.7,2.8l6,9.5c0.7,1,1.4,1.9,2.1,2.9c0.6,0.8,0.8,1.7,0.8,2.8c0,1.1-0.4,2-1,2.7
					C218.1,91.1,217.4,91.5,216.5,91.5z M204.8,73.3l5.2,8.5c0.7,1.1,1.2,1.9,1.7,2.6l1.6,2.4l1.7,2.4c0.4,0.5,0.8,0.8,1.4,0.8
					c0.5,0,1-0.2,1.4-0.6c0.4-0.5,0.7-1.1,0.7-1.8c0-0.8-0.2-1.4-0.5-1.9c-0.7-0.9-1.4-1.9-2.1-2.9l-6-9.5l-2.1-3.5l0.5-0.7
					c2.5-3.2,4.7-5.6,6.4-7.4c0.5-0.5,0.7-1.1,0.8-1.8c0-0.8-0.1-1.4-0.5-2c-0.4-0.5-0.8-0.8-1.3-0.9c-0.5,0-1,0.1-1.4,0.6
					c-1.4,1.5-3.6,4.1-6.6,7.7l-1.5,1.8c-0.1,0.1-0.2,0.1-0.3,0.2c-0.1,0.1-0.2,0.3-0.3,0.5l-1.2,2.1l0-2.4c0-5.9,0-12.8,0-20.6
					c0-0.8-0.2-1.4-0.6-1.9c-0.4-0.5-0.8-0.7-1.4-0.7c-0.5,0-1,0.2-1.4,0.7c-0.4,0.5-0.7,1.1-0.7,1.8c0,4.1,0,11.1,0,21.5
					c0,0.7,0,1.9,0,3.5c0,1.6,0,2.9,0,3.7c0,0.8,0,1.9,0,3.2c0,1.3-0.1,2.5-0.2,3.6s-0.2,2.2-0.3,3.3c-0.1,0.8,0,1.4,0.4,2.1
					c0.3,0.6,0.8,0.9,1.3,1c0.5,0.1,1,0,1.5-0.4c0.5-0.4,0.7-1,0.8-1.7c0.4-2.8,0.5-6.1,0.6-9.9l0-0.2L204.8,73.3z"/>
			</g>
		</g>
	</g>
</g>
<g class="st3">
	<path class="st4" d="M169.6,166.9c1.1,2.5-0.3,5.6-3,5.7c-4.5,0.1-7.5-5.6-4.4-8.8c0.2,0.5,0.7,0.9,1.4,0.7
		C165.8,163.9,168.6,164.5,169.6,166.9z"/>
	<path class="st4" d="M196.6,153c1.4,5.9-2.9,11.2-8.2,11.5c-4.1,0.2-8.6-2.5-10-7c-1.4-4.6,1.2-9.1,4.9-10.7c0.2,0.6,0.7,1,1.4,0.7
		C189.4,145.9,195.1,146.8,196.6,153z"/>
	<path class="st5" d="M185.2,144.3c5.7-2.9,12.8,1.1,14.4,7.8c1.9,7.7-3.2,14.6-10,15.7c-6.5,1-14.1-4.2-14.5-11.9
		C174.6,149.5,179.6,143.8,185.2,144.3z M178.4,157.5c1.4,4.4,5.8,7.2,10,7c5.3-0.3,9.7-5.6,8.2-11.5c-1.5-6.2-7.2-7.1-11.9-5.4
		c-0.7,0.2-1.2-0.2-1.4-0.7C179.6,148.5,177,153,178.4,157.5z"/>
	<path class="st5" d="M169.6,166.9c-1.1-2.4-3.8-3-6-2.4c-0.7,0.2-1.1-0.2-1.4-0.7c-3.1,3.2-0.1,8.9,4.4,8.8
		C169.3,172.5,170.8,169.5,169.6,166.9z M158.7,169.4c-1-3.6,1-7.9,4.5-8.3c0.3,0,0.6,0.2,0.7,0.5c3.3-0.6,7.1,1,8.3,4.7
		c1.2,3.9-0.7,8.3-4.5,9C164.1,176,159.8,173.4,158.7,169.4z"/>
	<g class="st6">
		<path class="st0" d="M223.7,34.9c13.3,11.4,22.5,26.9,19.2,42.6C240,91.1,229.1,102.3,214,109c-1.4-2.2-3.5-4.1-6.5-5.7
			c-1.5-0.8-3.7,0.8-2.6,2c8.8,9.7,8.1,23.1-8.2,27.9c-15.1,4.5-39.4-3.5-32.9-18.7c0.5-1.2-1.8-1.9-2.6-0.8c-2.2,2.9-3,5.6-2.9,8.1
			c-34.5,4.1-71.7,4.9-101.3-11.8C29.9,94.7,17.4,64.4,38.5,42C59.2,20,97.6,11.9,130.7,10.5C165.1,9.1,199.6,14.2,223.7,34.9z
			 M226.7,92.6c13.1-24.5,0.2-54.7-29.7-67.3c-1-0.4-1.7,0.6-0.9,1.1c27.7,15.5,38.2,40.1,27.3,65.5
			C222.7,93.6,225.9,94.1,226.7,92.6z"/>
		<path class="st1" d="M197,25.3c29.9,12.7,42.8,42.9,29.7,67.3c-0.8,1.5-4,1-3.3-0.7c11-25.4,0.5-50-27.3-65.5
			C195.3,25.9,196.1,24.8,197,25.3z"/>
		<path class="st1" d="M163.8,114.6c-6.5,15.2,17.8,23.1,32.9,18.7c16.3-4.8,17-18.2,8.2-27.9c-1.1-1.2,1.1-2.9,2.6-2
			c3,1.6,5.1,3.6,6.5,5.7c15-6.7,25.9-17.9,28.8-31.5c3.4-15.7-5.9-31.2-19.2-42.6c-24.1-20.7-58.6-25.9-93-24.4
			C97.6,11.9,59.2,20,38.5,42C17.4,64.4,29.9,94.7,57.1,110c29.7,16.7,66.8,15.9,101.3,11.8c-0.2-2.5,0.7-5.2,2.9-8.1
			C162.1,112.7,164.4,113.4,163.8,114.6z M196.9,137c-12.8,3.2-34-2.3-37.9-12.6c-41,7.2-90.8,4.7-119.6-22.4
			c-22.4-21.1-21.4-51,4.2-70C71.4,11.5,113.2,5.6,150.1,6.7C187.3,7.9,223.9,21,241,48.2c14.6,23.2,4.9,52.2-25.4,64.1
			C218.5,122.1,209.1,134,196.9,137z"/>
	</g>
	<g class="st6">
		<g>
			<g>
				<path class="st2" d="M72.9,50.4c-1.8,3.8-3.3,7-4.8,9.5c-1.5,2.7-3.2,5.3-5.1,7.7c-0.2,0.3-0.4,0.5-0.7,0.6
					c0.5,6.5,0.7,12,0.7,16.6c0,0.9-0.3,1.7-0.8,2.3c-0.5,0.6-1.2,1-1.9,1c-0.7,0-1.4-0.3-1.9-1c-0.5-0.6-0.8-1.4-0.8-2.3
					c0-4.4-0.2-9.6-0.7-15.7c-0.1-0.2-0.3-0.4-0.4-0.5C53.1,63,50,57.2,47.4,51.3c-0.4-0.8-0.4-1.6-0.2-2.5s0.7-1.5,1.3-2
					c0.6-0.4,1.3-0.5,2-0.2c0.7,0.3,1.2,0.8,1.6,1.6c2.1,4.9,4.6,9.6,7.4,14.3h0.2c1.6-2.1,3-4.3,4.3-6.7c1.3-2.4,2.7-5.2,4.3-8.5
					c0.4-0.8,0.9-1.3,1.6-1.6c0.7-0.2,1.4-0.1,2,0.3c0.6,0.4,1.1,1.1,1.2,2C73.4,48.8,73.3,49.6,72.9,50.4z"/>
				<path d="M60.4,88.7c-0.9,0-1.8-0.4-2.4-1.2c-0.6-0.8-0.9-1.7-0.9-2.7c0-4.3-0.2-9.5-0.7-15.4c-0.1-0.1-0.2-0.3-0.3-0.4
					c-3.6-5.5-6.7-11.4-9.3-17.3c-0.4-0.9-0.5-1.9-0.2-2.9c0.3-1,0.8-1.8,1.6-2.3c0.8-0.6,1.7-0.7,2.6-0.3c0.9,0.3,1.5,1,2,1.9
					c2,4.6,4.4,9.1,7,13.5c1.4-1.9,2.6-3.9,3.8-5.9c1.3-2.3,2.7-5.2,4.3-8.5c0.4-1,1.1-1.6,2-1.9c0.9-0.3,1.8-0.2,2.6,0.4
					c0.8,0.5,1.3,1.3,1.5,2.4c0.2,1,0.1,2-0.3,2.9c-1.8,3.8-3.4,7-4.8,9.6c-1.5,2.7-3.2,5.4-5.2,7.8c-0.2,0.2-0.3,0.4-0.5,0.5
					c0.5,6.3,0.7,11.8,0.7,16.2c0,1.1-0.3,2-0.9,2.7C62.1,88.3,61.3,88.7,60.4,88.7z M49.7,47.1c-0.3,0-0.6,0.1-0.9,0.3
					c-0.5,0.3-0.8,0.9-1,1.6c-0.2,0.7-0.1,1.4,0.2,2.1c2.6,5.9,5.7,11.6,9.2,17.1c0.1,0.2,0.2,0.3,0.4,0.5l0.1,0.2l0,0.2
					c0.4,6.1,0.7,11.4,0.7,15.7c0,0.8,0.2,1.4,0.6,1.9c0.4,0.5,0.8,0.7,1.4,0.7c0.5,0,1-0.2,1.4-0.7c0.4-0.5,0.6-1.1,0.6-1.9
					c0-4.5-0.2-10-0.7-16.5l0-0.4l0.4-0.2c0.2-0.1,0.4-0.2,0.5-0.4c1.9-2.4,3.6-4.9,5.1-7.6c1.4-2.5,3-5.7,4.7-9.5l0,0
					c0.3-0.6,0.4-1.3,0.2-2c-0.2-0.7-0.5-1.2-1-1.6c-0.5-0.3-0.9-0.4-1.4-0.2c-0.5,0.2-0.9,0.6-1.2,1.2c-1.5,3.3-3,6.2-4.3,8.6
					c-1.3,2.4-2.8,4.7-4.4,6.7L60,63h-0.9L59,62.7c-2.8-4.6-5.3-9.5-7.5-14.3c-0.3-0.6-0.7-1-1.2-1.2C50.1,47.1,49.9,47.1,49.7,47.1
					z"/>
			</g>
			<g>
				<path class="st2" d="M82.3,58.6c0.4-0.2,0.8-0.3,1.2-0.3c0.7,0,1.2,0.1,1.4,0.1l1.4,0.2c0.8,0.1,1.3,0.2,1.6,0.3l1.6,0.4
					c0.7,0.2,1.3,0.4,1.7,0.7l1.6,0.9c0.6,0.4,1.1,0.8,1.6,1.3c0.4,0.5,0.8,1,1.3,1.7c0.4,0.7,0.8,1.4,1.2,2.1
					c0.7,1.7,1.1,3.5,1.2,5.4c0.1,1.9,0,3.7-0.4,5.5s-1.1,3.4-2,5c-0.9,1.6-1.9,2.9-3.1,4s-2.5,1.9-4,2.5c-1.5,0.5-3,0.7-4.5,0.4
					c-1.6-0.3-3-0.9-4.2-1.9c-1.2-1-2.2-2.2-3-3.6c-0.8-1.4-1.3-2.9-1.7-4.5c-0.4-1.6-0.6-3.2-0.7-4.8c0-1.6,0.1-3.2,0.4-4.8
					c0.3-1.6,0.7-3.1,1.3-4.6c0.6-1.5,1.4-2.8,2.5-3.8C79.7,59.6,80.9,58.9,82.3,58.6z M86.2,65.3c-0.1,0-0.7-0.1-1.9-0.3
					c-0.4,0-0.8,0-0.9,0c-1,0.3-1.9,1.2-2.6,2.7c-0.7,1.6-1,3.5-1,5.8c0.1,2.4,0.6,4.3,1.5,5.9c0.9,1.5,2.1,2.5,3.5,2.7
					c1,0.1,2,0,2.9-0.5s1.8-1.2,2.5-2.1c0.7-0.9,1.3-2,1.8-3.2c0.5-1.2,0.7-2.4,0.7-3.7c0-1.3-0.2-2.5-0.7-3.7c-0.5-1.1-1.1-2-2-2.5
					c-0.8-0.6-1.9-1-3.2-1.2C86.7,65.3,86.5,65.3,86.2,65.3z"/>
				<path d="M85.7,89.4c-0.6,0-1.1-0.1-1.7-0.2c-1.7-0.3-3.2-0.9-4.5-2c-1.3-1-2.4-2.3-3.2-3.8c-0.8-1.5-1.4-3-1.8-4.6
					c-0.4-1.6-0.6-3.2-0.7-4.9c0-1.6,0.1-3.3,0.4-4.9c0.3-1.6,0.7-3.2,1.3-4.7c0.6-1.5,1.5-2.9,2.6-4c1.1-1.1,2.4-1.9,3.9-2.3
					c0.5-0.3,1-0.4,1.5-0.3c0.7,0,1.2,0.1,1.4,0.1l1.5,0.2c0.8,0.1,1.4,0.2,1.8,0.3l1.5,0.4c0.8,0.2,1.4,0.4,1.9,0.7l1.5,0.8
					c0.7,0.5,1.3,0.9,1.7,1.5c0.4,0.5,0.9,1.1,1.3,1.8c0.5,0.7,0.9,1.4,1.2,2.2c0.7,1.7,1.2,3.6,1.3,5.6c0.1,2,0,3.9-0.5,5.7
					c-0.4,1.8-1.1,3.5-2,5.1c-0.9,1.6-2,3-3.2,4.1c-1.2,1.1-2.6,2-4.2,2.6C87.8,89.2,86.7,89.4,85.7,89.4z M83.3,58.9
					c-0.3,0-0.5,0.1-0.7,0.2l-0.2,0.1c-1.3,0.3-2.4,1-3.4,2c-1,1-1.8,2.2-2.3,3.6c-0.6,1.4-1,2.9-1.3,4.4c-0.3,1.5-0.4,3.1-0.3,4.6
					c0.1,1.5,0.3,3.1,0.7,4.6c0.4,1.5,1,3,1.7,4.3c0.7,1.3,1.7,2.5,2.8,3.4c1.2,0.9,2.5,1.5,3.9,1.7c1.4,0.3,2.8,0.2,4.2-0.4
					c1.4-0.5,2.7-1.3,3.8-2.3c1.1-1,2.1-2.3,3-3.8c0.9-1.5,1.5-3.1,1.9-4.8c0.4-1.7,0.5-3.5,0.4-5.3c-0.1-1.8-0.5-3.6-1.2-5.2
					c-0.3-0.7-0.7-1.4-1.1-2c-0.4-0.6-0.8-1.2-1.2-1.6c-0.4-0.4-0.9-0.8-1.4-1.2l-1.5-0.9c-0.4-0.2-0.9-0.4-1.5-0.6l-1.6-0.4
					c-0.2-0.1-0.6-0.2-1.5-0.3L84.9,59c-0.1,0-0.6,0-1.4-0.1C83.4,58.9,83.4,58.9,83.3,58.9z M85.5,82.8c-0.3,0-0.5,0-0.8-0.1
					c-1.7-0.3-3-1.3-4-3c-1-1.6-1.5-3.7-1.6-6.2c-0.1-2.4,0.3-4.4,1-6.1c0.8-1.8,1.8-2.8,3.1-3.1c0.3-0.1,0.6-0.1,1.1,0
					c1.1,0.2,1.7,0.3,1.9,0.3c0.2,0,0.4,0,0.6,0l0.1,0l0.1,0c1.4,0.2,2.6,0.7,3.5,1.3c0.9,0.6,1.7,1.6,2.2,2.8
					c0.5,1.3,0.7,2.6,0.7,3.9c0,1.3-0.2,2.7-0.8,3.9c-0.5,1.3-1.1,2.4-1.9,3.3c-0.8,1-1.7,1.8-2.8,2.3
					C87.2,82.6,86.3,82.8,85.5,82.8z M83.8,65.6c-0.2,0-0.2,0-0.3,0c-0.8,0.2-1.5,1-2.2,2.4c-0.7,1.5-1,3.3-0.9,5.5
					c0.1,2.2,0.6,4.1,1.4,5.6c0.8,1.4,1.8,2.2,3.1,2.4c0.8,0.1,1.7,0,2.5-0.5c0.9-0.4,1.7-1.1,2.3-1.9c0.7-0.9,1.2-1.9,1.7-3
					c0.5-1.1,0.7-2.3,0.7-3.4c0-1.2-0.2-2.3-0.6-3.5c-0.4-1-1-1.7-1.7-2.2c-0.7-0.5-1.7-0.8-2.8-1.1c-0.2,0-0.5,0-0.7,0
					c-0.1,0-0.1,0-2-0.3C84,65.6,83.9,65.6,83.8,65.6z"/>
			</g>
			<g>
				<path class="st2" d="M105,60c0,0.4,0.1,1.7,0.2,3.7c0.1,2,0.2,3.9,0.3,5.5c0.1,1.7,0.3,3.3,0.6,4.8c0.4,2.7,1,4.8,1.7,6.2
					c0.6,1.2,1.3,1.9,2,2c0.5,0.1,1-0.2,1.5-0.8c0.5-0.6,1-1.8,1.5-3.5c0.6-1.9,1.2-5.2,1.8-9.9c0.1-0.9,0.2-2.5,0.3-5
					c0-0.2,0-1,0-2.3c0-0.6,0-1,0-1.3c0-0.2,0-0.4,0.1-0.6c0.1-0.5,0.3-0.9,0.5-1.3c0.4-0.7,1-1.1,1.7-1.2c0.8-0.2,1.5,0,2.1,0.7
					c0.4,0.3,0.6,0.7,0.8,1.3c0.1,0.1,0.1,0.3,0.1,0.4l0.1,0.4c0.1,0.8,0.2,1.7,0.1,2.7c-0.1,1.1-0.1,1.7-0.1,1.7c0,0.6,0,1.9,0,4.1
					c0,2.1,0,3.6,0,4.3c0,0.7,0.1,1.9,0.2,3.6s0.2,3,0.4,3.9c0.2,0.9,0.4,2,0.7,3.2c0.3,1.2,0.7,2.4,1.1,3.4
					c0.4,0.8,0.5,1.6,0.3,2.5c-0.2,0.9-0.6,1.5-1.3,2c-0.7,0.5-1.3,0.6-2,0.3c-0.7-0.3-1.2-0.8-1.6-1.6c-0.7-1.6-1.3-3.3-1.8-5.1
					c-1.8,3.6-4.2,5.2-7.2,4.8c-2.5-0.4-4.5-2.1-6-5.1c-1-2.1-1.8-4.9-2.4-8.3c-0.3-1.7-0.5-3.5-0.6-5.4c-0.2-1.9-0.3-3.9-0.4-6.1
					c-0.1-2.1-0.1-3.3-0.1-3.3c-0.1-0.9,0.2-1.7,0.6-2.4c0.5-0.7,1.1-1.1,1.8-1.1c0.7-0.1,1.4,0.2,1.9,0.8
					C104.7,58.4,105,59.2,105,60z"/>
				<path d="M120.5,91.4c-0.3,0-0.6-0.1-1-0.2c-0.9-0.3-1.5-1-2-1.9c-0.5-1.2-1-2.4-1.4-3.7c-1.9,2.9-4.3,4.2-7.1,3.8
					c-2.7-0.4-4.9-2.2-6.5-5.4c-1.1-2.2-1.9-5-2.5-8.5c-0.3-1.7-0.5-3.6-0.7-5.5c-0.2-1.9-0.3-3.9-0.4-6.1C99,60.7,99,60.6,99,60.6
					c-0.1-1,0.2-2,0.8-2.8c0.6-0.9,1.4-1.3,2.3-1.4c0.9-0.1,1.8,0.2,2.5,1c0.7,0.7,1,1.6,1.1,2.6l0,0c0,0.4,0.1,1.7,0.2,3.7
					c0.1,2,0.2,3.8,0.3,5.5c0.1,1.7,0.3,3.3,0.6,4.8c0.4,2.6,1,4.6,1.6,6c0.3,0.7,0.9,1.5,1.6,1.6c0.3,0,0.7-0.3,0.9-0.6
					c0.3-0.4,0.8-1.2,1.4-3.2c0.6-1.9,1.2-5.2,1.8-9.8c0.1-0.8,0.2-2.5,0.3-4.9c0-0.2,0-1,0-2.3c0-0.7,0-1.1,0-1.3
					c0-0.3,0-0.5,0.1-0.7c0.1-0.6,0.3-1.1,0.6-1.5c0.6-0.8,1.3-1.3,2.1-1.5c1-0.2,1.9,0.1,2.7,0.8c0.4,0.4,0.7,0.9,1,1.5
					c0.1,0.2,0.1,0.3,0.2,0.5l0.1,0.4c0.1,0.8,0.2,1.8,0.1,2.8c-0.1,1.1-0.1,1.6-0.1,1.7c0,0.6,0,1.9,0,4.1c0,2.1,0,3.5,0,4.3
					c0,0.7,0.1,1.9,0.2,3.6c0.1,1.7,0.2,2.9,0.4,3.8c0.2,0.9,0.4,2,0.7,3.2c0.3,1.2,0.7,2.3,1.1,3.3c0.4,0.9,0.5,1.9,0.3,2.9
					c-0.2,1-0.8,1.8-1.6,2.4C121.7,91.2,121.1,91.4,120.5,91.4z M116.6,82.1l0.4,1.7c0.5,1.7,1,3.4,1.7,5c0.3,0.6,0.7,1,1.2,1.2
					c0.5,0.2,0.9,0.1,1.4-0.2c0.5-0.4,0.9-0.9,1-1.6c0.2-0.7,0.1-1.4-0.2-2c-0.5-1.1-0.9-2.2-1.2-3.5c-0.3-1.2-0.6-2.3-0.7-3.3
					c-0.2-0.9-0.3-2.3-0.4-4c-0.1-1.7-0.1-2.9-0.2-3.6c0-0.7,0-2.1,0-4.3c0-2.1,0-3.5,0-4.1c0,0,0-0.6,0.1-1.7c0-1,0-1.8-0.1-2.5
					l-0.1-0.4c0-0.1-0.1-0.2-0.1-0.3c-0.2-0.4-0.4-0.8-0.6-1c-0.5-0.5-1-0.6-1.5-0.5c-0.5,0.1-0.9,0.4-1.3,0.9
					c-0.2,0.3-0.3,0.7-0.4,1.1c0,0.1,0,0.3-0.1,0.5c0,0.2,0,0.6,0,1.2c0,1.3,0,2.1,0,2.3c-0.1,2.5-0.2,4.2-0.3,5
					c-0.6,4.8-1.2,8.1-1.8,10.1c-0.5,1.8-1.1,3-1.6,3.7c-0.7,0.8-1.4,1.1-2.1,1c-1-0.1-1.8-0.9-2.5-2.3c-0.7-1.5-1.3-3.6-1.8-6.4
					c-0.3-1.5-0.5-3.2-0.6-4.9c-0.1-1.7-0.2-3.6-0.3-5.6c-0.1-2-0.1-3.2-0.2-3.6l0,0c0-0.7-0.3-1.3-0.8-1.8
					c-0.4-0.5-0.9-0.6-1.4-0.6c-0.5,0.1-1,0.3-1.4,0.9c-0.4,0.6-0.6,1.2-0.5,2c0,0.1,0,1.3,0.1,3.3c0.1,2.1,0.2,4.2,0.4,6
					c0.2,1.9,0.4,3.7,0.6,5.4c0.5,3.3,1.3,6.1,2.3,8.1c1.4,2.8,3.2,4.4,5.5,4.7c2.7,0.4,4.8-1.1,6.5-4.5L116.6,82.1z"/>
			</g>
			<g>
				<path class="st2" d="M125.3,65.6l-2.7,0.2c-0.7,0.1-1.4-0.2-1.9-0.8c-0.6-0.6-0.9-1.3-0.9-2.2c-0.1-0.9,0.2-1.7,0.6-2.4
					c0.5-0.7,1.1-1.1,1.8-1.1c1-0.1,2.1-0.2,3.2-0.3c0.1-2.9,0.2-5.2,0.3-6.9c0.1-0.9,0.4-1.7,0.9-2.2c0.6-0.6,1.2-0.8,2-0.8
					c0.7,0.1,1.4,0.5,1.8,1.1c0.5,0.7,0.7,1.5,0.6,2.4c-0.1,1.5-0.2,3.5-0.3,6.1c1.4-0.1,2.9-0.1,4.5-0.2c0.7,0,1.3,0.3,1.9,0.9
					c0.5,0.6,0.8,1.4,0.8,2.3c0,0.9-0.2,1.7-0.7,2.3c-0.5,0.7-1.2,1-1.9,1c-1.8,0-3.4,0.1-4.8,0.2c0,0.7,0,1.4,0,2
					c-0.1,3.4,0,6.2,0,8.4c0.1,2.4,0.2,3.8,0.4,4.3l0.3,0.7c0.1,0.2,0.1,0.3,0.2,0.4l0,0.1c0.2,0.1,0.4,0.2,0.7,0.3
					c0.3,0.1,0.5,0.1,0.7,0.1c0.2,0,0.5,0,0.9-0.1c0.4-0.1,0.7-0.1,0.9-0.1c0.2,0,0.6-0.1,1.1-0.3l1.3-0.3c0.7-0.1,1.4,0,2,0.5
					c0.6,0.5,1,1.2,1.1,2.1c0.1,0.9,0,1.7-0.4,2.5c-0.4,0.7-1,1.2-1.7,1.3c0,0-0.4,0.1-1.2,0.3c-0.7,0.2-1.3,0.3-1.8,0.4
					c-0.4,0.1-1,0.1-1.8,0.2s-1.5,0-2.2-0.2c-0.7-0.2-1.3-0.5-1.9-0.8c-1.3-0.8-2.4-2.3-3.1-4.5c-0.4-1.2-0.7-3.4-0.8-6.5
					c-0.1-2.4-0.1-5.3-0.1-8.9C125.3,66.7,125.3,66.1,125.3,65.6z"/>
				<path d="M132.8,88.8c-0.6,0-1.2-0.1-1.8-0.2c-0.7-0.2-1.4-0.5-2.1-0.9c-1.5-0.9-2.6-2.5-3.4-4.9c-0.4-1.3-0.7-3.5-0.8-6.7
					c-0.1-2.4-0.1-5.4-0.1-8.9c0-0.3,0-0.6,0-0.9l-1.9,0.2c-0.9,0.1-1.7-0.2-2.4-1c-0.7-0.7-1-1.6-1.1-2.6c-0.1-1,0.2-2,0.8-2.8
					c0.6-0.9,1.4-1.3,2.3-1.4c0.8-0.1,1.7-0.1,2.6-0.2c0.1-2.6,0.2-4.8,0.3-6.3c0.1-1.1,0.4-2,1.1-2.7c0.7-0.7,1.6-1.1,2.5-1
					c0.9,0.1,1.7,0.6,2.3,1.4c0.6,0.8,0.8,1.8,0.7,2.8c-0.1,1.3-0.2,3.1-0.3,5.3c1.2-0.1,2.5-0.1,3.8-0.1c0.9-0.1,1.7,0.3,2.4,1.1
					c0.6,0.8,1,1.7,1,2.7c0,1-0.3,2-0.9,2.8c-0.6,0.8-1.4,1.2-2.4,1.3c-1.5,0-2.9,0.1-4.2,0.1c0,0.5,0,0.9,0,1.4
					c-0.1,3.3,0,6.1,0,8.4c0.1,3,0.3,3.9,0.4,4.1l0.3,0.7c0,0.1,0.1,0.2,0.1,0.2c0.1,0.1,0.2,0.1,0.4,0.1c0.4,0.1,0.7,0.1,1.3,0
					c0.4-0.1,0.7-0.1,0.9-0.1c0.2,0,0.6-0.1,1.1-0.3l1.4-0.3c0.9-0.2,1.8,0,2.5,0.7c0.7,0.6,1.2,1.5,1.3,2.5c0.1,1,0,2-0.5,2.9
					c-0.5,0.9-1.2,1.5-2.2,1.7l-0.1,0c-0.1,0-0.5,0.1-1.1,0.3c-0.8,0.2-1.4,0.3-1.9,0.4c-0.5,0.1-1.1,0.1-1.8,0.2
					C133.2,88.8,133,88.8,132.8,88.8z M126,64.9l0,0.8c0,0.5,0,1.1,0,1.5c-0.1,3.5,0,6.5,0.1,8.8c0.1,3.1,0.4,5.2,0.8,6.3
					c0.7,2.1,1.6,3.5,2.8,4.2c0.5,0.3,1.1,0.6,1.7,0.7c0.6,0.2,1.3,0.2,1.9,0.2c0.7-0.1,1.3-0.1,1.8-0.2c0.4-0.1,1-0.2,1.7-0.4
					c0.8-0.2,1.1-0.3,1.2-0.3c0.5-0.1,1-0.4,1.3-1c0.3-0.6,0.5-1.3,0.4-2.1c-0.1-0.7-0.4-1.3-0.9-1.7c-0.5-0.4-0.9-0.5-1.4-0.4
					l-1.3,0.3c-0.5,0.1-0.9,0.2-1.2,0.3c-0.2,0-0.5,0.1-0.9,0.1c-0.8,0.1-1.2,0.1-1.8,0c-0.3-0.1-0.7-0.2-0.9-0.4l-0.1-0.1
					c-0.1-0.1-0.2-0.3-0.3-0.6l-0.3-0.7c-0.1-0.4-0.3-1.3-0.5-4.6c-0.1-2.3-0.1-5.1,0-8.5c0-0.7,0-1.3,0-2l0-0.6l0.6,0
					c1.4-0.1,3.1-0.1,4.8-0.2c0.5,0,1-0.3,1.4-0.8c0.4-0.5,0.6-1.2,0.6-1.9c0-0.7-0.3-1.4-0.7-1.9c-0.4-0.5-0.8-0.7-1.3-0.7
					c-1.6,0-3.2,0.1-4.5,0.2l-0.7,0l0-0.7c0.1-2.6,0.2-4.6,0.3-6.1c0-0.8-0.1-1.4-0.5-2c-0.4-0.5-0.8-0.8-1.3-0.9
					c-0.5-0.1-1,0.1-1.4,0.6c-0.5,0.5-0.7,1.1-0.8,1.8c-0.1,1.7-0.2,4-0.3,6.9l0,0.6l-0.6,0.1c-1.1,0.1-2.2,0.2-3.2,0.3
					c-0.5,0.1-1,0.3-1.4,0.9c-0.4,0.6-0.6,1.2-0.5,2c0,0.7,0.3,1.3,0.8,1.8c0.4,0.5,0.9,0.6,1.4,0.6L126,64.9z"/>
			</g>
			<g>
				<path class="st2" d="M147.2,60c0,0.4,0.1,1.7,0.2,3.7c0.1,2,0.2,3.9,0.3,5.5c0.1,1.7,0.3,3.3,0.6,4.8c0.4,2.7,1,4.8,1.7,6.2
					c0.6,1.2,1.3,1.9,2,2c0.5,0.1,1-0.2,1.5-0.8c0.5-0.6,1-1.8,1.5-3.5c0.6-1.9,1.2-5.2,1.8-9.9c0.1-0.9,0.2-2.5,0.3-5
					c0-0.2,0-1,0-2.3c0-0.6,0-1,0-1.3c0-0.2,0-0.4,0.1-0.6c0.1-0.5,0.3-0.9,0.5-1.3c0.4-0.7,1-1.1,1.7-1.2c0.8-0.2,1.5,0,2.1,0.7
					c0.4,0.3,0.6,0.7,0.8,1.3c0.1,0.1,0.1,0.3,0.1,0.4l0.1,0.4c0.1,0.8,0.2,1.7,0.1,2.7c-0.1,1.1-0.1,1.7-0.1,1.7c0,0.6,0,1.9,0,4.1
					c0,2.1,0,3.6,0,4.3c0,0.7,0.1,1.9,0.2,3.6s0.2,3,0.4,3.9c0.2,0.9,0.4,2,0.7,3.2c0.3,1.2,0.7,2.4,1.1,3.4
					c0.4,0.8,0.5,1.6,0.3,2.5c-0.2,0.9-0.6,1.5-1.3,2c-0.7,0.5-1.3,0.6-2,0.3c-0.7-0.3-1.2-0.8-1.6-1.6c-0.7-1.6-1.3-3.3-1.8-5.1
					c-1.8,3.6-4.2,5.2-7.2,4.8c-2.5-0.4-4.5-2.1-6-5.1c-1-2.1-1.8-4.9-2.4-8.3c-0.3-1.7-0.5-3.5-0.6-5.4c-0.2-1.9-0.3-3.9-0.4-6.1
					c-0.1-2.1-0.1-3.3-0.1-3.3c-0.1-0.9,0.2-1.7,0.6-2.4c0.5-0.7,1.1-1.1,1.8-1.1c0.7-0.1,1.4,0.2,1.9,0.8
					C146.9,58.4,147.2,59.2,147.2,60z"/>
				<path d="M162.7,91.4c-0.3,0-0.6-0.1-1-0.2c-0.9-0.3-1.5-1-2-1.9c-0.5-1.2-1-2.4-1.4-3.7c-1.9,2.9-4.3,4.2-7.1,3.8
					c-2.7-0.4-4.9-2.2-6.5-5.4c-1.1-2.2-1.9-5-2.5-8.5c-0.3-1.7-0.5-3.6-0.7-5.5c-0.2-1.9-0.3-3.9-0.4-6.1c-0.1-1.2-0.1-3.2-0.1-3.4
					c-0.1-1,0.2-2,0.8-2.8c0.6-0.9,1.4-1.3,2.3-1.4c0.9-0.1,1.8,0.2,2.5,1c0.7,0.7,1,1.6,1.1,2.6v0c0,0.4,0.1,1.7,0.2,3.7
					c0.1,2,0.2,3.8,0.3,5.5c0.1,1.7,0.3,3.3,0.6,4.8c0.4,2.6,1,4.6,1.6,6c0.3,0.7,0.9,1.5,1.6,1.6c0.3,0,0.6-0.2,0.9-0.6
					c0.3-0.4,0.8-1.2,1.4-3.2c0.6-1.9,1.2-5.2,1.8-9.8c0.1-0.8,0.2-2.5,0.3-4.9c0-0.2,0-1,0-2.3c0-0.7,0-1.1,0-1.3
					c0-0.3,0-0.5,0.1-0.7c0.1-0.6,0.3-1.1,0.6-1.5c0.6-0.8,1.3-1.3,2.1-1.5c1-0.2,1.9,0.1,2.7,0.8c0.4,0.4,0.7,0.9,1,1.5
					c0.1,0.2,0.1,0.3,0.2,0.5l0.1,0.4c0.1,0.8,0.2,1.8,0.1,2.8c-0.1,1.1-0.1,1.6-0.1,1.7c0,0.6,0,1.9,0,4.1c0,2.1,0,3.5,0,4.3
					c0,0.7,0.1,1.9,0.2,3.6c0.1,1.7,0.2,2.9,0.4,3.8c0.2,0.9,0.4,2,0.7,3.2c0.3,1.2,0.7,2.3,1.1,3.3c0.4,0.9,0.5,1.9,0.3,2.9
					c-0.2,1-0.8,1.8-1.6,2.4C163.9,91.2,163.3,91.4,162.7,91.4z M158.8,82.1l0.4,1.7c0.5,1.7,1.1,3.4,1.7,5c0.3,0.6,0.7,1,1.2,1.2
					c0.5,0.2,0.9,0.1,1.4-0.2c0.5-0.4,0.9-0.9,1-1.6c0.2-0.7,0.1-1.4-0.2-2c-0.5-1.1-0.9-2.2-1.2-3.5c-0.3-1.2-0.6-2.3-0.7-3.3
					c-0.2-0.9-0.3-2.3-0.4-4c-0.1-1.7-0.1-2.9-0.2-3.6c0-0.7,0-2.1,0-4.3c0-2.1,0-3.5,0-4.1c0,0,0-0.6,0.1-1.7c0-1,0-1.8-0.1-2.5
					l-0.1-0.4c0-0.1-0.1-0.2-0.1-0.3c-0.2-0.4-0.4-0.8-0.6-1c-0.5-0.5-1-0.6-1.5-0.5c-0.5,0.1-0.9,0.4-1.3,0.9
					c-0.2,0.3-0.3,0.7-0.4,1.1c0,0.1,0,0.3-0.1,0.5c0,0.2,0,0.6,0,1.2c0,1.3,0,2.1,0,2.3c-0.1,2.5-0.2,4.2-0.3,5
					c-0.6,4.8-1.2,8.1-1.8,10.1c-0.5,1.8-1.1,3-1.6,3.7c-0.7,0.8-1.4,1.1-2.1,1c-1-0.1-1.8-0.9-2.5-2.3c-0.7-1.5-1.3-3.6-1.8-6.4
					c-0.3-1.5-0.5-3.2-0.6-4.9c-0.1-1.7-0.2-3.6-0.3-5.6c-0.1-2-0.1-3.2-0.2-3.6c0-0.7-0.3-1.3-0.8-1.8c-0.4-0.5-0.9-0.6-1.4-0.6
					c-0.5,0.1-1,0.3-1.4,0.9c-0.4,0.6-0.6,1.2-0.5,2c0,0.1,0,1.3,0.1,3.3c0.1,2.1,0.2,4.2,0.4,6c0.2,1.9,0.4,3.7,0.6,5.4
					c0.5,3.3,1.3,6.1,2.3,8.1c1.4,2.8,3.2,4.4,5.5,4.7c2.7,0.4,4.8-1.1,6.5-4.5L158.8,82.1z"/>
			</g>
			<g>
				<path class="st2" d="M167.9,74.2c-0.1-1.9-0.2-4.1-0.4-6.8c-0.1-0.7-0.1-1.8-0.3-3.3l-0.2-3.7l-0.2-3.3
					c-0.1-1.3-0.1-2.6-0.2-3.8c0-1.2,0-2.3,0-3.4c0-0.9,0.3-1.7,0.8-2.3c0.5-0.6,1.1-1,1.9-1c0.7,0,1.4,0.3,1.9,1
					c0.5,0.6,0.8,1.4,0.8,2.3c0,2.8,0.1,6.3,0.4,10.4c0.3-0.3,0.6-0.5,1-0.8c1.1-0.7,2.5-1.2,4.2-1.4c1.7-0.2,3.1-0.2,4.1,0.1
					c1.9,0.5,3.5,1.3,4.9,2.5c1.4,1.2,2.4,2.6,3.1,4.1c0.7,1.6,1.2,3.3,1.5,5.1c0.3,1.8,0.4,3.6,0.2,5.4c-0.1,1.8-0.4,3.4-0.9,5
					c-0.7,2.1-1.6,4-2.8,5.7c-1.2,1.6-2.7,2.7-4.4,3.3c-3.5,1.2-7-0.2-10.5-4.2c-0.2,0.8-0.5,1.4-1.1,1.8c-0.5,0.5-1.1,0.6-1.8,0.6
					c-0.7-0.1-1.3-0.5-1.8-1.2c-0.5-0.7-0.7-1.5-0.6-2.4c0.2-2.3,0.3-4.8,0.3-7.5C167.7,75.8,167.7,75,167.9,74.2z M173,69.1
					c0.1,2.2,0.2,4.2,0.3,6l0.5,1.2c0.2,0.5,0.3,0.9,0.4,1c0.2,0.3,0.7,1.1,1.6,2.2c2.4,3,4.5,4.2,6.2,3.6c0.7-0.2,1.4-0.7,2-1.6
					c0.6-0.8,1.1-1.9,1.6-3.3c0.4-1.5,0.6-2.9,0.6-4.4c0-1.5-0.2-2.8-0.6-4c-0.4-1.2-1-2.3-1.9-3.2c-0.9-0.9-1.9-1.5-3.2-1.8
					c-0.7-0.2-1.5-0.2-2.5-0.1c-1,0.1-1.7,0.4-2.2,0.7c-0.5,0.3-0.9,0.7-1.2,1.1c-0.3,0.4-0.6,0.7-0.7,0.9
					C173.8,67.7,173.5,68.2,173,69.1z"/>
				<path d="M181.1,90.5c-2.6,0-5.3-1.3-7.9-4c-0.2,0.4-0.5,0.8-0.9,1.1c-0.7,0.6-1.4,0.8-2.3,0.7c-1-0.1-1.7-0.6-2.3-1.5
					c-0.5-0.8-0.8-1.8-0.7-2.8c0.2-2.2,0.3-4.7,0.3-7.3c-0.3-0.8-0.3-1.7-0.1-2.5c-0.1-1.8-0.2-4.1-0.4-6.7
					c-0.1-0.6-0.1-1.8-0.3-3.3l-0.4-7c-0.1-1.4-0.2-2.7-0.2-3.8c0-1.2,0-2.3,0-3.4c0-1.1,0.3-2,0.9-2.7c0.6-0.8,1.5-1.2,2.4-1.2
					c0.9,0,1.8,0.4,2.4,1.2c0.6,0.8,0.9,1.7,0.9,2.7c0,2.5,0.1,5.6,0.4,9.2c0,0,0,0,0,0c1.2-0.8,2.7-1.3,4.5-1.6
					c1.8-0.2,3.3-0.2,4.4,0.2c1.9,0.5,3.7,1.4,5.1,2.6c1.4,1.2,2.5,2.7,3.3,4.3c0.7,1.6,1.3,3.4,1.6,5.3c0.3,1.9,0.4,3.8,0.3,5.6
					c-0.1,1.8-0.4,3.5-0.9,5.1c-0.7,2.2-1.7,4.2-2.9,5.9c-1.3,1.7-2.9,2.9-4.7,3.5C182.9,90.3,182,90.5,181.1,90.5z M172.7,83.9
					l0.8,0.9c3.4,3.8,6.6,5.1,9.8,4c1.6-0.5,2.9-1.6,4-3.1c1.2-1.6,2.1-3.4,2.7-5.5c0.4-1.5,0.7-3.1,0.8-4.9c0.1-1.7,0-3.5-0.2-5.3
					c-0.3-1.8-0.8-3.4-1.5-4.9c-0.7-1.5-1.7-2.8-3-3.9c-1.3-1.1-2.8-1.9-4.6-2.3c-1-0.3-2.3-0.3-3.9-0.1c-1.6,0.2-2.9,0.7-4,1.3
					c-0.3,0.2-0.6,0.5-0.9,0.7l-1,0.8l-0.1-1.3c-0.3-4.1-0.4-7.6-0.4-10.5c0-0.8-0.2-1.4-0.6-1.9c-0.4-0.5-0.8-0.7-1.4-0.7
					c-0.5,0-1,0.2-1.4,0.7c-0.4,0.5-0.6,1.1-0.6,1.9c0,1.1,0,2.2,0,3.4c0,1.1,0.1,2.4,0.2,3.7l0.4,7c0.1,1.6,0.2,2.7,0.3,3.3
					c0.2,2.7,0.3,4.9,0.4,6.8l0,0.1l0,0.1c-0.2,0.7-0.2,1.3,0.1,2l0,0.2c0,2.7-0.1,5.2-0.3,7.6c0,0.8,0.1,1.4,0.5,2
					c0.4,0.5,0.8,0.8,1.4,0.9c0.4,0,0.9-0.1,1.3-0.4c0.4-0.4,0.7-0.8,0.9-1.5L172.7,83.9z M181.1,83.9c-1.8,0-3.7-1.3-5.8-4
					c-1.3-1.6-1.6-2.1-1.7-2.3c-0.1-0.2-0.2-0.6-0.4-1.1l-0.5-1.4c-0.1-1.8-0.1-3.8-0.3-5.9l0-0.2l0.1-0.2c0.5-0.9,0.8-1.5,1-1.7
					c0.2-0.3,0.4-0.6,0.8-1c0.4-0.4,0.8-0.8,1.4-1.2c0.6-0.4,1.4-0.7,2.5-0.8c1.1-0.1,2-0.1,2.7,0.1c1.3,0.3,2.5,1,3.5,2
					c0.9,1,1.6,2.1,2,3.4c0.4,1.3,0.6,2.7,0.6,4.2c0,1.5-0.2,3.1-0.7,4.6c-0.4,1.4-1,2.6-1.7,3.5c-0.7,0.9-1.5,1.6-2.3,1.8
					C181.9,83.8,181.5,83.9,181.1,83.9z M174,74.9l0.4,1.1c0.2,0.6,0.3,0.9,0.4,1c0.1,0.1,0.4,0.6,1.6,2.1c2.2,2.7,4,3.9,5.5,3.3
					c0.6-0.2,1.2-0.6,1.7-1.4c0.6-0.8,1.1-1.8,1.5-3.1c0.4-1.4,0.6-2.8,0.6-4.2c0-1.4-0.2-2.7-0.5-3.8c-0.4-1.1-0.9-2.1-1.7-2.9
					c-0.8-0.8-1.7-1.4-2.8-1.6c-0.6-0.2-1.3-0.2-2.2-0.1c-0.9,0.1-1.5,0.3-2,0.6c-0.5,0.3-0.8,0.6-1.1,1c-0.3,0.3-0.5,0.6-0.7,0.8
					c-0.1,0.2-0.3,0.6-0.8,1.5C173.8,71.3,173.9,73.2,174,74.9z"/>
			</g>
			<g>
				<path class="st2" d="M198.9,75.2c0.8,1.7,1.9,3.1,3.3,4.1c1.4,1,3,1.5,4.8,1.5c1.3,0,2.4-0.1,3.3-0.4c0.8-0.3,1.6-0.7,2.4-1.4
					c0.2-0.2,0.3-0.4,0.4-0.5c0.1-0.2,0.3-0.5,0.5-0.9c0.2-0.4,0.5-0.9,0.9-1.4c0.5-0.7,1.1-1.1,1.8-1.2c0.7-0.1,1.4,0.2,2,0.8
					c0.6,0.6,0.9,1.3,1,2.2c0.1,0.9-0.1,1.7-0.6,2.4c0,0-0.1,0.2-0.4,0.5l-0.6,1.1c-0.2,0.4-0.5,0.8-0.8,1.2c-0.3,0.4-0.6,0.8-0.9,1
					c-1.3,1.2-2.7,2.1-4.1,2.5c-1.4,0.4-3,0.6-4.7,0.6c-1.8,0-3.6-0.4-5.3-1.1c-1.7-0.8-3.1-1.8-4.4-3.2c-1.2-1.3-2.3-2.9-3.1-4.8
					c-0.8-1.8-1.4-3.8-1.6-5.9c-0.2-2.1-0.1-4.4,0.3-6.7c0.4-1.8,0.9-3.4,1.7-4.6c0.8-1.3,1.8-2.4,3-3.4c1.5-1.2,3-1.9,4.7-2.2
					c1.6-0.3,3.2-0.2,4.7,0.2c1.5,0.5,2.9,1.1,4.1,1.9c1.3,0.8,2.4,1.8,3.3,2.9c1,1.2,1.8,2.5,2.4,4c0.6,1.5,0.7,3,0.5,4.5
					c-0.3,1.9-1.1,3.3-2.4,4.2c-1.3,1-2.9,1.5-4.7,1.7c-0.9,0.1-2.1,0.1-3.7,0.1c-1.8,0-2.9-0.1-3.2-0.1c-1.7,0-2.8,0.1-3.2,0.1
					H198.9z M212.1,67.8c-0.1-0.7-0.5-1.6-1.3-2.5c-1.4-1.6-3-2.6-4.9-3.1c-1.9-0.5-3.6-0.1-5.3,1c-0.8,0.6-1.3,1.2-1.7,1.8
					c-0.4,0.6-0.6,1.3-0.8,2.3c-0.1,0.4-0.1,0.9-0.2,1.4l1.8,0.1c0.5,0,1.7-0.1,3.5-0.1c0.4,0,1.6,0,3.5,0.1c1.4,0,2.4,0,3.1-0.1
					C211,68.4,211.8,68.2,212.1,67.8z"/>
				<path d="M206.9,88.1c-1.9,0-3.8-0.4-5.5-1.2c-1.8-0.8-3.3-1.9-4.6-3.3c-1.3-1.4-2.4-3-3.2-4.9c-0.9-1.9-1.4-3.9-1.6-6.1
					c-0.2-2.2-0.1-4.5,0.3-6.9c0.4-1.9,1-3.5,1.8-4.8c0.8-1.3,1.9-2.5,3.2-3.5c1.5-1.2,3.2-2,4.9-2.3c1.7-0.3,3.4-0.2,5,0.3
					c1.5,0.5,3,1.1,4.3,2c1.3,0.9,2.5,1.9,3.4,3c1.1,1.2,1.9,2.7,2.5,4.2c0.6,1.6,0.8,3.2,0.5,4.9c-0.3,2-1.2,3.6-2.7,4.7
					c-1.4,1-3.1,1.7-5,1.8c-0.9,0.1-2.2,0.1-3.7,0.1c-1.8,0-2.9-0.1-3.2-0.1c-1.7,0-2.7,0.1-3.2,0.1l-0.2,0c0.7,1.2,1.5,2.2,2.6,2.9
					c1.3,0.9,2.8,1.4,4.4,1.4c1.3,0,2.3-0.1,3.1-0.4c0.7-0.2,1.5-0.7,2.1-1.3c0.1-0.1,0.2-0.3,0.3-0.4c0.1-0.2,0.3-0.4,0.5-0.8
					c0.2-0.4,0.6-0.9,0.9-1.4c0.6-0.9,1.3-1.4,2.3-1.5c0.9-0.1,1.8,0.2,2.5,1c0.7,0.7,1.1,1.6,1.1,2.6c0.1,1-0.2,2-0.7,2.8
					c-0.1,0.1-0.2,0.2-0.3,0.5l-0.6,1.1c-0.2,0.4-0.5,0.8-0.8,1.3c-0.4,0.5-0.7,0.9-1,1.1c-1.4,1.3-2.9,2.2-4.4,2.6
					C210.4,87.8,208.7,88.1,206.9,88.1z M204.2,56c-0.6,0-1.2,0.1-1.8,0.2c-1.5,0.3-3,1-4.4,2.1c-1.2,0.9-2.2,2-2.9,3.2
					c-0.7,1.2-1.2,2.7-1.6,4.4c-0.4,2.3-0.5,4.4-0.3,6.5c0.2,2,0.7,4,1.5,5.7c0.8,1.8,1.8,3.3,3,4.6c1.2,1.3,2.6,2.3,4.2,3
					c1.6,0.7,3.3,1.1,5,1.1c1.7,0,3.2-0.2,4.6-0.6c1.3-0.4,2.6-1.2,3.9-2.3c0.3-0.2,0.6-0.6,0.9-1c0.3-0.4,0.6-0.8,0.8-1.1l0.6-1.1
					c0.2-0.4,0.4-0.6,0.4-0.6c0.4-0.5,0.5-1.2,0.5-1.9c0-0.7-0.3-1.3-0.8-1.8c-0.4-0.4-0.9-0.6-1.4-0.6c-0.5,0.1-1,0.3-1.3,0.9
					c-0.4,0.5-0.6,1-0.9,1.4c-0.2,0.4-0.4,0.7-0.5,0.9c-0.1,0.2-0.3,0.4-0.5,0.6c-0.8,0.8-1.7,1.3-2.7,1.6c-0.9,0.3-2,0.4-3.5,0.4
					c-1.9,0-3.7-0.6-5.2-1.7c-1.5-1.1-2.7-2.5-3.5-4.4l-0.4-0.9h2.3c0.4,0,1.4-0.1,3.2-0.1c0,0,0,0,0,0c0.4,0,1.5,0,3.3,0.1
					c1.5,0,2.7,0,3.6-0.1c1.7-0.2,3.2-0.7,4.4-1.6c1.2-0.9,1.9-2.1,2.1-3.8c0.2-1.4,0.1-2.8-0.5-4.2c-0.5-1.4-1.3-2.7-2.3-3.9
					c-0.9-1-1.9-2-3.1-2.7c-1.2-0.8-2.5-1.4-4-1.8C206,56.2,205.1,56,204.2,56z M199.8,69.3l-2.5-0.1l0-0.7c0-0.5,0.1-1,0.2-1.5
					c0.2-1,0.5-1.9,0.9-2.5c0.4-0.6,1-1.3,1.8-1.9c1.9-1.3,3.8-1.6,5.8-1.1c2,0.5,3.7,1.6,5.2,3.3c0.9,1.1,1.4,2,1.5,2.9l0,0.3
					l-0.2,0.2c-0.5,0.5-1.3,0.8-2.7,0.9c-0.7,0.1-1.7,0.1-3.1,0.1c-1.9,0-3-0.1-3.5-0.1C201.4,69.2,200.3,69.3,199.8,69.3z
					 M198.7,68l1.1,0c0.4,0,1.6-0.1,3.5-0.1c0,0,0,0,0,0c0.5,0,1.6,0,3.5,0.1c1.3,0,2.3,0,3-0.1c0.9-0.1,1.4-0.2,1.7-0.3
					c-0.2-0.5-0.5-1.1-1.1-1.8c-1.3-1.5-2.8-2.5-4.5-2.9c-1.7-0.4-3.2-0.1-4.7,0.9c-0.7,0.5-1.2,1.1-1.5,1.6c-0.3,0.5-0.6,1.2-0.7,2
					C198.7,67.6,198.7,67.8,198.7,68z"/>
			</g>
		</g>
	</g>
</g>
<g class="st3">
	<path class="st4" d="M169,166.9c1.1,2.5-0.3,5.6-3,5.7c-4.5,0.1-7.5-5.6-4.4-8.8c0.2,0.5,0.7,0.9,1.4,0.7
		C165.2,163.9,167.9,164.5,169,166.9z"/>
	<path class="st4" d="M195.9,153c1.4,5.9-2.9,11.2-8.2,11.5c-4.1,0.2-8.6-2.5-10-7c-1.4-4.6,1.2-9.1,4.9-10.7c0.2,0.6,0.7,1,1.4,0.7
		C188.7,145.9,194.4,146.8,195.9,153z"/>
	<path class="st5" d="M184.5,144.3c5.7-2.9,12.8,1.1,14.4,7.8c1.9,7.7-3.2,14.6-10,15.7c-6.5,1-14.1-4.2-14.5-11.9
		C173.9,149.5,178.9,143.8,184.5,144.3z M177.7,157.5c1.4,4.4,5.8,7.2,10,7c5.3-0.3,9.7-5.6,8.2-11.5c-1.5-6.2-7.2-7.1-11.9-5.4
		c-0.7,0.2-1.2-0.2-1.4-0.7C178.9,148.5,176.3,153,177.7,157.5z"/>
	<path class="st5" d="M169,166.9c-1.1-2.4-3.8-3-6-2.4c-0.7,0.2-1.1-0.2-1.4-0.7c-3.1,3.2-0.1,8.9,4.4,8.8
		C168.6,172.5,170.1,169.5,169,166.9z M158,169.4c-1-3.6,1-7.9,4.5-8.3c0.3,0,0.6,0.2,0.7,0.5c3.3-0.6,7.1,1,8.3,4.7
		c1.2,3.9-0.7,8.3-4.5,9C163.4,176,159.1,173.4,158,169.4z"/>
	<g class="st6">
		<path class="st0" d="M209.8,34.9c8.4,11.4,14.3,26.9,12.2,42.6c-1.8,13.5-8.8,24.8-18.3,31.5c-0.9-2.2-2.2-4.1-4.1-5.7
			c-1-0.8-2.4,0.8-1.7,2c5.6,9.7,5.2,23.1-5.2,27.9c-9.6,4.5-25-3.5-20.9-18.7c0.3-1.2-1.1-1.9-1.6-0.8c-1.4,2.9-1.9,5.6-1.8,8.1
			c-21.9,4.1-45.5,4.9-64.3-11.8C86.8,94.7,78.8,64.4,92.3,42c13.1-21.9,37.5-30.1,58.5-31.5C172.6,9.1,194.5,14.2,209.8,34.9z
			 M211.7,92.6c8.3-24.5,0.1-54.7-18.8-67.3c-0.6-0.4-1.1,0.6-0.5,1.1c17.6,15.5,24.3,40.1,17.3,65.5
			C209.2,93.6,211.2,94.1,211.7,92.6z"/>
		<path class="st1" d="M192.9,25.3c19,12.7,27.2,42.9,18.8,67.3c-0.5,1.5-2.5,1-2.1-0.7c7-25.4,0.3-50-17.3-65.5
			C191.8,25.9,192.2,24.8,192.9,25.3z"/>
		<path class="st1" d="M171.8,114.6c-4.1,15.2,11.3,23.1,20.9,18.7c10.3-4.8,10.8-18.2,5.2-27.9c-0.7-1.2,0.7-2.9,1.7-2
			c1.9,1.6,3.2,3.6,4.1,5.7c9.5-6.7,16.5-17.9,18.3-31.5c2.1-15.7-3.7-31.2-12.2-42.6c-15.3-20.7-37.2-25.9-59-24.4
			c-21,1.4-45.4,9.5-58.5,31.5C78.8,64.4,86.8,94.7,104,110c18.8,16.7,42.4,15.9,64.3,11.8c-0.1-2.5,0.4-5.2,1.8-8.1
			C170.7,112.7,172.1,113.4,171.8,114.6z M192.7,137c-8.1,3.2-21.6-2.3-24-12.6c-26,7.2-57.6,4.7-75.9-22.4
			c-14.2-21.1-13.6-51,2.7-70c17.6-20.6,44.1-26.5,67.6-25.3c23.6,1.2,46.8,14.2,57.7,41.4c9.3,23.2,3.1,52.2-16.1,64.1
			C206.5,122.1,200.5,134,192.7,137z"/>
	</g>
	<g class="st6">
		<g>
			<g>
				<path class="st2" d="M106.2,53.5c-0.3,3-0.4,6.9-0.4,11.9c-0.1,7.5-0.1,11.5-0.1,12.2v0.2c0,0.1,0,0.3,0,0.6c0,0.2,0,0.5,0,0.8
					c0,0.3,0,0.6,0,1c0,0.4,0,0.7,0,1.1v1.6c0.3,0.1,0.7,0.1,1.2,0.2c1.4,0.2,3.3,0.2,5.9,0.2c1.8,0,3.9-0.1,6.3-0.3
					c2.6-0.1,4.1-0.2,4.6-0.2c0.8,0,1.5,0.3,2.1,1c0.6,0.6,0.8,1.4,0.8,2.3c0,0.9-0.3,1.7-0.8,2.3c-0.6,0.6-1.3,1-2.1,1
					c-0.5,0-2,0.1-4.6,0.2c-2.4,0.2-4.5,0.3-6.3,0.3c-2.7,0.1-4.9,0-6.6-0.2c-1.1-0.1-2-0.3-2.8-0.6c-1.2-0.4-2.1-1-2.7-1.8
					c-0.3-0.4-0.5-0.9-0.7-1.5c-0.1-0.2-0.1-0.5-0.1-0.7c0-0.3,0-0.7,0-1.2c0-0.7,0-1.7,0-2.8c0-0.3,0-0.7,0-1c0-0.4,0-0.7,0-1
					c0-0.3,0-0.6,0-0.8c0-0.3,0-0.5,0-0.6v-0.2c0-0.3,0-4.3,0.1-12.1c0-5,0.2-9.1,0.4-12.5c0.1-0.9,0.5-1.6,1.1-2.2
					c0.6-0.6,1.3-0.8,2.1-0.7c0.8,0.1,1.4,0.5,2,1.2C106,51.8,106.2,52.6,106.2,53.5z"/>
				<path d="M110.7,90.5c-1.9,0-3.5-0.1-4.8-0.3c-1.1-0.1-2.1-0.3-2.9-0.6c-1.3-0.4-2.3-1.1-3-2c-0.4-0.5-0.7-1.1-0.8-1.8
					c-0.1-0.2-0.1-0.5-0.2-0.8c0-0.4-0.1-0.8-0.1-1.3c0-0.7,0-1.7,0-2.8c0-0.3,0-0.7,0-1.1c0-0.4,0-0.7,0-1l0-0.8c0-0.2,0-0.4,0-0.6
					v-0.2c0-0.3,0-4.3,0.1-12.1c0-5,0.2-9.2,0.4-12.5c0.1-1.1,0.6-2,1.3-2.7c0.8-0.7,1.6-1,2.6-0.9c1,0.1,1.8,0.6,2.4,1.4
					c0.6,0.8,0.9,1.8,0.8,2.9l0,0c-0.3,3-0.4,6.9-0.4,11.8c-0.1,7.5-0.1,11.5-0.1,12.2v0.2c0,0.2,0,0.4,0,0.6c0,0.2,0,0.5,0,0.8
					c0,0.3,0,0.6,0,1c0,0.4,0,0.7,0,1.1v1.1c0.2,0,0.4,0.1,0.6,0.1c1.3,0.2,3.3,0.2,5.7,0.2c1.8,0,3.9-0.1,6.3-0.3
					c2.6-0.1,4.2-0.2,4.7-0.2c1,0,1.8,0.4,2.5,1.2c0.7,0.8,1,1.7,1,2.8c0,1.1-0.3,2-1,2.8c-0.7,0.8-1.5,1.2-2.5,1.2
					c-0.3,0-1.4,0-4.5,0.2c-2.4,0.2-4.5,0.3-6.3,0.3C112,90.5,111.3,90.5,110.7,90.5z M103.2,50.6c-0.5,0-0.9,0.2-1.4,0.6
					c-0.5,0.5-0.8,1-0.8,1.7c-0.3,3.3-0.4,7.4-0.4,12.4c-0.1,7.8-0.1,11.8-0.1,12.1v0.2c0,0.2,0,0.4,0,0.6l0,0.8c0,0.3,0,0.6,0,1
					c0,0.4,0,0.7,0,1c0,1.1,0,2,0,2.8c0,0.5,0,0.9,0,1.2c0,0.2,0.1,0.4,0.1,0.6c0.1,0.5,0.3,0.9,0.5,1.2c0.5,0.7,1.3,1.2,2.4,1.6
					c0.7,0.3,1.6,0.5,2.7,0.6c1.7,0.2,3.8,0.3,6.5,0.2c1.7,0,3.8-0.1,6.2-0.3c2.6-0.1,4.1-0.2,4.6-0.2c0.6,0,1.1-0.2,1.6-0.7
					c0.4-0.5,0.7-1.1,0.7-1.8c0-0.7-0.2-1.3-0.7-1.8c-0.4-0.5-1-0.7-1.6-0.7c-0.5,0-2,0.1-4.6,0.2c-2.4,0.2-4.5,0.3-6.3,0.3
					c-2.5,0.1-4.5,0-6-0.2c-0.5-0.1-0.9-0.2-1.2-0.2l-0.5-0.1v-2.2c0-0.4,0-0.8,0-1.1c0-0.4,0-0.7,0-1c0-0.3,0-0.6,0-0.8
					c0-0.2,0-0.4,0-0.5v-0.2c0-0.7,0-4.8,0.1-12.2c0-4.9,0.2-8.9,0.4-11.9c0.1-0.7-0.1-1.4-0.5-1.9c-0.4-0.5-0.9-0.8-1.5-0.9
					C103.4,50.6,103.3,50.6,103.2,50.6z"/>
			</g>
			<g>
				<path class="st2" d="M138.9,61.3c-0.2,2.7-0.2,6.9-0.2,12.4c0.2,5.7,0.1,10-0.1,12.8c-0.1,0.9-0.5,1.7-1.5,2.3
					c-0.9,0.6-2,0.9-3.3,0.8c-1.3,0-2.3-0.4-3.1-1.1c-0.8-0.7-1.2-1.5-1.2-2.4c0.2-2.7,0.2-6.9,0.2-12.4c-0.2-5.7-0.1-10,0.1-12.8
					c0-0.9,0.5-1.7,1.5-2.3c0.9-0.6,2-0.9,3.3-0.8c1.3,0,2.3,0.4,3.1,1.1C138.5,59.6,138.9,60.4,138.9,61.3z M137.5,49.9
					c0.9,0.6,1.3,1.4,1.3,2.3c0,0.9-0.4,1.7-1.3,2.3c-0.9,0.6-2,1-3.2,1c-1.3,0-2.3-0.3-3.2-1c-0.9-0.6-1.3-1.4-1.3-2.3
					c0-0.9,0.4-1.7,1.3-2.3c0.9-0.6,2-1,3.2-1C135.6,49,136.7,49.3,137.5,49.9z"/>
				<path d="M134.1,90.4c-0.1,0-0.2,0-0.3,0c-1.6,0-2.9-0.5-3.9-1.3c-1-0.8-1.5-1.8-1.4-2.9c0.2-2.7,0.2-6.9,0.2-12.4
					c-0.2-5.7-0.1-10,0.1-12.9c0.1-1.1,0.7-2,1.8-2.8c1.1-0.7,2.5-1.1,4-1c1.6,0,2.9,0.5,3.9,1.3c1,0.8,1.5,1.8,1.4,2.9v0
					c-0.2,2.7-0.2,6.9-0.2,12.4c0.2,5.7,0.1,10-0.1,12.9c-0.1,1.1-0.7,2-1.8,2.8C136.8,90.1,135.5,90.4,134.1,90.4z M134.3,58.6
					c-0.9,0-1.7,0.2-2.4,0.7c-0.7,0.5-1.1,1.1-1.2,1.8c-0.2,2.9-0.2,7.2-0.1,12.8c0,5.5,0,9.7-0.2,12.4c0,0.7,0.3,1.4,0.9,1.9
					c0.6,0.5,1.4,0.8,2.4,0.8c1,0,1.8-0.2,2.5-0.7c0.7-0.5,1.1-1.1,1.2-1.8c0.2-2.9,0.2-7.2,0.1-12.8c0-5.5,0-9.7,0.2-12.4
					c0-0.7-0.3-1.4-0.9-1.9c-0.6-0.5-1.4-0.8-2.4-0.8C134.4,58.6,134.4,58.6,134.3,58.6z M134.3,56.3c-1.6,0-2.9-0.4-4-1.2
					c-1.1-0.8-1.6-1.7-1.6-2.8c0-1.1,0.5-2,1.6-2.8c1.1-0.8,2.4-1.2,4-1.2c1.6,0,2.9,0.4,4,1.2l0,0c1.1,0.8,1.6,1.7,1.6,2.8
					c0,1.1-0.5,2-1.6,2.8C137.2,55.9,135.9,56.3,134.3,56.3z M134.3,49.7c-1,0-1.8,0.2-2.5,0.7c-0.7,0.5-1,1.1-1,1.8s0.3,1.3,1,1.8
					c0.7,0.5,1.5,0.7,2.5,0.7c1,0,1.8-0.2,2.5-0.7c0.7-0.5,1-1.1,1-1.8c0-0.7-0.3-1.3-1-1.8l0,0C136.1,49.9,135.3,49.7,134.3,49.7z"
					/>
			</g>
			<g>
				<path class="st2" d="M150.5,72.7l0.1,0.6c0.4,5.3,0.7,9.5,0.8,12.4c0,0.9-0.3,1.7-0.9,2.3c-0.6,0.7-1.4,1-2.3,1
					c-0.9,0-1.7-0.3-2.3-0.9c-0.7-0.6-1-1.4-1-2.3c-0.1-2.3-0.3-6.4-0.8-12.1c-0.5-5.6-0.8-9.7-0.9-12.4c0-0.9,0.3-1.7,0.9-2.3
					c0.6-0.7,1.4-1,2.3-1c0.9,0,1.7,0.3,2.3,0.9c0.7,0.6,1,1.4,1,2.3c0,0.4,0,0.8,0.1,1.2c1.8-1.2,3.8-2.1,6.1-2.6
					c1.3-0.2,2.5-0.3,3.8-0.3c1.3,0,2.6,0.3,3.9,0.9c1.3,0.6,2.5,1.5,3.4,2.7c1.9,2.4,2.9,6.3,3.3,11.9c0,1.2,0.1,2.5,0.1,3.9
					c0,1.4,0,2.8,0,4.3c0,1.5-0.1,2.5-0.1,3c0,0.9-0.3,1.7-1,2.3c-0.6,0.6-1.4,1-2.3,1c-0.9,0-1.7-0.3-2.3-1c-0.6-0.6-1-1.4-1-2.3
					c0-0.5,0-1.5,0.1-2.9c0-1.4,0.1-2.8,0.1-4.1s0-2.6-0.1-3.8c-0.3-4.2-0.9-7-1.9-8.3c-0.8-1.1-2.4-1.3-4.6-0.9
					c-1.2,0.2-2.2,0.6-3.2,1.2c-1,0.6-1.7,1.2-2.1,1.7c-0.1,0.1-0.2,0.3-0.2,0.4c0,0.1-0.1,0.4-0.2,0.7c-0.1,0.4-0.3,0.8-0.5,1.4
					C150.9,72.2,150.7,72.4,150.5,72.7z"/>
				<path d="M166.9,90.1c-1.1,0-2.1-0.4-2.9-1.2c-0.8-0.8-1.2-1.7-1.2-2.8c0-0.5,0-1.5,0.1-2.9c0-1.4,0.1-2.7,0.1-4.1
					c0-1.3,0-2.6-0.1-3.7c-0.3-5.1-1.1-7.1-1.7-7.9c-0.6-0.8-1.9-1-3.9-0.6c-1.1,0.2-2.1,0.6-3,1.1c-0.9,0.5-1.5,1.1-1.9,1.6
					c-0.1,0.1-0.1,0.1-0.1,0.1c0,0.1-0.1,0.4-0.2,0.8c-0.1,0.4-0.3,0.9-0.5,1.5c-0.1,0.3-0.2,0.6-0.4,0.8l0,0.3
					c0.4,5.3,0.7,9.5,0.8,12.4c0,1.1-0.3,2.1-1.1,2.8c-0.8,0.8-1.7,1.2-2.8,1.3c-1.1,0.1-2.1-0.3-2.9-1.1c-0.8-0.7-1.2-1.7-1.3-2.8
					c-0.1-2.3-0.3-6.4-0.8-12c-0.5-5.5-0.8-9.7-0.9-12.4c0-1.1,0.3-2.1,1.1-2.9c0.8-0.8,1.7-1.2,2.8-1.3c1.1,0,2.1,0.3,2.9,1.1
					c0.8,0.7,1.2,1.7,1.3,2.7c1.6-0.9,3.3-1.6,5.2-2c1.4-0.2,2.7-0.3,4-0.3c1.4,0,2.8,0.3,4.2,1c1.5,0.6,2.7,1.6,3.7,2.9
					c2,2.5,3.1,6.5,3.4,12.3c0,1.2,0.1,2.5,0.1,3.9c0,1.4,0,2.8,0,4.3c0,1.5-0.1,2.5-0.1,3c0,1.1-0.4,2-1.2,2.8
					C169,89.7,168,90.1,166.9,90.1z M159,65.4c1.5,0,2.6,0.5,3.3,1.4c1.1,1.4,1.7,4.2,2,8.6c0.1,1.2,0.1,2.5,0.1,3.8
					c0,1.3,0,2.7-0.1,4.1c0,1.4-0.1,2.3-0.1,2.9c0,0.7,0.2,1.3,0.7,1.8c0.5,0.5,1.1,0.7,1.8,0.7s1.3-0.2,1.8-0.7
					c0.5-0.5,0.7-1.1,0.7-1.8c0-0.5,0-1.5,0.1-3c0-1.5,0-2.9,0-4.2c0-1.4,0-2.6-0.1-3.8c-0.3-5.4-1.4-9.3-3.1-11.5
					c-0.8-1.1-1.9-1.9-3.1-2.4c-1.2-0.6-2.5-0.8-3.6-0.8c-1.2,0-2.5,0.1-3.7,0.3c-2.1,0.4-4,1.3-5.7,2.4l-1.1,0.7l-0.1-1.2
					c0-0.4-0.1-0.8-0.1-1.3c0-0.7-0.3-1.3-0.8-1.8c-0.5-0.5-1.1-0.7-1.8-0.7c-0.7,0-1.3,0.3-1.8,0.8c-0.5,0.5-0.7,1.1-0.7,1.8
					c0.1,2.7,0.4,6.9,0.9,12.4c0.5,5.7,0.7,9.8,0.8,12.1c0,0.7,0.3,1.3,0.8,1.8c0.5,0.5,1.1,0.7,1.8,0.7c0.7,0,1.3-0.3,1.8-0.8
					c0.5-0.5,0.7-1.1,0.7-1.8c-0.1-2.9-0.4-7.1-0.8-12.4l-0.1-0.9l0.2-0.2c0.2-0.2,0.3-0.4,0.4-0.6c0.2-0.6,0.4-1,0.5-1.4
					c0.1-0.3,0.2-0.5,0.2-0.6c0-0.2,0.1-0.5,0.3-0.7c0.5-0.7,1.3-1.3,2.3-1.9c1-0.6,2.2-1.1,3.4-1.3C157.7,65.5,158.4,65.4,159,65.4
					z"/>
			</g>
			<g>
				<path class="st2" d="M180.4,76.7c0.9,1.7,2.2,3.1,3.8,4.1c1.6,1,3.5,1.5,5.6,1.5c1.6,0,2.8-0.1,3.8-0.4c1-0.3,1.9-0.7,2.8-1.4
					c0.2-0.2,0.4-0.4,0.5-0.5c0.1-0.2,0.3-0.5,0.6-0.9c0.3-0.4,0.6-0.9,1-1.4c0.6-0.7,1.3-1.1,2.1-1.2c0.8-0.1,1.6,0.2,2.3,0.8
					c0.7,0.6,1,1.3,1.1,2.2c0.1,0.9-0.2,1.7-0.7,2.4c0,0-0.2,0.2-0.4,0.5l-0.7,1.1c-0.2,0.4-0.6,0.8-0.9,1.2c-0.4,0.4-0.7,0.8-1.1,1
					c-1.6,1.2-3.2,2.1-4.8,2.5c-1.6,0.4-3.5,0.6-5.5,0.6c-2.1,0-4.2-0.4-6.2-1.1c-2-0.8-3.7-1.8-5.1-3.2c-1.4-1.3-2.7-2.9-3.6-4.8
					c-1-1.8-1.6-3.8-1.8-5.9c-0.2-2.1-0.1-4.4,0.4-6.7c0.4-1.8,1.1-3.4,2-4.6c0.9-1.3,2.1-2.4,3.6-3.4c1.7-1.2,3.5-1.9,5.4-2.2
					c1.9-0.3,3.8-0.2,5.5,0.2c1.7,0.5,3.3,1.1,4.8,1.9c1.5,0.8,2.7,1.8,3.8,2.9c1.2,1.2,2.2,2.5,2.8,4c0.7,1.5,0.9,3,0.6,4.5
					c-0.3,1.9-1.3,3.3-2.8,4.2c-1.5,1-3.4,1.5-5.5,1.7c-1,0.1-2.5,0.1-4.3,0.1c-2.1,0-3.4-0.1-3.8-0.1c-2,0-3.3,0.1-3.7,0.1H180.4z
					 M195.9,69.4c-0.1-0.7-0.6-1.6-1.6-2.5c-1.6-1.6-3.5-2.6-5.7-3.1c-2.2-0.5-4.2-0.1-6.2,1c-0.9,0.6-1.6,1.2-2,1.8
					c-0.4,0.6-0.7,1.3-0.9,2.3c-0.1,0.4-0.2,0.9-0.2,1.4l2.1,0.1c0.6,0,2-0.1,4.1-0.1c0.5,0,1.9,0,4.1,0.1c1.6,0,2.8,0,3.6-0.1
					C194.6,70,195.5,69.7,195.9,69.4z"/>
				<path d="M189.9,89.6c-2.2,0-4.4-0.4-6.4-1.2c-2-0.8-3.8-1.9-5.3-3.3c-1.5-1.4-2.8-3.1-3.8-4.9c-1-1.9-1.7-4-1.9-6.2
					c-0.2-2.2-0.1-4.5,0.4-6.9c0.4-1.9,1.1-3.6,2.1-4.9c0.9-1.3,2.2-2.5,3.8-3.5c1.8-1.2,3.7-2,5.7-2.3c2-0.3,4-0.2,5.8,0.3
					c1.8,0.5,3.5,1.1,5,2c1.5,0.8,2.9,1.9,4,3c1.3,1.3,2.3,2.7,3,4.2c0.7,1.6,1,3.3,0.6,5c-0.4,2.1-1.4,3.6-3.1,4.7
					c-1.6,1-3.6,1.6-5.8,1.8c-1.1,0.1-2.5,0.1-4.3,0.1c-2.1,0-3.4-0.1-3.8-0.1c-2,0-3.2,0.1-3.7,0.1l-0.3,0c0.8,1.1,1.8,2.1,2.9,2.8
					c1.5,0.9,3.3,1.4,5.2,1.4c1.5,0,2.7-0.1,3.6-0.4c0.9-0.2,1.7-0.7,2.5-1.3c0.1-0.1,0.3-0.3,0.4-0.4c0.1-0.2,0.3-0.4,0.6-0.8
					c0.3-0.4,0.7-0.9,1.1-1.4c0.7-0.9,1.5-1.4,2.6-1.5c1-0.1,2,0.2,2.8,0.9c0.8,0.7,1.3,1.6,1.4,2.7c0.1,1.1-0.2,2-0.9,2.9
					c-0.1,0.1-0.2,0.2-0.4,0.5l-0.7,1.1c-0.3,0.4-0.6,0.8-1,1.3c-0.4,0.5-0.8,0.9-1.2,1.1c-1.6,1.3-3.3,2.2-5.1,2.6
					C193.9,89.4,192,89.6,189.9,89.6z M186.7,57.6c-0.7,0-1.4,0.1-2.1,0.2c-1.8,0.3-3.5,1-5.1,2.1c-1.4,0.9-2.6,2-3.4,3.2
					c-0.8,1.2-1.4,2.6-1.8,4.4c-0.5,2.2-0.6,4.4-0.4,6.5c0.2,2,0.8,3.9,1.7,5.7c0.9,1.7,2.1,3.3,3.5,4.6c1.4,1.3,3,2.3,4.9,3
					c1.9,0.7,3.9,1.1,5.9,1.1c2,0,3.8-0.2,5.4-0.6c1.5-0.4,3.1-1.2,4.5-2.4c0.3-0.2,0.7-0.6,1-0.9c0.4-0.4,0.7-0.8,0.9-1.1l0.7-1.1
					c0.3-0.4,0.4-0.6,0.5-0.6c0.4-0.5,0.6-1.1,0.5-1.8c-0.1-0.7-0.3-1.3-0.9-1.7c-0.5-0.5-1.1-0.7-1.8-0.6c-0.6,0.1-1.2,0.4-1.6,0.9
					c-0.4,0.5-0.8,1-1,1.4c-0.3,0.4-0.5,0.7-0.6,0.9c-0.2,0.2-0.4,0.4-0.6,0.6c-1,0.8-2,1.3-3.1,1.6c-1,0.3-2.4,0.4-4,0.4
					c-2.2,0-4.2-0.6-6-1.6c-1.7-1.1-3.1-2.6-4.1-4.4l-0.5-1h2.6c0.5,0,1.7-0.1,3.7-0.1c0,0,0,0,0,0c0.4,0,1.7,0,3.8,0.1
					c1.8,0,3.2,0,4.2-0.1c2-0.2,3.8-0.7,5.2-1.6c1.4-0.9,2.2-2.1,2.5-3.8c0.3-1.4,0.1-2.7-0.5-4.1c-0.6-1.4-1.5-2.7-2.7-3.8
					c-1-1-2.3-2-3.7-2.8c-1.4-0.8-3-1.4-4.6-1.8C188.8,57.7,187.8,57.6,186.7,57.6z M181.5,70.9l-2.9-0.1l0.1-0.7
					c0-0.5,0.1-1,0.2-1.5c0.2-1,0.6-1.9,1.1-2.5c0.5-0.6,1.2-1.3,2.1-1.9c2.1-1.2,4.4-1.6,6.7-1.1c2.3,0.5,4.3,1.6,6,3.3
					c1.1,1.1,1.6,2,1.8,2.9l0.1,0.4l-0.3,0.3c-0.5,0.5-1.5,0.8-3.1,0.9c-0.8,0.1-2,0.1-3.7,0.1c-2.2,0-3.5-0.1-4-0.1
					C183.4,70.8,182.1,70.9,181.5,70.9z M180.2,69.4l1.3,0c0.5,0,1.9-0.1,4.1-0.1c0,0,0,0,0,0c0.5,0,1.9,0,4.1,0.1
					c1.6,0,2.7,0,3.5-0.1c1.1-0.1,1.6-0.2,1.9-0.3c-0.2-0.4-0.5-1-1.2-1.7c-1.5-1.5-3.3-2.5-5.3-2.9c-2-0.4-3.9-0.1-5.7,0.9
					c-0.8,0.5-1.4,1.1-1.8,1.6c-0.4,0.5-0.6,1.2-0.8,2C180.2,69.1,180.2,69.3,180.2,69.4z"/>
			</g>
		</g>
	</g>
</g>
<g class="st3">
	<path class="st4" d="M169.5,166.9c1.1,2.5-0.3,5.6-3,5.7c-4.5,0.1-7.5-5.6-4.4-8.8c0.2,0.5,0.7,0.9,1.4,0.7
		C165.7,163.9,168.5,164.5,169.5,166.9z"/>
	<path class="st4" d="M196.5,153c1.4,5.9-2.9,11.2-8.2,11.5c-4.1,0.2-8.6-2.5-10-7c-1.4-4.6,1.2-9.1,4.9-10.7c0.2,0.6,0.7,1,1.4,0.7
		C189.3,145.9,195,146.8,196.5,153z"/>
	<path class="st5" d="M185.1,144.3c5.7-2.9,12.8,1.1,14.4,7.8c1.9,7.7-3.2,14.6-10,15.7c-6.5,1-14.1-4.2-14.5-11.9
		C174.5,149.5,179.5,143.8,185.1,144.3z M178.3,157.5c1.4,4.4,5.8,7.2,10,7c5.3-0.3,9.7-5.6,8.2-11.5c-1.5-6.2-7.2-7.1-11.9-5.4
		c-0.7,0.2-1.2-0.2-1.4-0.7C179.5,148.5,176.9,153,178.3,157.5z"/>
	<path class="st5" d="M169.5,166.9c-1.1-2.4-3.8-3-6-2.4c-0.7,0.2-1.1-0.2-1.4-0.7c-3.1,3.2-0.1,8.9,4.4,8.8
		C169.2,172.5,170.7,169.5,169.5,166.9z M158.6,169.4c-1-3.6,1-7.9,4.5-8.3c0.3,0,0.6,0.2,0.7,0.5c3.3-0.6,7.1,1,8.3,4.7
		c1.2,3.9-0.7,8.3-4.5,9C164,176,159.7,173.4,158.6,169.4z"/>
	<g class="st6">
		<path class="st0" d="M206.4,34.9c7.3,11.4,12.4,26.9,10.5,42.6c-1.6,13.5-7.6,24.8-15.9,31.5c-0.8-2.2-1.9-4.1-3.6-5.7
			c-0.8-0.8-2,0.8-1.4,2c4.9,9.7,4.5,23.1-4.5,27.9c-8.3,4.5-21.7-3.5-18.1-18.7c0.3-1.2-1-1.9-1.4-0.8c-1.2,2.9-1.7,5.6-1.6,8.1
			c-19,4.1-39.4,4.9-55.7-11.8c-15-15.4-21.9-45.6-10.2-68.1C115.9,20,137,11.9,155.2,10.5C174.2,9.1,193.1,14.2,206.4,34.9z
			 M208.1,92.6c7.2-24.5,0.1-54.7-16.3-67.3c-0.5-0.4-0.9,0.6-0.5,1.1c15.3,15.5,21,40.1,15,65.5C205.9,93.6,207.6,94.1,208.1,92.6z
			"/>
		<path class="st1" d="M191.7,25.3c16.5,12.7,23.5,42.9,16.3,67.3c-0.5,1.5-2.2,1-1.8-0.7c6-25.4,0.3-50-15-65.5
			C190.8,25.9,191.2,24.8,191.7,25.3z"/>
		<path class="st1" d="M173.5,114.6c-3.6,15.2,9.8,23.1,18.1,18.7c9-4.8,9.4-18.2,4.5-27.9c-0.6-1.2,0.6-2.9,1.4-2
			c1.6,1.6,2.8,3.6,3.6,5.7c8.3-6.7,14.3-17.9,15.9-31.5c1.8-15.7-3.2-31.2-10.5-42.6c-13.3-20.7-32.2-25.9-51.2-24.4
			C137,11.9,115.9,20,104.5,42c-11.6,22.4-4.8,52.7,10.2,68.1c16.3,16.7,36.7,15.9,55.7,11.8c-0.1-2.5,0.4-5.2,1.6-8.1
			C172.5,112.7,173.7,113.4,173.5,114.6z M191.6,137c-7,3.2-18.7-2.3-20.8-12.6c-22.6,7.2-50,4.7-65.8-22.4
			c-12.3-21.1-11.8-51,2.3-70c15.3-20.6,38.2-26.5,58.6-25.3c20.4,1.2,40.6,14.2,50,41.4c8,23.2,2.7,52.2-14,64.1
			C203.5,122.1,198.4,134,191.6,137z"/>
	</g>
	<g class="st6">
		<g>
			<g>
				<path class="st2" d="M138.7,50.8c0.1,1.5,0.6,7.1,1.6,16.8c0.7,7.2,1,13,0.8,17.3c-0.1,0.9-0.6,1.7-1.6,2.3
					c-1,0.6-2.2,0.9-3.6,0.9c-1.4,0-2.6-0.4-3.5-1c-0.9-0.7-1.4-1.4-1.3-2.3c0.2-4.3,0-9.9-0.7-16.6c-1.1-11-1.7-16.7-1.7-17
					c-0.1-0.9,0.4-1.7,1.3-2.3c0.9-0.7,2.1-1,3.5-1c1.4,0,2.6,0.3,3.6,0.9C138.1,49.1,138.7,49.8,138.7,50.8z"/>
				<path d="M136.1,88.9c-0.1,0-0.2,0-0.3,0c-1.6,0-2.9-0.4-4-1.2c-1.5-1-1.8-2.3-1.7-3.1c0.2-4.3,0-9.8-0.7-16.5
					c-1.7-16.5-1.7-16.9-1.7-17.1c-0.1-0.8,0.2-2,1.7-3.1c1.1-0.8,2.4-1.2,4-1.2c1.5,0,2.9,0.3,4.1,1c1.3,0.8,1.9,1.8,2,3
					c0.1,1.5,0.6,7.2,1.6,16.7c0.7,7.3,1,13.1,0.8,17.4c-0.1,1.2-0.8,2.2-2,3C138.9,88.5,137.6,88.9,136.1,88.9z M133.8,48.5
					c-0.1,0-0.1,0-0.2,0c-1.2,0-2.2,0.3-3,0.9c-0.9,0.6-1,1.2-0.9,1.6c0,0.3,0.2,2.3,1.7,17c0.7,6.7,0.9,12.4,0.7,16.7
					c0,0.4,0.1,0.9,0.9,1.6c0.8,0.6,1.8,0.8,3,0.9c1.2,0,2.2-0.2,3.1-0.7c0.7-0.5,1.1-1,1.2-1.6c0.2-4.2,0-10-0.7-17.1
					c-0.9-9.6-1.5-15.3-1.6-16.8l0,0c0-0.6-0.4-1.1-1.2-1.6C135.9,48.7,134.9,48.5,133.8,48.5z"/>
			</g>
			<g>
				<path class="st2" d="M179.4,61.3c-2-3.5-4.4-5.8-7.2-6.7c-2.2-0.8-4.5-0.7-7,0.3c-2.6,1.1-4.9,2.9-6.8,5.5
					c-1.9,2.6-3,5.5-3.1,8.7c-0.1,3.1,0.6,5.9,2.3,8.4c1.7,2.5,4,4.1,7,4.9c3.4,0.9,6.2,0.8,8.4-0.2c2.7-1.3,5.1-3.5,7.1-6.6
					c-3.7,0.4-5.7,0.7-5.9,0.7c-1.1,0.1-2.1-0.1-3-0.6c-0.9-0.6-1.4-1.3-1.5-2.2c-0.2-0.9,0.1-1.7,0.8-2.4c0.7-0.7,1.6-1.1,2.7-1.2
					c8.2-0.9,12.4-1.4,12.4-1.4c1.1-0.1,2.1,0.2,3,0.7c0.8,0.6,1.3,1.3,1.5,2.2c0,0.3,0,0.7-0.1,1c0.1,0.6,0.1,1.2-0.2,1.9
					c-3.2,6.6-7.4,11.1-12.8,13.6c-4.2,1.9-9.1,2.2-14.7,0.7c-2.6-0.7-5-1.7-7-3.1c-2-1.4-3.6-3.1-4.7-4.9c-1.1-1.8-2-3.7-2.5-5.7
					c-0.6-2-0.8-4-0.7-6c0.2-4.3,1.6-8.3,4.3-12c2.7-3.7,6.1-6.3,10.2-8c4.7-1.9,9.2-2,13.6-0.4c4.7,1.6,8.4,5,11.3,10.1
					c0.5,0.8,0.5,1.6,0.2,2.5c-0.4,0.9-1.1,1.5-2.1,1.9c-1,0.4-2,0.4-3.1,0.1C180.6,62.7,179.8,62.1,179.4,61.3z"/>
				<path d="M169,90.3c-2.2,0-4.6-0.3-7-1c-2.7-0.7-5.2-1.8-7.2-3.3c-2.1-1.5-3.8-3.2-4.9-5.1c-1.2-1.9-2.1-3.9-2.6-5.9
					c-0.6-2.1-0.9-4.2-0.8-6.2c0.2-4.5,1.7-8.6,4.5-12.4c2.8-3.8,6.3-6.6,10.6-8.2c4.8-1.9,9.6-2.1,14.2-0.4
					c4.8,1.7,8.8,5.2,11.7,10.4c0.6,1,0.7,2.1,0.2,3.2c-0.5,1.1-1.3,1.8-2.5,2.3c-1.2,0.4-2.4,0.5-3.6,0.1c-1.3-0.4-2.2-1.1-2.7-2.1
					c-1.9-3.3-4.2-5.5-6.7-6.3c-2-0.7-4.1-0.7-6.4,0.3c-2.5,1-4.7,2.8-6.5,5.2c-1.8,2.5-2.8,5.3-2.9,8.3c-0.1,2.9,0.6,5.6,2.2,7.9
					c1.6,2.3,3.7,3.8,6.5,4.5c3.2,0.8,5.8,0.8,7.9-0.1c2.1-1,4.1-2.6,5.8-4.9c-3.4,0.4-4,0.4-4.2,0.5c-1.3,0.2-2.5-0.1-3.5-0.8
					c-1.1-0.7-1.7-1.6-1.9-2.7c-0.2-1.1,0.2-2.2,1-3.1c0.8-0.8,1.9-1.3,3.1-1.5c12.4-1.4,12.4-1.4,12.5-1.4c1.2-0.1,2.4,0.2,3.4,0.9
					c1,0.7,1.7,1.6,1.8,2.8c0.1,0.4,0,0.8,0,1.2c0.1,0.7,0,1.5-0.3,2.2c-3.3,6.8-7.7,11.5-13.2,14C174.7,89.7,172,90.3,169,90.3z
					 M169.2,48.2c-2.4,0-4.8,0.5-7.2,1.4c-4,1.6-7.3,4.2-9.8,7.7c-2.6,3.5-4,7.4-4.1,11.5c-0.1,1.9,0.2,3.8,0.7,5.7
					c0.5,1.9,1.3,3.7,2.4,5.5c1.1,1.7,2.6,3.3,4.5,4.7c1.9,1.4,4.2,2.4,6.7,3c5.4,1.4,10.2,1.2,14.2-0.7c5.2-2.4,9.3-6.8,12.4-13.2
					c0.2-0.4,0.2-0.9,0.1-1.3l0-0.2l0-0.2c0.1-0.3,0.1-0.5,0.1-0.7c-0.1-0.7-0.5-1.2-1.1-1.6c-0.7-0.5-1.5-0.7-2.5-0.6
					c-0.2,0-6.1,0.7-12.4,1.4c-0.9,0.1-1.6,0.4-2.2,1c-0.5,0.5-0.7,1.1-0.6,1.7c0.1,0.7,0.5,1.2,1.2,1.6c0.7,0.5,1.5,0.6,2.4,0.5
					l0.1,0c0.1,0,1.1-0.1,5.8-0.6l1.7-0.2l-0.9,1.4c-2.1,3.2-4.6,5.6-7.5,6.9c-2.4,1.1-5.4,1.1-8.9,0.2c-3.2-0.8-5.7-2.6-7.5-5.2
					c-1.8-2.6-2.6-5.6-2.5-8.9c0.1-3.4,1.2-6.4,3.2-9.2c2-2.7,4.4-4.7,7.2-5.8c2.6-1.1,5.2-1.2,7.6-0.3c2.9,1,5.5,3.4,7.6,7.1l0,0
					c0.3,0.6,0.9,1.1,1.8,1.3c0.9,0.3,1.7,0.2,2.6-0.1c0.8-0.3,1.3-0.8,1.6-1.4c0.3-0.6,0.2-1.2-0.1-1.7c-2.8-4.9-6.4-8.1-10.9-9.7
					C173.2,48.5,171.2,48.2,169.2,48.2z"/>
			</g>
		</g>
	</g>
</g>
</svg>
