<?xml version="1.0" encoding="utf-8"?>
<!-- Generator: Adobe Illustrator 24.0.1, SVG Export Plug-In . SVG Version: 6.00 Build 0)  -->
<svg version="1.1" id="圖層_1" xmlns="http://www.w3.org/2000/svg" xmlns:xlink="http://www.w3.org/1999/xlink" x="0px" y="0px"
	 viewBox="0 0 100 100" style="enable-background:new 0 0 100 100;" xml:space="preserve">
<style type="text/css">
	.st0{display:none;}
	.st1{display:inline;}
	.st2{clip-path:url(#SVGID_2_);}
	.st3{fill:#FAAF5E;}
	.st4{fill:#683A32;}
	.st5{fill:#FFFFFF;}
	.st6{fill:#F78C8B;}
	.st7{fill:#804F21;}
	.st8{fill:#FFFBF4;}
	.st9{clip-path:url(#SVGID_4_);}
	.st10{display:inline;fill:#AEDFE8;}
	.st11{display:inline;fill:#F08FAB;}
	.st12{fill:#FFF7ED;}
	.st13{fill:#754C28;}
	.st14{display:inline;fill:#88E2E2;}
	.st15{display:inline;fill:#FC4C4C;}
	.st16{display:inline;fill:#FFFFFF;}
	.st17{fill:#E86B73;}
</style>
<g class="st0">
	<path class="st1" d="M50.4,99.1c-26.9,0-48.8-21.9-48.8-48.8c0-26.9,21.9-48.8,48.8-48.8c26.9,0,48.8,21.9,48.8,48.8
		C99.1,77.3,77.3,99.1,50.4,99.1z M50.4,4.1C24.9,4.1,4.1,24.9,4.1,50.4s20.7,46.2,46.2,46.2s46.2-20.7,46.2-46.2S75.9,4.1,50.4,4.1
		z"/>
	<g class="st1">
		<defs>
			<circle id="SVGID_3_" cx="50.4" cy="50.4" r="47.5"/>
		</defs>
		<clipPath id="SVGID_2_">
			<use xlink:href="#SVGID_3_"  style="overflow:visible;"/>
		</clipPath>
		<g class="st2">
			<g>
				<g>
					<path class="st3" d="M26.8,76.9c0,0-10.8,26.2,17.5,25c28.3-1.1,23-15.9,17.5-23.9L26.8,76.9z"/>
					<path class="st4" d="M42.6,102.9C42.6,102.9,42.6,102.9,42.6,102.9c-7.9,0-13.3-2.2-16.3-6.6c-5.2-7.7-0.6-19.2-0.4-19.7
						c0.1-0.4,0.5-0.6,0.9-0.6l35.1,1.2c0.3,0,0.6,0.2,0.7,0.4c2.5,3.7,6.4,10.9,3.4,16.7c-2.6,5.2-9.9,8.1-21.7,8.6
						C43.7,102.8,43.1,102.9,42.6,102.9z M27.4,77.8c-0.8,2.4-3.6,11.4,0.4,17.4c2.6,3.8,7.5,5.8,14.7,5.8c0,0,0,0,0,0
						c0.6,0,1.1,0,1.7,0c11-0.4,17.8-3,20.1-7.6c2.4-4.8-0.7-11-3-14.5L27.4,77.8z"/>
				</g>
				<g>
					<path class="st3" d="M28.7,74.5c0,0-11.8,13.3-10.8,22.4c1.1,9,15.7,7.5,15.7,7.5s2,1.6,5.9-0.1c0,0,2.7,1,3.6-0.3
						c0,0,4.7,2,2.5-4c-2.2-5.9-11.1-9.4-17.4-6.7"/>
					<path class="st4" d="M36.1,106c-1.3,0-2.3-0.4-2.7-0.6c-1,0.1-4.1,0.2-7.4-0.4c-5.4-1.1-8.5-3.8-9-7.9
						c-1.1-9.3,10.5-22.5,11-23.1c0.3-0.4,0.9-0.4,1.3-0.1c0.4,0.3,0.4,0.9,0.1,1.3c-0.1,0.1-11.5,13.1-10.5,21.6
						c0.9,8,14.5,6.7,14.7,6.7c0.2,0,0.5,0,0.7,0.2c0.1,0,1.7,1.2,4.9-0.3c0.2-0.1,0.5-0.1,0.7,0c0.8,0.3,2.2,0.5,2.6,0
						c0.3-0.4,0.7-0.5,1.1-0.3c0.5,0.2,1.4,0.4,1.6,0.1c0.2-0.2,0.3-1-0.4-2.9c-0.9-2.4-3.1-4.5-6.1-5.8c-3.4-1.5-7.2-1.6-10.1-0.4
						c-0.5,0.2-1,0-1.2-0.5c-0.2-0.5,0-1,0.5-1.2c3.4-1.4,7.7-1.3,11.5,0.4c3.5,1.5,6,4,7.1,6.9c0.9,2.4,0.9,4-0.1,4.9
						c-0.9,0.9-2.3,0.7-3,0.4c-1.2,0.9-3,0.5-3.8,0.3C38.2,105.8,37,106,36.1,106z"/>
				</g>
				<g>
					<path class="st3" d="M63.5,74.5c0,0,11.8,13.3,10.8,22.4c-1.1,9-15.7,7.5-15.7,7.5s-2,1.6-5.9-0.1c0,0-2.7,1-3.6-0.3
						c0,0-4.7,2-2.5-4c2.2-5.9,11.1-9.4,17.4-6.7"/>
					<path class="st4" d="M56.1,106c-0.9,0-2.1-0.2-3.4-0.7c-0.8,0.2-2.6,0.6-3.8-0.3c-0.8,0.2-2.1,0.4-3-0.4c-1-0.9-1-2.5-0.1-4.9
						c1.1-2.9,3.6-5.4,7.1-6.9c3.9-1.7,8.2-1.8,11.5-0.4c0.5,0.2,0.7,0.8,0.5,1.2c-0.2,0.5-0.8,0.7-1.2,0.5
						c-2.9-1.2-6.7-1.1-10.1,0.4c-3,1.3-5.2,3.4-6.1,5.8c-0.7,1.9-0.6,2.7-0.4,2.9c0.3,0.2,1.1,0.1,1.6-0.1c0.4-0.2,0.9,0,1.1,0.3
						c0.3,0.5,1.7,0.3,2.6,0c0.2-0.1,0.5-0.1,0.7,0c3.2,1.5,4.9,0.3,4.9,0.3c0.2-0.2,0.4-0.2,0.7-0.2c0.1,0,13.7,1.3,14.7-6.7
						c1-8.5-10.4-21.5-10.5-21.6c-0.3-0.4-0.3-1,0.1-1.3c0.4-0.3,1-0.3,1.3,0.1c0.5,0.6,12.1,13.8,11,23.1c-0.5,4.1-3.6,6.9-9,7.9
						c-3.3,0.6-6.4,0.5-7.4,0.4C58.4,105.6,57.5,106,56.1,106z"/>
				</g>
				<g>
					<path class="st5" d="M26.7,78.5c0,0-2,5.7,0.9,8.5l2.4-1.1c0,0-1.2,2.2,0.4,3.9l2.6-0.7c0,0,3.3,9.9,13,13
						c0,0,12.6-6.8,14.1-12.3l1.8,0.9c0,0,3.4-1.9,3.7-4.5l2.4,1.6c0,0,1.5-6.2-0.7-8.9C65.1,76.4,26.7,78.5,26.7,78.5z"/>
					<path class="st4" d="M46,103.1c-0.1,0-0.2,0-0.3,0c-8.5-2.7-12.3-10.2-13.3-12.8l-1.8,0.5c-0.3,0.1-0.7,0-0.9-0.3
						c-0.9-0.9-1.1-2-1.1-2.9L28,87.9c-0.3,0.2-0.8,0.1-1-0.2c-3.3-3.2-1.2-9.2-1.1-9.5c0.1-0.4,0.5-0.6,0.8-0.6
						c0.1,0,14.7-0.8,26.3-0.8c13.7,0,14.6,1.1,15.1,1.7c2.4,3,1,9,0.9,9.7c-0.1,0.3-0.3,0.5-0.6,0.6c-0.3,0.1-0.6,0.1-0.9-0.1
						l-1.4-0.9c-1,2.2-3.6,3.7-3.7,3.8c-0.3,0.2-0.6,0.2-0.9,0l-0.8-0.5C57.9,96.7,47,102.7,46.5,103C46.3,103,46.2,103.1,46,103.1z
						 M33,88.2c0.4,0,0.8,0.3,0.9,0.6c0,0.1,3.2,9.3,12,12.3c3.6-2,12.2-7.5,13.3-11.6c0.1-0.3,0.3-0.5,0.5-0.6
						c0.3-0.1,0.6-0.1,0.8,0l1.3,0.7c1-0.7,2.6-2.1,2.8-3.5c0-0.3,0.2-0.6,0.5-0.8c0.3-0.1,0.6-0.1,0.9,0.1l1.3,0.8
						c0.3-2,0.5-5.2-0.7-6.7c-0.3-0.3-2.3-1-13.6-1c-10.1,0-22.5,0.6-25.5,0.8c-0.4,1.3-1,4.5,0.4,6.5l1.8-0.8
						c0.4-0.2,0.8-0.1,1.1,0.2c0.3,0.3,0.3,0.7,0.1,1.1c0,0.1-0.7,1.3-0.1,2.4l2-0.5C32.8,88.2,32.9,88.2,33,88.2z"/>
				</g>
				<path class="st3" d="M53.3,37.6c0,0-22-5.4-32.1,19.8l2,0.5c0,0-3.7,4-3.9,8.3l2.9-0.7c0,0-1.9,5.4,0.3,10.6l0.9-1.3
					c0,0,4.2,12.4,22.1,13.1c17.8,0.7,23.7-6,26.2-10.6l2.1,2c0,0,2.3-6.3,1.1-11l1.9,1.8c0,0,4.8-10.5-4.4-21.7
					C62.4,36.4,55.3,38,53.3,37.6z"/>
				<g>
					<path class="st5" d="M22.5,76.1l0.9-1.3c0,0,4.2,12.4,22.1,13.1c17.8,0.7,23.7-6,26.2-10.6l2.1,2c0,0,2.3-6.3,1.1-11
						c0,0-3.3-0.5-4.8,3.1c-1.5,3.6-4.5,6-8.8-0.4s-9.1-5.7-9.1-5.7C47.8,60.3,58,38.1,58,38.1c-2.3-0.5-3.9-0.3-4.6-0.5
						c0,0-1.8-0.4-4.7-0.5c-0.7,21.6-7.5,26.3-7.5,26.3c-1.6-0.3-1.6-1.6-7.5,2.3c-5.9,3.9-6.8-1.4-7.4-4.5
						c-0.6-3.1-3.1-3.3-3.1-3.3s-3.7,4-3.9,8.3l2.9-0.7C22.2,65.5,20.3,70.9,22.5,76.1z"/>
				</g>
				<path class="st4" d="M47.9,88.9c-0.8,0-1.7,0-2.5,0c-9.5-0.4-15.2-4-18.3-7.1c-2-1.9-3.2-3.8-3.9-5.1c-0.2,0.3-0.5,0.4-0.8,0.3
					c-0.3,0-0.6-0.3-0.8-0.6c-1.6-3.8-1.2-7.6-0.7-9.7l-1.4,0.3c-0.3,0.1-0.6,0-0.8-0.2c-0.2-0.2-0.4-0.5-0.3-0.8
					c0.2-3.2,2.1-6.1,3.2-7.7L21,58.3c-0.3-0.1-0.5-0.2-0.6-0.5c-0.1-0.2-0.1-0.5,0-0.8c7.3-18.1,20.7-20.8,28-20.8
					c3,0,5,0.5,5.2,0.5c0.2,0,0.6,0.1,1,0.1c2.9,0.1,9.8,0.4,18.6,11.2c4.9,6,5.9,11.9,5.9,15.7c-0.1,4.2-1.3,6.9-1.3,7
					c-0.1,0.3-0.4,0.5-0.7,0.5c-0.3,0.1-0.6,0-0.8-0.2l0,0c0.1,4.2-1.4,8.6-1.5,8.8c-0.1,0.3-0.4,0.5-0.7,0.6
					c-0.3,0.1-0.6,0-0.9-0.2l-1.3-1.2c-1.6,2.6-3.8,4.6-6.5,6.2C61,87.6,55.1,88.9,47.9,88.9z M23.4,73.9c0,0,0.1,0,0.1,0
					c0.3,0.1,0.6,0.3,0.7,0.6c0,0,1.1,3,4.2,6c4.1,4,10,6.2,17,6.5c0.8,0,1.6,0,2.4,0c11.7,0,19.2-3.3,22.9-10.1
					c0.1-0.3,0.4-0.4,0.7-0.5c0.3,0,0.6,0,0.8,0.2l1,1c0.6-2.1,1.4-6,0.6-9c-0.1-0.4,0.1-0.8,0.4-1c0.4-0.2,0.8-0.2,1.1,0.1l0.9,0.8
					c0.3-1.1,0.7-2.9,0.7-5.1c0-5.1-1.8-9.9-5.5-14.4C63.4,39,57.4,38.8,54.4,38.6c-0.5,0-1,0-1.3-0.1c0,0,0,0,0,0
					c0,0-1.9-0.5-4.8-0.5c-6.7,0-18.9,2.5-25.8,18.7l1,0.2c0.3,0.1,0.6,0.3,0.7,0.6c0.1,0.3,0,0.7-0.2,0.9c0,0-2.7,3.1-3.5,6.5
					l1.6-0.4c0.3-0.1,0.7,0,0.9,0.3c0.2,0.3,0.3,0.6,0.2,0.9c0,0-1.4,4-0.3,8.3C23,74,23.2,73.9,23.4,73.9z"/>
				<g>
					<path class="st3" d="M77.9,60.4c9.5-4.4,12.4-25.9,6.6-32.5c-5.8-6.8-23.2,13.4-23.2,13.4"/>
					<path class="st4" d="M77.9,61.3c-0.4,0-0.7-0.2-0.9-0.5c-0.2-0.5,0-1,0.5-1.2c3.7-1.7,6.8-6.7,8.2-13.4
						c1.6-7.3,0.8-14.6-1.9-17.7c-0.6-0.7-1.4-1.1-2.4-1.1c0,0,0,0,0,0c-5.7,0-15.9,10.4-19.3,14.4c-0.3,0.4-0.9,0.4-1.3,0.1
						c-0.4-0.3-0.4-0.9-0.1-1.3c0.5-0.6,13.1-15.1,20.7-15.1c0,0,0,0,0,0c1.6,0,2.9,0.6,3.9,1.7c3.6,4.2,3.8,12.7,2.3,19.3
						c-1.6,7.3-5,12.7-9.3,14.7C78.1,61.3,78,61.3,77.9,61.3z"/>
				</g>
				<g>
					<path class="st6" d="M84.3,27.7c-8,1.2-12.9,13.3-12.9,13.3c1.9-0.2,3.1,2.8,3.1,2.8c-2.9-1-4.8,1.1-4.8,1.1
						c3.2,0.6,3.8,3.4,3.8,3.4c-2.5-0.9-3.8-0.4-3.8-0.4c5.8,4,8,12.6,8,12.6c9.5-4.4,12.4-25.9,6.6-32.5
						C84.5,27.8,84.4,27.7,84.3,27.7z"/>
					<path class="st4" d="M77.9,61.3c-0.1,0-0.3,0-0.4-0.1c-0.2-0.1-0.4-0.3-0.5-0.6c0,0,0,0,0,0c0-0.1-2.2-8.3-7.7-12
						c-0.3-0.2-0.4-0.5-0.4-0.9c0-0.3,0.3-0.6,0.6-0.8c0.1,0,0.6-0.2,1.5-0.2c0.3,0,0.5,0,0.8,0c-0.5-0.5-1.1-0.9-2.1-1.1
						c-0.3-0.1-0.6-0.3-0.7-0.6c-0.1-0.3,0-0.7,0.2-0.9c0.1-0.1,1.4-1.5,3.6-1.7c-0.4-0.4-0.8-0.7-1.2-0.6c-0.3,0-0.7-0.1-0.9-0.4
						c-0.2-0.3-0.3-0.6-0.1-0.9c0.2-0.5,5.1-12.6,13.6-13.8c0.3,0,0.6,0.1,0.8,0.3l0,0c0.1,0.1,0.1,0.1,0.2,0.2
						c3.6,4.2,3.8,12.7,2.3,19.3c-1.6,7.3-5,12.7-9.3,14.7C78.1,61.3,78,61.3,77.9,61.3z M72.5,48.8c3.4,3.4,5.3,8.1,6,10.2
						c3.3-2.1,5.9-6.8,7.3-12.9c1.5-7.1,0.8-14.2-1.7-17.5c-5.8,1.2-9.8,8.7-11.2,11.6c1.6,0.7,2.5,2.8,2.7,3.1
						c0.1,0.3,0.1,0.7-0.2,1c-0.3,0.3-0.6,0.4-1,0.2c-0.4-0.1-0.8-0.2-1.2-0.2c-0.4,0-0.8,0.1-1.1,0.2c2.1,1.2,2.6,3.3,2.6,3.4
						c0.1,0.3,0,0.7-0.3,0.9c-0.3,0.2-0.6,0.3-0.9,0.2C73,48.9,72.7,48.9,72.5,48.8z"/>
				</g>
				<g>
					<path class="st3" d="M23.5,52.8c-7.8-6.9-4.4-28.3,3.1-33.1c7.6-4.8,18.3,19.5,18.3,19.5"/>
					<path class="st4" d="M23.5,53.7c-0.2,0-0.4-0.1-0.6-0.2c-3.5-3.1-5.2-9.2-4.6-16.7c0.5-6.7,3.2-14.9,7.8-17.8
						c1.3-0.8,2.7-1,4.2-0.5c7.3,2.2,15.2,19.7,15.5,20.4c0.2,0.5,0,1-0.5,1.2c-0.5,0.2-1,0-1.2-0.5c-2.1-4.8-8.9-17.8-14.3-19.4
						c-1-0.3-1.8-0.2-2.6,0.3c-3.5,2.2-6.3,9-6.9,16.4c-0.5,6.8,1,12.5,4,15.2c0.4,0.3,0.4,0.9,0.1,1.3C24,53.6,23.7,53.7,23.5,53.7
						z"/>
				</g>
				<g>
					<path class="st6" d="M26.7,19.6C34.1,23,35.2,36,35.2,36c-1.7-0.8-3.8,1.7-3.8,1.7c3.1-0.1,4.3,2.4,4.3,2.4
						c-3.2-0.4-4.6,2.1-4.6,2.1c2.6-0.2,3.8,0.7,3.8,0.7c-6.7,2.2-11.3,9.7-11.3,9.7c-7.8-6.9-4.4-28.3,3-33.1
						C26.6,19.6,26.7,19.6,26.7,19.6z"/>
					<path class="st4" d="M23.5,53.7c-0.2,0-0.4-0.1-0.6-0.2c-3.5-3.1-5.2-9.2-4.6-16.7c0.5-6.7,3.2-14.9,7.8-17.8
						c0.1,0,0.1-0.1,0.2-0.1l0,0c0.3-0.1,0.6-0.2,0.9,0c7.7,3.6,9,16.6,9,17.2c0,0.3-0.1,0.7-0.4,0.8c-0.3,0.2-0.6,0.2-0.9,0.1
						c-0.4-0.2-0.8,0-1.3,0.3c2.1,0.8,2.9,2.6,3,2.6c0.1,0.3,0.1,0.7-0.1,0.9c-0.2,0.3-0.5,0.4-0.9,0.4c-0.2,0-0.4,0-0.5,0
						c-0.7,0-1.3,0.2-1.8,0.4c1.4,0.2,2,0.7,2.1,0.8c0.3,0.2,0.4,0.6,0.3,0.9c-0.1,0.3-0.3,0.6-0.6,0.7c-6.3,2-10.8,9.2-10.8,9.3
						c-0.1,0.2-0.4,0.4-0.7,0.4C23.6,53.7,23.5,53.7,23.5,53.7z M26.8,20.6c-3.4,2.4-6.1,9-6.7,16.2c-0.5,6.2,0.7,11.5,3.2,14.4
						c1.3-1.8,4.4-5.8,8.7-8c-0.3,0-0.6,0-0.9,0c-0.3,0-0.7-0.1-0.8-0.4c-0.2-0.3-0.2-0.7,0-1c0.1-0.1,1.1-2,3.5-2.5
						c-0.5-0.4-1.3-0.7-2.3-0.7c-0.4,0-0.7-0.2-0.9-0.5c-0.2-0.3-0.1-0.7,0.1-1c0.2-0.2,1.7-2,3.4-2.2C33.7,31.9,32,23.5,26.8,20.6z
						"/>
				</g>
				<path class="st3" d="M74.3,96.9c-1.1,9-15.7,7.5-15.7,7.5s-2,1.6-5.9-0.1c0,0-2.7,1-3.6-0.3c0,0-4.7,2-2.5-4
					c2.2-5.9,11.1-9.4,17.4-6.7"/>
				<g>
					<path class="st5" d="M63,99.8c-1.4-2.6-1.1-6.7-5.5-7.4c-4.8,0.6-9.4,3.5-10.9,7.5c-2.2,6,2.5,4,2.5,4c0.9,1.3,3.6,0.3,3.6,0.3
						c3.9,1.7,5.9,0.1,5.9,0.1s7.9,0.8,12.5-2.3C70.5,102.1,64.5,102.5,63,99.8z"/>
				</g>
				<path class="st4" d="M56.1,106c-0.9,0-2.1-0.2-3.4-0.7c-0.8,0.2-2.6,0.6-3.8-0.3c-0.8,0.2-2.1,0.4-3-0.4c-1-0.9-1-2.5-0.1-4.9
					c1.1-2.9,3.6-5.4,7.1-6.9c3.9-1.7,8.2-1.8,11.5-0.4c0.5,0.2,0.7,0.8,0.5,1.2c-0.2,0.5-0.8,0.7-1.2,0.5
					c-2.9-1.2-6.7-1.1-10.1,0.4c-3,1.3-5.2,3.4-6.1,5.8c-0.7,1.9-0.6,2.7-0.4,2.9c0.3,0.2,1.1,0.1,1.6-0.1c0.4-0.2,0.9,0,1.1,0.3
					c0.3,0.5,1.7,0.3,2.6,0c0.2-0.1,0.5-0.1,0.7,0c3.2,1.5,4.9,0.3,4.9,0.3c0.2-0.2,0.4-0.2,0.7-0.2c0.1,0,13.7,1.3,14.7-6.7
					c0.1-0.5,0.5-0.9,1-0.8c0.5,0.1,0.9,0.5,0.8,1c-0.5,4.1-3.6,6.9-9,7.9c-3.3,0.6-6.4,0.5-7.4,0.4C58.4,105.6,57.5,106,56.1,106z"
					/>
				<path class="st3" d="M17.9,96.9c1.1,9,15.7,7.5,15.7,7.5s2,1.6,5.9-0.1c0,0,2.7,1,3.6-0.3c0,0,4.7,2,2.5-4
					c-2.2-5.9-11.1-9.4-17.4-6.7"/>
				<g>
					<path class="st5" d="M43.1,103.9c0,0,4.7,2,2.5-4c-1.5-4-6.1-6.9-10.9-7.5c-4.4,0.7-4.1,4.8-5.5,7.4c-1.6,2.8-8.2,2.2-8.2,2.2
						c4.6,3.2,12.6,2.4,12.6,2.4s2,1.6,5.9-0.1C39.5,104.3,42.1,105.2,43.1,103.9z"/>
				</g>
				<path class="st4" d="M36.1,106c-1.3,0-2.3-0.4-2.7-0.6c-1,0.1-4.1,0.2-7.4-0.4c-5.4-1.1-8.5-3.8-9-7.9c-0.1-0.5,0.3-1,0.8-1
					c0.5-0.1,1,0.3,1,0.8c0.9,8,14.5,6.7,14.7,6.7c0.2,0,0.5,0,0.7,0.2c0.1,0,1.7,1.2,4.9-0.3c0.2-0.1,0.5-0.1,0.7,0
					c0.8,0.3,2.2,0.5,2.6,0c0.3-0.4,0.7-0.5,1.1-0.3c0.5,0.2,1.4,0.4,1.6,0.1c0.2-0.2,0.3-1-0.4-2.9c-0.9-2.4-3.1-4.5-6.1-5.8
					c-3.4-1.5-7.2-1.6-10.1-0.4c-0.5,0.2-1,0-1.2-0.5c-0.2-0.5,0-1,0.5-1.2c3.4-1.4,7.7-1.3,11.5,0.4c3.5,1.5,6,4,7.1,6.9
					c0.9,2.4,0.9,4-0.1,4.9c-0.9,0.9-2.3,0.7-3,0.4c-1.2,0.9-3,0.5-3.8,0.3C38.2,105.8,37,106,36.1,106z"/>
				<g>
					<path class="st4" d="M52.3,65.9c-0.5,2.8-3.5,5-6.7,4.5c-3.2-0.5-5.3-3.6-4.9-6.4c0.5-2.8,3.2-3.1,6.3-2.6
						C50.3,61.9,52.7,63.1,52.3,65.9z"/>
				</g>
				<g>
					<circle class="st4" cx="36.9" cy="56.5" r="3.8"/>
				</g>
				<g>
					<path class="st4" d="M36.9,67.8c0.1,0.5,0.2,1,0.4,1.4c0.1,0.2,0.2,0.4,0.3,0.7c0,0.1,0.1,0.2,0.2,0.3c0.1,0.1,0.1,0.2,0.2,0.3
						c0.1,0.2,0.2,0.4,0.4,0.5c0.1,0.2,0.3,0.3,0.4,0.5c0.1,0.1,0.2,0.1,0.2,0.2c0.1,0.1,0.2,0.1,0.3,0.2c0.2,0.1,0.4,0.2,0.5,0.3
						l0.3,0.1l0.3,0.1c0.1,0,0.2,0,0.3,0.1l0.2,0l0.2,0c0.1,0,0.2,0,0.3,0c0.1,0,0.2,0,0.3,0c0.2,0,0.4,0,0.6,0c0.2,0,0.4,0,0.7-0.1
						c0.2,0,0.4-0.1,0.7-0.1c0.2,0,0.4-0.1,0.7-0.1l0.7-0.2c0.4-0.1,0.7,0,0.9,0.3l0,0c0,0,0.1,0.1,0.2,0.2c0.1,0.1,0.2,0.1,0.2,0.2
						c0.2,0.1,0.3,0.3,0.5,0.4c0.2,0.1,0.4,0.3,0.5,0.4c0.2,0.1,0.4,0.2,0.6,0.3c0.1,0.1,0.2,0.1,0.3,0.1c0.1,0,0.2,0.1,0.3,0.1
						c0.1,0,0.2,0.1,0.3,0.1c0.1,0,0.2,0.1,0.3,0.1c0.1,0,0.2,0.1,0.3,0.1c0.1,0,0.2,0.1,0.3,0.1c0.2,0,0.4,0.1,0.6,0.1
						c0.1,0,0.2,0,0.3,0l0.3,0c0.1,0,0.2,0,0.3,0c0.1,0,0.2,0,0.3-0.1c0.2,0,0.4-0.1,0.6-0.2c0.2-0.1,0.4-0.2,0.6-0.3
						c0.1-0.1,0.2-0.1,0.3-0.2l0.3-0.2l0.2-0.1l0.1-0.1l0.3-0.2c0.2-0.1,0.4-0.3,0.6-0.4c0.2-0.2,0.4-0.3,0.6-0.5
						c-0.1,0.2-0.2,0.4-0.4,0.7c-0.1,0.2-0.3,0.4-0.4,0.6l-0.2,0.3L54,74l-0.1,0.1l-0.3,0.3c-0.1,0.1-0.2,0.2-0.3,0.3
						c-0.2,0.2-0.4,0.3-0.6,0.5c-0.2,0.1-0.5,0.3-0.7,0.4c-0.2,0.1-0.5,0.2-0.8,0.3l-0.4,0.1c-0.1,0-0.3,0-0.4,0.1
						c-0.3,0-0.6,0-0.8,0c-0.1,0-0.3,0-0.4,0c-0.1,0-0.3,0-0.4-0.1c-0.1,0-0.3-0.1-0.4-0.1c-0.1,0-0.3-0.1-0.4-0.1
						c-0.1,0-0.3-0.1-0.4-0.1c-0.1,0-0.3-0.1-0.4-0.2c-0.1-0.1-0.2-0.1-0.4-0.2c-0.1-0.1-0.2-0.1-0.4-0.2c-0.2-0.1-0.5-0.3-0.7-0.4
						c-0.2-0.2-0.4-0.3-0.6-0.5c-0.1-0.1-0.2-0.2-0.3-0.3c-0.1-0.1-0.2-0.2-0.3-0.3l0.9,0.3l-0.8,0.2c-0.3,0.1-0.5,0.1-0.8,0.1
						c-0.3,0-0.5,0.1-0.8,0.1c-0.3,0-0.5,0-0.8,0c-0.3,0-0.5,0-0.8,0l-0.4-0.1c-0.1,0-0.3-0.1-0.4-0.1l-0.2,0l-0.2-0.1
						c-0.1,0-0.3-0.1-0.4-0.1l-0.4-0.2l-0.4-0.2c-0.2-0.1-0.5-0.3-0.7-0.5c-0.2-0.2-0.4-0.4-0.6-0.6c-0.2-0.2-0.3-0.5-0.5-0.7
						c-0.1-0.2-0.2-0.5-0.3-0.7c0-0.1-0.1-0.3-0.1-0.4c0-0.1-0.1-0.3-0.1-0.4c0-0.3-0.1-0.5-0.1-0.8c0-0.3,0-0.5,0-0.8
						C36.8,68.3,36.9,68,36.9,67.8z"/>
				</g>
				<g>
					<path class="st4" d="M45.1,73.8c-0.5,0-0.9-0.4-0.9-0.9c0-0.1-0.1-2.4,1.7-5.2c0.3-0.4,0.9-0.6,1.3-0.3
						c0.4,0.3,0.6,0.9,0.3,1.3c-1.4,2.2-1.4,4-1.4,4.1C46.1,73.3,45.7,73.7,45.1,73.8C45.2,73.8,45.2,73.8,45.1,73.8z"/>
				</g>
				<g>
					<path class="st4" d="M63,64.2c-0.3,0-0.7-0.2-0.8-0.5c-0.9-1.7-4.4-2.1-5.6-2.2c-0.4,0-0.7-0.3-0.9-0.6c-0.1-0.4,0-0.8,0.3-1
						c3.3-2.8,8.1-1.9,8.3-1.9c0.5,0.1,0.8,0.6,0.7,1.1c-0.1,0.5-0.6,0.8-1.1,0.7l0,0c0,0-2.2-0.4-4.3,0.2c1.6,0.4,3.4,1.2,4.3,2.8
						c0.2,0.5,0.1,1-0.4,1.3C63.3,64.2,63.1,64.2,63,64.2z"/>
				</g>
				<g>
					<path class="st4" d="M52,104.9C52,104.9,52,104.9,52,104.9C52,104.8,52,104.8,52,104.9c-0.1-0.1-0.1-0.1-0.1-0.2
						c0,0,0-0.1-0.1-0.1c0-0.1-0.1-0.2-0.1-0.3c0-0.1-0.1-0.3-0.1-0.4c0-0.1-0.1-0.3-0.1-0.5c0-0.1,0-0.2,0-0.3c0-0.1,0-0.2,0-0.3
						c0-0.1,0-0.2,0-0.3c0-0.1,0-0.2,0.1-0.3c0-0.2,0.1-0.4,0.2-0.6c0.1-0.2,0.2-0.3,0.3-0.5c0.1-0.1,0.2-0.3,0.3-0.4
						c0.1-0.1,0.2-0.2,0.4-0.3c0.1-0.1,0.2-0.2,0.3-0.2c0.1,0,0.1-0.1,0.2-0.1c0.1,0,0.1-0.1,0.1-0.1c0.1,0,0.2-0.1,0.2-0.1
						c0.1-0.1,0.2-0.1,0.2-0.1s-0.1,0.1-0.2,0.2c0,0.1-0.1,0.1-0.2,0.2c0,0-0.1,0.1-0.1,0.1c0,0-0.1,0.1-0.1,0.1
						c-0.1,0.1-0.1,0.2-0.2,0.3c-0.1,0.1-0.1,0.2-0.2,0.4c-0.1,0.1-0.1,0.3-0.1,0.4c0,0.1,0,0.3-0.1,0.4c0,0.1,0,0.3,0,0.4
						c0,0.1,0,0.1,0,0.2c0,0.1,0,0.1,0.1,0.2c0,0.1,0,0.1,0.1,0.2c0,0.1,0,0.1,0.1,0.1c0.1,0.1,0.1,0.2,0.2,0.3
						c0.1,0.1,0.1,0.1,0.2,0.2c0.1,0.1,0.1,0.1,0.1,0.1c0,0,0,0,0,0c0,0,0,0,0,0c0,0,0,0,0,0c0,0,0,0,0,0l0,0
						c0.4,0.3,0.4,0.9,0.1,1.3c-0.3,0.4-0.9,0.4-1.3,0.1C52.2,105,52.1,105,52,104.9z"/>
				</g>
				<g>
					<path class="st4" d="M48.3,104.3C48.3,104.3,48.3,104.3,48.3,104.3c0-0.1,0-0.1,0-0.2c0,0,0-0.1,0-0.1c0-0.2-0.1-0.4-0.1-0.7
						c0-0.1,0-0.3,0-0.5c0-0.2,0-0.3,0.1-0.5c0-0.1,0-0.2,0.1-0.3c0-0.1,0-0.2,0.1-0.3c0-0.1,0.1-0.2,0.1-0.3c0-0.1,0.1-0.2,0.1-0.2
						c0.1-0.2,0.2-0.3,0.3-0.4c0.1-0.1,0.3-0.2,0.4-0.4c0.1-0.1,0.3-0.2,0.4-0.3c0.1-0.1,0.3-0.1,0.4-0.2c0.1-0.1,0.2-0.1,0.3-0.1
						c0.1,0,0.2-0.1,0.2-0.1c0.1,0,0.2-0.1,0.2-0.1s-0.1,0-0.2,0.1c-0.1,0-0.1,0.1-0.2,0.2c-0.1,0.1-0.2,0.1-0.2,0.2
						c-0.1,0.1-0.2,0.2-0.2,0.3c-0.1,0.1-0.2,0.2-0.2,0.3c-0.1,0.1-0.1,0.2-0.2,0.4c0,0.1-0.1,0.3-0.1,0.4c0,0.1,0,0.1,0,0.2
						c0,0.1,0,0.1,0,0.2c0,0.1,0,0.1,0,0.2c0,0.1,0,0.1,0,0.2c0,0.1,0,0.2,0.1,0.3c0,0.1,0.1,0.2,0.1,0.3c0.1,0.2,0.2,0.3,0.2,0.4
						c0,0,0,0,0,0.1c0,0,0,0,0,0c0,0,0,0,0,0c0.2,0.5,0,1-0.5,1.2C49,105,48.5,104.8,48.3,104.3z"/>
				</g>
				<g>
					<path class="st4" d="M38.7,103.7C38.7,103.7,38.7,103.7,38.7,103.7C38.8,103.6,38.8,103.6,38.7,103.7
						C38.8,103.6,38.8,103.6,38.7,103.7c0.1-0.1,0.1-0.1,0.1-0.1c0,0,0.1-0.1,0.1-0.1c0-0.1,0.1-0.1,0.2-0.2
						c0.1-0.1,0.1-0.2,0.2-0.3c0,0,0-0.1,0.1-0.1c0-0.1,0.1-0.1,0.1-0.2c0-0.1,0-0.1,0.1-0.2c0-0.1,0-0.1,0-0.2c0-0.1,0-0.3,0-0.4
						c0-0.1,0-0.3-0.1-0.4c0-0.1-0.1-0.3-0.1-0.4c-0.1-0.1-0.1-0.3-0.2-0.4c-0.1-0.1-0.2-0.2-0.2-0.3c0,0-0.1-0.1-0.1-0.1
						c0,0-0.1-0.1-0.1-0.1c-0.1-0.1-0.1-0.1-0.2-0.2c-0.1-0.1-0.2-0.2-0.2-0.2s0.1,0,0.2,0.1c0.1,0,0.1,0.1,0.2,0.1
						c0,0,0.1,0,0.1,0.1c0,0,0.1,0.1,0.2,0.1c0.1,0.1,0.2,0.2,0.3,0.2c0.1,0.1,0.2,0.2,0.4,0.3c0.1,0.1,0.2,0.3,0.3,0.4
						c0.1,0.1,0.2,0.3,0.3,0.5c0.1,0.2,0.2,0.4,0.2,0.6c0,0.1,0,0.2,0.1,0.3c0,0.1,0,0.2,0,0.3c0,0.1,0,0.2,0,0.3c0,0.1,0,0.2,0,0.3
						c0,0.2-0.1,0.3-0.1,0.5c0,0.2-0.1,0.3-0.1,0.4c0,0.1-0.1,0.2-0.1,0.3c0,0,0,0.1-0.1,0.1c0,0,0,0.1-0.1,0.1c0,0,0,0,0,0.1
						c0,0,0,0,0,0c-0.3,0.5-0.8,0.6-1.3,0.4c-0.5-0.3-0.6-0.8-0.4-1.3C38.6,103.8,38.6,103.7,38.7,103.7L38.7,103.7z"/>
				</g>
				<g>
					<path class="st4" d="M42.2,103.5C42.2,103.6,42.2,103.5,42.2,103.5C42.3,103.5,42.3,103.5,42.2,103.5c0.1-0.1,0.1-0.1,0.1-0.1
						c0.1-0.1,0.1-0.2,0.2-0.4c0-0.1,0.1-0.2,0.1-0.3c0-0.1,0.1-0.2,0.1-0.3c0-0.1,0-0.1,0-0.2c0-0.1,0-0.1,0-0.2c0-0.1,0-0.1,0-0.2
						c0-0.1,0-0.1,0-0.2c0-0.1-0.1-0.3-0.1-0.4c0-0.1-0.1-0.2-0.2-0.4c-0.1-0.1-0.2-0.2-0.2-0.3c-0.1-0.1-0.2-0.2-0.2-0.3
						c-0.1-0.1-0.2-0.2-0.2-0.2c-0.1-0.1-0.1-0.1-0.2-0.2c-0.1-0.1-0.2-0.1-0.2-0.1s0.1,0,0.2,0.1c0.1,0,0.2,0,0.2,0.1
						c0.1,0,0.2,0.1,0.3,0.1c0.1,0.1,0.2,0.1,0.4,0.2c0.1,0.1,0.3,0.2,0.4,0.3c0.1,0.1,0.3,0.2,0.4,0.4c0.1,0.1,0.2,0.3,0.3,0.4
						c0,0.1,0.1,0.2,0.1,0.2c0,0.1,0.1,0.2,0.1,0.3c0,0.1,0.1,0.2,0.1,0.3c0,0.1,0.1,0.2,0.1,0.3c0,0.2,0.1,0.3,0.1,0.5
						c0,0.2,0,0.3,0,0.5c0,0.3,0,0.5-0.1,0.7c0,0,0,0.1,0,0.1c0,0,0,0.1,0,0.1c0,0.1,0,0.1,0,0.1c-0.2,0.5-0.8,0.7-1.2,0.5
						C42.2,104.6,42,104,42.2,103.5z"/>
				</g>
			</g>
			<g>
				
					<ellipse transform="matrix(0.1067 -0.9943 0.9943 0.1067 -23.2117 87.1464)" class="st7" cx="36.9" cy="56.5" rx="3.7" ry="3.7"/>
				<g>
					<path class="st8" d="M38,56.2c1.2,0,1.2-1.8,0-1.8C36.8,54.4,36.8,56.2,38,56.2L38,56.2z"/>
				</g>
			</g>
		</g>
	</g>
</g>
<g>
	<path d="M50.4,99.1c-26.9,0-48.8-21.9-48.8-48.8S23.5,1.6,50.4,1.6s48.8,21.9,48.8,48.8S77.3,99.1,50.4,99.1z M50.4,4.1
		C24.9,4.1,4.1,24.9,4.1,50.4c0,25.5,20.7,46.2,46.2,46.2c25.5,0,46.2-20.7,46.2-46.2C96.6,24.9,75.9,4.1,50.4,4.1z"/>
	<g>
		<defs>
			<circle id="SVGID_1_" cx="50.4" cy="50.4" r="47.5"/>
		</defs>
		<clipPath id="SVGID_4_">
			<use xlink:href="#SVGID_1_"  style="overflow:visible;"/>
		</clipPath>
		<path class="st9" d="M85.7,27.9c-0.2-0.2-0.3-0.5-0.5-0.7c-0.1-0.1-0.1-0.1-0.2-0.2l0,0c0,0,0,0,0,0c-1-1-2.2-1.5-3.6-1.5
			c0,0,0,0,0,0c-6.1,0-15.3,9.1-19,13.2c-3.5-1.7-6.2-1.9-7.8-1.9c-0.4,0-0.8,0-1-0.1c-0.2-0.1-2.2-0.5-5.2-0.5
			c-1.1,0-2.4,0.1-3.7,0.2c-2.5-5-8.6-16.3-14.4-18c-1.4-0.4-2.7-0.3-3.9,0.4c0,0,0,0,0,0l0,0c-0.1,0-0.2,0.1-0.2,0.1
			c-0.5,0.3-1,0.7-1.5,1.2c0,0-0.1,0.1-0.1,0.1c-0.1,0.1-0.1,0.1-0.1,0.2c-0.7,0.7-1.4,1.6-2,2.6c-2.3,3.8-3.7,9.1-4,13.7
			c-0.6,7.1,0.9,12.9,4,16.2c-0.7,1.3-1.3,2.7-1.9,4.2c-0.1,0.3-0.1,0.5,0,0.8c0.1,0.2,0.3,0.4,0.6,0.5l0.6,0.2
			c-1.2,1.6-3,4.6-3.2,7.7c0,0.3,0.1,0.6,0.3,0.8c0.2,0.2,0.5,0.3,0.8,0.2l1.4-0.3c-0.4,2.1-0.9,5.9,0.7,9.7
			c0.1,0.3,0.4,0.5,0.8,0.6c0.3,0,0.6-0.1,0.8-0.3c0.3,0.5,0.6,1.1,1.1,1.8C20.9,83.4,16.3,91,17,97c0.5,4.1,3.6,6.9,9,7.9
			c0.8,0.2,1.7,0.3,2.5,0.4c2.3,0.2,4.2,0.1,4.9,0.1c0.5,0.3,1.4,0.6,2.7,0.6c0.9,0,2-0.2,3.2-0.7c0.1,0,0.2,0,0.4,0
			c0.2,0,0.4,0.1,0.6,0.1c0.9,0.2,2.2,0.2,3.1-0.4c0.7,0.2,1.9,0.4,2.8-0.2c0.9,0.6,2.1,0.4,2.8,0.2c1.1,0.8,2.8,0.5,3.7,0.3
			c0.1,0,0.3,0.1,0.4,0c1.2,0.5,2.3,0.7,3.2,0.7c1.3,0,2.3-0.4,2.7-0.6c1,0.1,4.1,0.2,7.4-0.4c5.4-1.1,8.5-3.8,9-7.9
			c0.6-4.9-2.4-10.9-5.3-15.5c0.7-0.8,1.4-1.7,2-2.6l1.3,1.2c0.2,0.2,0.6,0.3,0.9,0.2c0.3-0.1,0.6-0.3,0.7-0.6
			c0.1-0.2,1.6-4.6,1.5-8.8l0,0c0.2,0.2,0.5,0.3,0.8,0.2c0.3-0.1,0.5-0.3,0.7-0.5c0.1-0.1,1.3-2.9,1.3-7c0-0.8,0-1.7-0.1-2.7
			c4-2.2,7.1-7.4,8.7-14.4C88.9,40.3,88.8,32.3,85.7,27.9z"/>
	</g>
</g>
<g class="st0">
	<path class="st10" d="M75.1,19.4l4.3,1.9l-0.2,0.5l-4,59.2L65.3,97c0,0-0.1,0-0.1,0C65.5,78.8,70.1,49.6,75.1,19.4z"/>
	<path class="st10" d="M75.1,81l10.6,15c-0.3,0.8-9,1-20.4,0.9L75.1,81z"/>
	<path class="st10" d="M82,22.5c1.1,0.9,4.6,71.2,3.7,73.6L75.1,81l4-59.2l0.2-0.5L82,22.5z"/>
	<path class="st11" d="M56,46.9c8.4,5.9-4.9,25.1-15.9,25.1s-16.9-22-9-26s11,9.2,11,9.2S47.6,41.1,56,46.9z"/>
	<path class="st10" d="M75.1,19.4c-4.9,30.1-9.5,59.3-9.9,77.6c-21.8-0.2-53.2-1.7-54.3-2.4c-1.6-1.1,7.3-71.5,10.3-73
		S71.6,19.5,75.1,19.4z M40.1,72.1c11.1,0,24.4-19.2,15.9-25.1s-13.9,8.2-13.9,8.2S39,42,31.1,46S29,72.1,40.1,72.1z"/>
	<g class="st1">
		<path class="st12" d="M11.2,91.3c9,0.2,17.9,0.5,26.9,0.8c8.9,0.3,18,0.1,26.9,1.2c1.1,0.1,1.1-1.6,0-1.7
			c-8.8-1.1-18-0.9-26.9-1.2c-9-0.3-17.9-0.6-26.9-0.8C10.1,89.6,10.1,91.3,11.2,91.3L11.2,91.3z"/>
	</g>
	<g class="st1">
		<path class="st12" d="M11.3,85.1c18.1,2.7,36.5,0.2,54.6,1.8c1.1,0.1,1.1-1.6,0-1.7c-18-1.7-36.3,0.9-54.2-1.8
			C10.7,83.3,10.3,85,11.3,85.1L11.3,85.1z"/>
	</g>
	<g class="st1">
		<path class="st13" d="M65.2,86.6c1.3,1,2.6,1.9,4,2.9c0.5,0.4,1.1-0.5,0.5-0.9c-1.3-1-2.6-1.9-4-2.9
			C65.1,85.4,64.6,86.3,65.2,86.6L65.2,86.6z"/>
	</g>
	<g class="st1">
		<path class="st13" d="M66.3,83.5c1.9,1.3,3.7,2.5,5.6,3.8c0.5,0.4,1.1-0.5,0.5-0.9c-1.9-1.3-3.7-2.5-5.6-3.8
			C66.3,82.2,65.8,83.1,66.3,83.5L66.3,83.5z"/>
	</g>
	<g class="st1">
		<path class="st13" d="M66.7,79.7c2.3,1.3,4.5,2.7,6.8,4c0.6,0.3,1.1-0.5,0.5-0.9c-2.3-1.3-4.5-2.7-6.8-4
			C66.7,78.4,66.1,79.3,66.7,79.7L66.7,79.7z"/>
	</g>
	<g class="st1">
		<path class="st13" d="M66.2,74.8c2.9,1.8,5.9,3.6,8.8,5.4c0.6,0.3,1.1-0.5,0.5-0.9c-2.9-1.8-5.9-3.6-8.8-5.4
			C66.1,73.6,65.6,74.5,66.2,74.8L66.2,74.8z"/>
	</g>
	<g class="st1">
		<path class="st12" d="M21.6,34.1c-1.4,6-2.6,12-3.5,18.1c-0.2,1.1,1.5,1.5,1.6,0.4c0.9-6.1,2.1-12.1,3.5-18.1
			C23.4,33.4,21.8,33,21.6,34.1L21.6,34.1z"/>
	</g>
	<g class="st1">
		<path class="st12" d="M17.2,58.7c0,0.2,0,0.3,0,0.5c0,1.1,1.7,1.1,1.7,0c0-0.2,0-0.3,0-0.5C18.9,57.7,17.2,57.7,17.2,58.7
			L17.2,58.7z"/>
	</g>
	<g class="st1">
		<path class="st13" d="M20.7,20.9c-1.7,1.1-2,4.9-2.3,6.6c-1.1,5.3-2,10.7-2.8,16.1c-2,12.9-3.7,25.8-5,38.7
			c-0.4,3.6-1.1,7.5-0.7,11.2c0.2,2,1.1,2,2.9,2.2c10.6,1.2,21.4,1.3,32.1,1.6c11.9,0.4,23.9,0.9,35.8,0.3c1.6-0.1,5,0.2,5.9-1.4
			c1-1.8,0.2-5.9,0.1-7.8C86.4,75.7,85.7,63,85,50.2c-0.3-6-0.7-12-1.1-18.1c-0.2-2.7,0.2-7-0.9-9.5c-0.5-1.1-1.3-1.2-2.4-1.7
			c-1.8-0.8-3.8-2.1-5.7-2.3c-4-0.6-8.7,0.1-12.8,0.2c-12.6,0.3-25.4,0.2-37.9,1.5C23,20.4,21.8,20.5,20.7,20.9
			c-1,0.4-0.1,1.9,0.9,1.5c3-1.3,7.8-0.8,10.9-1c6.3-0.3,12.6-0.5,18.9-0.7c5.9-0.2,11.7-0.3,17.6-0.4c1.7,0,3.4-0.1,5.1-0.1
			c1.2,0,2.3,0.6,4,1.4c0.9,0.4,2.6,0.8,3.3,1.5c-0.1-0.1-0.2-0.3,0,0.4c0.3,1.2,0.3,2.6,0.4,3.8c0.4,4.7,0.7,9.4,1,14.2
			c0.7,12.3,1.4,24.7,1.8,37C84.8,83,85,87.5,85,92.1c0,1,0.3,2.4-0.1,3.3c-0.2,0.6,0.2,0,0.1,0.1c-0.2,0.2-0.9,0.2-1.2,0.2
			C74.5,96.6,65,96.2,55.6,96c-11.8-0.3-23.6-0.7-35.4-1.4c-2.6-0.2-6.2,0.2-8.7-0.7c-0.6-0.2,0.2,0.6,0.1,0.1c-0.1-0.4,0-0.9,0-1.2
			c0-1.5,0.1-3,0.2-4.6c0.8-11.3,2.3-22.6,3.9-33.8c1.4-9.9,2.5-20.1,5.1-29.8c0.1-0.5,0.5-2.1,0.8-2.3
			C22.5,21.8,21.7,20.3,20.7,20.9z"/>
	</g>
	<g class="st1">
		<path class="st13" d="M74.3,19.2c-4.2,25.7-9.4,51.9-9.9,78c0,0.9,1.1,1.1,1.6,0.4c3.3-5.4,6.6-10.8,9.9-16.1c-0.5,0-1,0-1.5,0
			c3.5,5,7.1,10,10.6,15c0.6,0.9,2.1,0,1.5-0.9c-3.5-5-7.1-10-10.6-15c-0.4-0.5-1.1-0.6-1.5,0C71,86,67.8,91.4,64.5,96.8
			c0.5,0.1,1,0.3,1.6,0.4c0.5-26,5.7-52,9.9-77.5C76.1,18.6,74.4,18.1,74.3,19.2L74.3,19.2z"/>
	</g>
	<g class="st1">
		<path class="st13" d="M78.3,21.8c-1.3,19.7-2.7,39.5-4,59.2c-0.1,1.1,1.6,1.1,1.7,0c1.3-19.7,2.7-39.5,4-59.2
			C80,20.7,78.3,20.8,78.3,21.8L78.3,21.8z"/>
	</g>
	<g class="st1">
		<path class="st13" d="M36.8,26c0.6-7.2,3.4-22.7,13.1-22.3c8.9,0.4,8.7,16,8.2,22.3c-0.1,1.1,1.6,1.1,1.7,0
			c0.5-7.2,0.3-23.6-9.9-24C38.9,1.7,35.7,17.8,35.1,26C35,27.1,36.7,27.1,36.8,26L36.8,26z"/>
	</g>
	<g class="st1">
		<path class="st13" d="M42.9,19.7c0.9-5.9,3.9-16.2,11.3-16.4c7.7-0.3,9.9,10.5,10.2,16.4c0.1,1.1,1.7,1.1,1.7,0
			c-0.3-6.7-2.8-17.7-11.2-18.1c-8.7-0.4-12.5,10.7-13.6,17.7C41.1,20.3,42.7,20.7,42.9,19.7L42.9,19.7z"/>
	</g>
	<g class="st1">
		<path class="st13" d="M40.1,71.2c-8.6-0.3-13.3-13-11.4-20.2c1.1-4.5,5.9-6.5,9.2-2.8c1.7,2,2.8,4.7,3.4,7.2
			c0.2,0.9,1.3,0.7,1.6,0c0.9-2.3,2.3-4.7,4-6.4c3.5-3.6,10.1-3.3,10.9,2.6C58.9,60.2,48.3,70.9,40.1,71.2c-1.1,0-1.1,1.7,0,1.7
			c5.9-0.2,11-4.3,14.5-8.7c3-3.8,6.4-9.8,4.4-14.8c-1.8-4.4-7.2-5.9-11.1-3.4c-3.1,2-5.3,5.6-6.6,9c0.5,0,1.1,0,1.6,0
			c-0.8-3.3-2.4-7.3-5.3-9.3c-3.6-2.6-8.3-0.6-10,3.2c-3.7,8.5,2.4,23.6,12.5,24C41.1,72.9,41.1,71.3,40.1,71.2z"/>
	</g>
	<g class="st1">
		<ellipse transform="matrix(0.8547 -0.5191 0.5191 0.8547 -6.6733 34.8669)" class="st7" cx="58.9" cy="29.4" rx="4.2" ry="4.2"/>
		<g>
			<path class="st8" d="M60,30.1c0.8,1,2.4-0.2,1.6-1.3C60.8,27.8,59.2,29.1,60,30.1L60,30.1z"/>
		</g>
	</g>
	<g class="st1">
		<ellipse transform="matrix(0.8547 -0.5191 0.5191 0.8547 -10.0244 22.9234)" class="st7" cx="35.9" cy="29.4" rx="4.2" ry="4.2"/>
		<g>
			<path class="st8" d="M37,30.1c0.8,1,2.4-0.2,1.6-1.3C37.8,27.8,36.2,29.1,37,30.1L37,30.1z"/>
		</g>
	</g>
</g>
<g class="st0">
	<path class="st1" d="M13.7,17.4c-2,5.8-2.4,11.8-1.1,17.8c0.9,4.3,3.2,7.9,6.2,11c1,1.1,2,2.1,3.1,3c1.1,0.9,2.3,1.8,3.7,2.3
		c3.2,1.3,6.3,3,9.8,3.5c1.3,0.2,2.7,0.5,4,0.4c2.8-0.2,5.6-0.6,8.6-0.9c1.5,1.1,3.5,3.5,5.3,6.6c-0.5,0.5-1,1-1.6,1.6
		c0.3,0.6,0.5,1.3,0.8,1.8c1.6,2.4,3.4,4.7,5.5,6.8c1.4,1.5,2.9,2.9,4,4.5c2.3,3.1,4.4,6.4,6.6,9.5c1.6,2.3,3.3,4.6,4.9,6.8
		c1.2,1.6,2.5,3.2,3.7,4.8c0.2,0.3,0.6,0.5,0.9,0.8c2.6-1,4.8-2.1,6.9-3.5c0.8-0.6,1.4-1.3,2-2.1c0.9-1.4,0.7-2.7-0.2-4
		c-2.3-3.1-4.5-6.3-6.7-9.5c-0.2-0.3-0.5-0.6-0.7-0.9c-1.7-3.8-4.7-6.6-7.2-9.8c-1.6-2-3.3-3.8-4.3-6.2c-0.2-0.5-0.7-0.9-1-1.4
		c-1-1.4-1.9-2.9-2.8-4.4c-0.7-1.1-1-1.2-2.3-0.5c-0.3,0.1-0.5,0.2-0.8,0.4c-1.5-0.7-1.9-2.4-3-3.5c-1-1-2-2.1-2.5-3.7
		c0.3-0.4,0.6-0.9,1-1.3c4.4-5.5,7.1-11.8,7.7-18.8c0.3-3.9-0.4-7.7-2.3-11.2c-0.9-1.6-1.8-3.2-2.8-4.7c-0.6-1-1.4-1.9-2.3-2.6
		C52.4,7,48.1,4.1,42.8,3c-5.2-1.1-10.1-0.8-15,1.5c-3.1,1.5-6,3-8.6,5.3C16.7,11.9,14.7,14.4,13.7,17.4z M55.1,63.6
		c1.8-2.3,4.6-2.9,6.9-4.7c2.7,2.4,4,5.4,6,7.9c2,2.6,3.7,5.4,5.5,8.2c1.8,2.7,3.6,5.3,5.2,8c1.6,2.8,3.9,5.2,5.2,8.3
		c-1.4,1.7-3.1,2.4-5,3.3c-0.7-0.9-1.4-1.6-2-2.5c-2.2-2.9-4.3-6-6.6-8.8C66.3,78.1,62.2,73,58,67.9C56.9,66.5,55.8,65.2,55.1,63.6z
		 M50.8,52.6c0.2-0.1,0.5-0.2,0.9-0.4c0.4-0.1,0.7-0.2,1.1-0.3c2.3,1.6,3.3,4,4.8,6.3c-0.7,0.5-1.3,0.9-2.1,1.4
		c-1.2-1.5-2.3-2.7-3.3-4c-0.5-0.7-0.9-1.5-1.4-2.2C50.8,53.3,50.8,53.1,50.8,52.6z M24.9,48.5c0.4,0,0.5,0,0.6,0
		c0.4,0.2,0.9,0.4,1.3,0.6c6.5,3.1,13.1,3,19.7,0.1c1.1-0.5,2.1-1.3,3.3-1.8c1-0.4,1.8-1.1,2.5-1.9c1.7-1.9,3.2-3.9,4.7-5.9
		c1.3-1.8,2.1-3.6,2.6-5.7c0.2-0.9,0.3-1.9,0.5-2.9c0.5-2,0.4-4-0.3-6c-0.5-1.4-0.4-3.1,0-5.3c0.8,0,0.8,0.7,0.9,1.2
		c0.3,1.9,0.6,3.8,0.9,5.7c0.4,2.2,0.4,4.4-0.5,6.6c-0.3,0.7-0.4,1.5-0.6,2.2c-1,3.9-2.9,7.4-5.5,10.5c-1.5,1.8-3.1,3.6-5.1,4.7
		c-4,2.4-8.5,3.3-13.1,2.9c-4.1-0.4-7.7-2.4-11.3-4.4C25.2,49,25.2,48.8,24.9,48.5z M14.6,22.8c0.2-0.6,0.5-1.2,0.5-1.9
		c0.5-4.1,2.7-7.2,5.8-9.7c1.9-1.5,4-2.8,6-4c3.3-2,6.8-2.7,10.6-2.1c1.9,0.3,3.8,0.8,5.6,1.5c4.5,1.6,8.3,4.3,11,8.2
		c1.1,1.6,2.1,3.3,2.7,5.1c1.5,4.5,1.3,9-0.4,13.4c-1.7,4.5-3.9,8.6-8.1,11.4c-5.5,3.7-11.2,5.1-17.7,3.3c-1.7-0.5-3.3-1-5-1.6
		c-2.1-0.7-4-1.9-5.5-3.6c-2.6-3-4.7-6.3-5.6-10.4C14,29.1,14.1,26,14.6,22.8z"/>
	<path class="st14" d="M14.6,22.8c-0.5,3.2-0.7,6.3,0.1,9.5c0.9,4.1,3,7.3,5.6,10.4c1.5,1.7,3.4,2.9,5.5,3.6c1.6,0.6,3.3,1.1,5,1.6
		c6.4,1.8,12.2,0.4,17.7-3.3c4.2-2.8,6.4-6.9,8.1-11.4c1.7-4.4,1.9-8.9,0.4-13.4c-0.6-1.8-1.6-3.6-2.7-5.1c-2.8-3.9-6.6-6.5-11-8.2
		c-1.8-0.7-3.7-1.1-5.6-1.5C33.8,4.5,30.3,5.2,27,7.2c-2.1,1.3-4.1,2.5-6,4c-3.1,2.5-5.3,5.6-5.8,9.7C15.1,21.6,14.8,22.2,14.6,22.8
		z M38.5,10.9c0.6-0.1,1.2,0,1.7,0c2.7-0.1,4.8,1.4,6.6,3.2c0.5,0.5,0.8,1.3,1,2c0.3,0.8-0.2,1.6-1,1.8c-1,0.2-2.1,0.3-2.6,0.3
		c-2.1-0.3-4.8-1.5-5.9-2.7c-0.5-0.5-0.9-1-1.3-1.6C36.2,12.6,37,11,38.5,10.9z M18.6,20.2c1.1-2.1,2.6-3.8,4.4-5.3
		c1.7-1.5,3.8-1.7,5.8-1.7c1.8,0.3,2.5,1.7,1.5,3c-0.6,0.8-1.4,1.7-2.2,2.3c-1.9,1.4-3.4,3.2-4.8,5c-0.3,0.5-0.6,1-1.1,1.4
		c-1.4,1.3-3.7,0.6-4.1-1.3C17.9,22.4,18,21.3,18.6,20.2z"/>
	<path class="st15" d="M62.1,58.9c2.7,2.4,4,5.4,6,7.9c2,2.6,3.7,5.4,5.5,8.2c1.8,2.7,3.6,5.3,5.2,8c1.6,2.8,3.9,5.2,5.2,8.3
		c-1.4,1.7-3.1,2.4-5,3.3c-0.7-0.9-1.4-1.6-2-2.5c-2.2-2.9-4.3-6-6.6-8.8C66.3,78.1,62.2,73,58,67.9c-1.1-1.3-2.2-2.7-2.9-4.3
		C56.9,61.2,59.7,60.6,62.1,58.9z"/>
	<path class="st14" d="M26.8,49.1c6.5,3.1,13.1,3,19.7,0.1c1.1-0.5,2.1-1.3,3.3-1.8c1-0.4,1.8-1.1,2.5-1.9c1.7-1.9,3.2-3.9,4.7-5.9
		c1.3-1.8,2.1-3.6,2.6-5.7c0.2-0.9,0.3-1.9,0.5-2.9c0.5-2,0.4-4-0.3-6c-0.5-1.4-0.4-3.1,0-5.3c0.8,0,0.8,0.7,0.9,1.2
		c0.3,1.9,0.6,3.8,0.9,5.7c0.4,2.2,0.4,4.4-0.5,6.6c-0.3,0.7-0.4,1.5-0.6,2.2c-1,3.9-2.9,7.4-5.5,10.5c-1.5,1.8-3.1,3.6-5.1,4.7
		c-4,2.4-8.5,3.3-13.1,2.9c-4.1-0.4-7.7-2.4-11.3-4.4c-0.2-0.1-0.2-0.3-0.5-0.6c0.4,0,0.5,0,0.6,0C25.9,48.7,26.4,48.9,26.8,49.1z"
		/>
	<path class="st16" d="M51.7,52.2c0.4-0.1,0.7-0.2,1.1-0.3c2.3,1.6,3.3,4,4.8,6.3c-0.7,0.5-1.3,0.9-2.1,1.4c-1.2-1.5-2.3-2.7-3.3-4
		c-0.5-0.7-0.9-1.5-1.4-2.2c-0.1-0.1,0-0.4,0-0.9C51,52.5,51.4,52.4,51.7,52.2z"/>
	<g class="st1">
		<circle class="st7" cx="26" cy="32.7" r="3"/>
		<path class="st17" d="M25.1,42.7c1.1,4.9,8.1,0.8,6.8-2.6C30.5,36.8,24.2,38.9,25.1,42.7z"/>
		<path class="st17" d="M44.6,31c1.1,4.9,8.1,0.8,6.8-2.6C50,25,43.8,27.2,44.6,31z"/>
		<g>
			<path class="st7" d="M38.4,22c-0.5,1.6-1,3.1-1.5,4.7c-0.2,0.5,0.2,1,0.8,0.9c1.2-0.3,2.5-0.5,3.7-0.8c0.9-0.2,0.6-1.6-0.2-1.4
				c-1.2,0.3-2.5,0.5-3.7,0.8c0.3,0.3,0.5,0.6,0.8,0.9c0.5-1.6,1-3.1,1.5-4.7C40,21.6,38.7,21.2,38.4,22L38.4,22z"/>
		</g>
		<g>
			<path class="st7" d="M33.4,37.1c0.7,2,1.9,3.8,3.7,5.1c1.4,1,3.3,1.9,4.7,0.5c2.9-2.8,0.7-8.2-1.5-10.6c-0.6-0.7-1.7,0.2-1.1,0.9
				c1.7,1.8,3.1,4.9,2.3,7.4c-1,2.8-3.5,0.9-4.7-0.3c-1-1-1.7-2.2-2.1-3.6C34.4,35.7,33.2,36.3,33.4,37.1L33.4,37.1z"/>
		</g>
		<g>
			<path class="st8" d="M26.9,31.8c0.7-0.6-0.2-1.6-0.9-1.1C25.3,31.3,26.2,32.4,26.9,31.8L26.9,31.8z"/>
		</g>
	</g>
</g>
</svg>
