<?xml version="1.0" encoding="utf-8"?>
<!-- Generator: Adobe Illustrator 24.0.1, SVG Export Plug-In . SVG Version: 6.00 Build 0)  -->
<svg version="1.1" id="圖層_1" xmlns="http://www.w3.org/2000/svg" xmlns:xlink="http://www.w3.org/1999/xlink" x="0px" y="0px"
	 viewBox="0 0 192.9 101" style="enable-background:new 0 0 192.9 101;" xml:space="preserve">
<style type="text/css">
	.st0{fill:#C79F62;}
	.st1{fill:#FFFFFF;}
	.st2{fill:#F9C125;}
	.st3{fill:#84BFE8;}
	.st4{fill:#F2A6A9;}
	.st5{fill:#BC76B0;}
	.st6{fill:#90C2F3;}
</style>
<image style="display:none;overflow:visible;" width="181" height="78" xlink:href="CD4C682B.jpg"  transform="matrix(1.0685 0 0 1.2949 -0.5 0)">
</image>
<g>
	<g>
		<path class="st0" d="M15.8,90.6l3.4-15.4c0.1-0.6,0.5-0.8,1-0.8c0.7,0,1.1,0.4,1.1,1.1c0,0.1,0,0.1,0,0.2L17,94.9
			c-0.1,0.6-0.5,0.9-1.1,0.9c-0.5,0-0.9-0.3-1.1-0.9l-3.2-9.6l-3.2,9.6c-0.2,0.6-0.6,0.9-1.1,0.9c-0.6,0-0.9-0.3-1.1-0.9l-4-19.3
			c0-0.1,0-0.2,0-0.2c0-0.7,0.4-1.1,1.1-1.1c0.6,0,0.9,0.3,1.1,0.8l3.4,15.5l3-9c0.2-0.6,0.5-0.9,1.1-0.9c0.5,0,0.9,0.3,1.1,0.9
			L15.8,90.6z"/>
		<path class="st1" d="M3.3,74.3c0.6,0,0.9,0.3,1.1,0.8l3.4,15.5l3-9c0.2-0.6,0.5-0.9,1.1-0.9c0.5,0,0.9,0.3,1.1,0.9l2.8,9l3.4-15.4
			c0.1-0.6,0.5-0.8,1-0.8c0.7,0,1.1,0.4,1.1,1.1c0,0.1,0,0.1,0,0.2L17,94.9c-0.1,0.6-0.5,0.9-1.1,0.9c-0.5,0-0.9-0.3-1.1-0.9
			l-3.2-9.6l-3.2,9.6c-0.2,0.6-0.6,0.9-1.1,0.9c-0.6,0-0.9-0.3-1.1-0.9l-4-19.3c0-0.1,0-0.2,0-0.2C2.2,74.7,2.6,74.3,3.3,74.3
			 M3.3,72.3c-1.8,0-3.1,1.3-3.1,3.1v0.2v0.2l0,0.2l4,19.3l0,0.1l0,0.1c0.7,2,2.2,2.3,3,2.3c1.4,0,2.5-0.9,3-2.3l1.3-3.9l1.3,3.9
			c0.5,1.4,1.6,2.3,3,2.3c1.6,0,2.8-1,3.1-2.5l4.3-19.2l0-0.2v-0.2v-0.2c0-1.8-1.3-3.1-3.1-3.1c-1.5,0-2.7,0.9-3,2.4l-1.8,8L14.9,81
			c-0.5-1.4-1.6-2.3-3-2.3c-0.8,0-2.3,0.3-3,2.3l-0.7,2.1l-1.8-8.4l0-0.2l-0.1-0.2C5.7,73,4.7,72.3,3.3,72.3L3.3,72.3z"/>
	</g>
	<g>
		<path class="st2" d="M30.2,89.2v2.1c0,0.6,0.2,1.1,0.6,1.5s0.9,0.6,1.5,0.6h5.3c0.7,0,1.1,0.4,1.1,1.1s-0.4,1.1-1.1,1.1h-5.3
			c-1.2,0-2.2-0.4-3-1.2s-1.2-1.8-1.2-3V86c0-1.5,0.5-2.7,1.6-3.8s2.3-1.6,3.8-1.6s2.8,0.5,3.8,1.5s1.5,2.3,1.5,3.8v3.2L30.2,89.2
			L30.2,89.2z M33.4,82.8c-0.9,0-1.6,0.3-2.3,0.9c-0.6,0.6-0.9,1.4-0.9,2.3v1.1h6.4V86c0-0.9-0.3-1.6-0.9-2.3
			C35.1,83.1,34.3,82.8,33.4,82.8z"/>
		<path class="st1" d="M33.5,80.6c1.5,0,2.8,0.5,3.8,1.5s1.5,2.3,1.5,3.8v3.2h-8.6v0.1v2.1c0,0.6,0.2,1.1,0.6,1.5s0.9,0.6,1.5,0.6
			h5.3c0.7,0,1.1,0.4,1.1,1.1c0,0.7-0.4,1.1-1.1,1.1h-5.3c-1.2,0-2.2-0.4-3-1.2c-0.8-0.8-1.2-1.8-1.2-3V86c0-1.5,0.5-2.7,1.6-3.8
			S32,80.6,33.5,80.6 M30.2,87.1h6.4V86c0-0.9-0.3-1.6-0.9-2.3c-0.6-0.6-1.4-0.9-2.3-0.9c-0.9,0-1.6,0.3-2.3,0.9
			c-0.6,0.6-0.9,1.4-0.9,2.3V87.1 M33.5,78.6c-2,0-3.7,0.7-5.2,2.2c-1.5,1.5-2.2,3.2-2.2,5.2v5.4c0,1.7,0.6,3.2,1.8,4.4
			c1.2,1.2,2.7,1.8,4.4,1.8h5.3c1.8,0,3.1-1.3,3.1-3.1c0-1.8-1.3-3.1-3.1-3.1h-5.3c-0.1,0-0.1,0-0.1,0c0,0,0,0,0-0.1v-0.2h6.6h2v-2
			v-3.2c0-2-0.7-3.8-2.1-5.2C37.3,79.3,35.5,78.6,33.5,78.6L33.5,78.6z M32.5,85.1c0.3-0.2,0.6-0.3,0.9-0.3c0.5,0,0.7,0.2,0.8,0.3
			c0,0,0,0,0,0H32.5L32.5,85.1z"/>
	</g>
	<g>
		<path class="st3" d="M53,85v6.4c0,0.6,0.2,1.1,0.6,1.5c0.4,0.4,0.9,0.6,1.5,0.6h3.2c0.7,0,1.1,0.4,1.1,1.1s-0.4,1.1-1.1,1.1h-3.2
			c-1.2,0-2.2-0.4-3-1.2s-1.2-1.8-1.2-3V85c0-1.2,0.4-2.2,1.2-3s1.8-1.2,3-1.2h3.2c0.7,0,1.1,0.4,1.1,1.1S59,83,58.3,83h-3.2
			c-0.6,0-1.1,0.2-1.5,0.6S53,84.4,53,85z"/>
		<path class="st1" d="M58.3,80.8c0.7,0,1.1,0.4,1.1,1.1c0,0.7-0.4,1.1-1.1,1.1h-3.2c-0.6,0-1.1,0.2-1.5,0.6C53.2,84,53,84.4,53,85
			v6.4c0,0.6,0.2,1.1,0.6,1.5c0.4,0.4,0.9,0.6,1.5,0.6h3.2c0.7,0,1.1,0.4,1.1,1.1c0,0.7-0.4,1.1-1.1,1.1h-3.2c-1.2,0-2.2-0.4-3-1.2
			s-1.2-1.8-1.2-3V85c0-1.2,0.4-2.2,1.2-3s1.8-1.2,3-1.2H58.3 M58.3,78.8h-3.2c-1.7,0-3.2,0.6-4.4,1.8c-1.2,1.2-1.8,2.7-1.8,4.4v6.5
			c0,1.7,0.6,3.2,1.8,4.4c1.2,1.2,2.7,1.8,4.4,1.8h3.2c1.8,0,3.1-1.3,3.1-3.1c0-1.8-1.3-3.1-3.1-3.1h-3.2c-0.1,0-0.1,0-0.1,0
			c0,0,0,0,0-0.1V85c0,0,0,0,0,0c0,0,0,0,0.1,0h3.2c1.8,0,3.1-1.3,3.1-3.1S60.1,78.8,58.3,78.8L58.3,78.8z"/>
	</g>
	<g>
		<path class="st4" d="M71.4,90.3V86c0-1.5,0.5-2.7,1.6-3.8s2.3-1.6,3.8-1.6s2.8,0.5,3.8,1.5s1.5,2.3,1.5,3.8v4.3
			c0,1.5-0.5,2.7-1.6,3.8s-2.3,1.6-3.8,1.6S74,95.1,72.9,94S71.4,91.8,71.4,90.3z M80,90.3V86c0-0.9-0.3-1.6-0.9-2.3
			c-0.6-0.6-1.4-0.9-2.3-0.9s-1.6,0.3-2.3,0.9c-0.6,0.6-0.9,1.4-0.9,2.3v4.3c0,0.9,0.3,1.7,0.9,2.3s1.4,0.9,2.3,0.9s1.6-0.3,2.3-0.9
			S80,91.2,80,90.3z"/>
		<path class="st1" d="M76.8,80.6c1.5,0,2.8,0.5,3.8,1.5s1.5,2.3,1.5,3.8v4.3c0,1.5-0.5,2.7-1.6,3.8c-1.1,1.1-2.3,1.6-3.8,1.6
			S74,95.1,72.9,94c-1.1-1.1-1.5-2.2-1.5-3.7V86c0-1.5,0.5-2.7,1.6-3.8S75.3,80.6,76.8,80.6 M76.8,93.5c0.9,0,1.6-0.3,2.3-0.9
			c0.7-0.6,0.9-1.4,0.9-2.3V86c0-0.9-0.3-1.6-0.9-2.3c-0.6-0.6-1.4-0.9-2.3-0.9c-0.9,0-1.6,0.3-2.3,0.9c-0.6,0.6-0.9,1.4-0.9,2.3
			v4.3c0,0.9,0.3,1.7,0.9,2.3C75.1,93.2,75.9,93.5,76.8,93.5 M76.8,78.6c-2,0-3.7,0.7-5.2,2.2c-1.5,1.5-2.2,3.2-2.2,5.2v4.3
			c0,2.1,0.6,3.7,2.1,5.1c1.5,1.5,3.2,2.2,5.2,2.2c2,0,3.7-0.7,5.2-2.2c1.5-1.5,2.2-3.2,2.2-5.2v-4.3c0-2-0.7-3.8-2.1-5.2
			C80.6,79.3,78.8,78.6,76.8,78.6L76.8,78.6z M75.9,85.2c0.4-0.3,0.6-0.4,0.9-0.4c0.5,0,0.7,0.2,0.8,0.3c0.3,0.4,0.4,0.6,0.4,0.9
			v4.3c0,0.6-0.1,0.7-0.2,0.8c-0.4,0.4-0.7,0.4-1,0.4c-0.6,0-0.8-0.2-0.9-0.3c-0.1-0.1-0.3-0.3-0.3-0.9V86
			C75.6,85.5,75.8,85.3,75.9,85.2L75.9,85.2z"/>
	</g>
	<g>
		<path class="st4" d="M120.1,95.6c-0.5,0-0.9-0.3-1.1-0.8l-6.4-19.1c0-0.1,0-0.2,0-0.3c0-0.7,0.4-1.1,1.1-1.1c0.5,0,0.9,0.2,1,0.7
			l5.4,16.2l5.4-16.2c0.2-0.5,0.5-0.7,1-0.7c0.7,0,1.1,0.4,1.1,1.1c0,0.1,0,0.2,0,0.3l-6.4,19.1C121,95.4,120.6,95.6,120.1,95.6z"/>
		<path class="st1" d="M113.7,74.3c0.5,0,0.9,0.2,1,0.7l5.4,16.2l5.4-16.2c0.2-0.5,0.5-0.7,1-0.7c0.7,0,1.1,0.4,1.1,1.1
			c0,0.1,0,0.2,0,0.3l-6.4,19.1c-0.2,0.6-0.6,0.8-1.1,0.8s-0.9-0.3-1.1-0.8l-6.4-19.1c0-0.1,0-0.2,0-0.3
			C112.6,74.7,113,74.3,113.7,74.3 M113.7,72.3c-1.8,0-3.1,1.3-3.1,3.1v0.3V76l0.1,0.3l6.4,19.1l0,0.1l0,0.1c0.5,1.3,1.6,2.1,3,2.1
			c1.4,0,2.5-0.8,3-2.2l6.4-19.1l0.1-0.3v-0.3v-0.3c0-1.8-1.3-3.1-3.1-3.1c-1.3,0-2.4,0.7-2.9,2l0,0.1l0,0.1l-3.5,10.5l-3.5-10.4
			C116.3,73.1,115.2,72.3,113.7,72.3L113.7,72.3z"/>
	</g>
	<g>
		<path class="st5" d="M140.7,76.4v-1.1c0-0.7,0.4-1.1,1.1-1.1s1.1,0.4,1.1,1.1v1.1c0,0.7-0.4,1.1-1.1,1.1S140.7,77.1,140.7,76.4z
			 M140.7,81.8c0-0.7,0.4-1.1,1.1-1.1s1.1,0.4,1.1,1.1v12.8c0,0.7-0.4,1.1-1.1,1.1s-1.1-0.4-1.1-1.1V81.8z"/>
		<path class="st1" d="M141.8,74.2c0.7,0,1.1,0.4,1.1,1.1v1.1c0,0.7-0.4,1.1-1.1,1.1s-1.1-0.4-1.1-1.1v-1.1
			C140.7,74.6,141.1,74.2,141.8,74.2 M141.8,80.7c0.7,0,1.1,0.4,1.1,1.1v12.8c0,0.7-0.4,1.1-1.1,1.1s-1.1-0.4-1.1-1.1V81.8
			C140.7,81.1,141.1,80.7,141.8,80.7 M141.8,72.2c-1.8,0-3.1,1.3-3.1,3.1v1.1c0,1.2,0.6,2.2,1.5,2.7c-0.9,0.5-1.5,1.5-1.5,2.7v12.8
			c0,1.8,1.3,3.1,3.1,3.1s3.1-1.3,3.1-3.1V81.8c0-1.2-0.6-2.2-1.5-2.7c0.9-0.5,1.5-1.5,1.5-2.7v-1.1
			C144.9,73.5,143.6,72.2,141.8,72.2L141.8,72.2z"/>
	</g>
	<g>
		<path class="st2" d="M161.3,85v6.4c0,0.6,0.2,1.1,0.6,1.5c0.4,0.4,0.9,0.6,1.5,0.6h3.2c0.7,0,1.1,0.4,1.1,1.1s-0.4,1.1-1.1,1.1
			h-3.2c-1.2,0-2.2-0.4-3-1.2s-1.2-1.8-1.2-3V85c0-1.2,0.4-2.2,1.2-3s1.8-1.2,3-1.2h3.2c0.7,0,1.1,0.4,1.1,1.1s-0.4,1.1-1.1,1.1
			h-3.2c-0.6,0-1.1,0.2-1.5,0.6S161.3,84.4,161.3,85z"/>
		<path class="st1" d="M166.6,80.8c0.7,0,1.1,0.4,1.1,1.1c0,0.7-0.4,1.1-1.1,1.1h-3.2c-0.6,0-1.1,0.2-1.5,0.6s-0.6,0.8-0.6,1.4v6.4
			c0,0.6,0.2,1.1,0.6,1.5c0.4,0.4,0.9,0.6,1.5,0.6h3.2c0.7,0,1.1,0.4,1.1,1.1c0,0.7-0.4,1.1-1.1,1.1h-3.2c-1.2,0-2.2-0.4-3-1.2
			s-1.2-1.8-1.2-3V85c0-1.2,0.4-2.2,1.2-3s1.8-1.2,3-1.2H166.6 M166.6,78.8h-3.2c-1.7,0-3.2,0.6-4.4,1.8c-1.2,1.2-1.8,2.7-1.8,4.4
			v6.5c0,1.7,0.6,3.2,1.8,4.4c1.2,1.2,2.7,1.8,4.4,1.8h3.2c1.8,0,3.1-1.3,3.1-3.1c0-1.8-1.3-3.1-3.1-3.1h-3.2c-0.1,0-0.1,0-0.1,0
			c0,0,0,0,0-0.1V85c0,0,0,0,0,0c0,0,0,0,0.1,0h3.2c1.8,0,3.1-1.3,3.1-3.1S168.4,78.8,166.6,78.8L166.6,78.8z"/>
	</g>
	<g>
		<path class="st0" d="M179.8,90.3V86c0-1.5,0.5-2.7,1.6-3.8s2.3-1.6,3.8-1.6s2.8,0.5,3.8,1.5s1.5,2.3,1.5,3.8v4.3
			c0,1.5-0.5,2.7-1.6,3.8s-2.3,1.6-3.8,1.6s-2.7-0.5-3.8-1.6S179.8,91.8,179.8,90.3z M188.3,90.3V86c0-0.9-0.3-1.6-0.9-2.3
			c-0.6-0.6-1.4-0.9-2.3-0.9s-1.6,0.3-2.3,0.9c-0.6,0.6-0.9,1.4-0.9,2.3v4.3c0,0.9,0.3,1.7,0.9,2.3s1.4,0.9,2.3,0.9
			c0.9,0,1.6-0.3,2.3-0.9S188.3,91.2,188.3,90.3z"/>
		<path class="st1" d="M185.2,80.6c1.5,0,2.8,0.5,3.8,1.5s1.5,2.3,1.5,3.8v4.3c0,1.5-0.5,2.7-1.6,3.8c-1.1,1.1-2.3,1.6-3.8,1.6
			s-2.7-0.5-3.8-1.6c-1.1-1.1-1.5-2.2-1.5-3.7V86c0-1.5,0.5-2.7,1.6-3.8S183.7,80.6,185.2,80.6 M185.1,93.5c0.9,0,1.6-0.3,2.3-0.9
			c0.7-0.6,0.9-1.4,0.9-2.3V86c0-0.9-0.3-1.6-0.9-2.3c-0.6-0.6-1.4-0.9-2.3-0.9s-1.6,0.3-2.3,0.9c-0.6,0.6-0.9,1.4-0.9,2.3v4.3
			c0,0.9,0.3,1.7,0.9,2.3S184.2,93.5,185.1,93.5 M185.2,78.6c-2,0-3.7,0.7-5.2,2.2c-1.5,1.5-2.2,3.2-2.2,5.2v4.3
			c0,2.1,0.6,3.7,2.1,5.1c1.5,1.5,3.2,2.2,5.2,2.2s3.7-0.7,5.2-2.2c1.5-1.5,2.2-3.2,2.2-5.2v-4.3c0-2-0.7-3.8-2.1-5.2
			C189,79.3,187.2,78.6,185.2,78.6L185.2,78.6z M184.2,85.2c0.4-0.3,0.6-0.4,0.9-0.4c0.5,0,0.7,0.2,0.8,0.3c0.3,0.4,0.4,0.6,0.4,0.9
			v4.3c0,0.6-0.1,0.7-0.2,0.8c-0.4,0.4-0.7,0.4-1,0.4c-0.6,0-0.8-0.2-0.9-0.3c-0.1-0.1-0.3-0.3-0.3-0.9V86
			C183.9,85.5,184.1,85.3,184.2,85.2L184.2,85.2z"/>
	</g>
</g>
<g>
	<g>
		<g>
			<path class="st6" d="M77.4,31.2L77.4,31.2c1.9,0,3.4,1.5,3.4,3.4v27.3c0,1.9-1.5,3.4-3.4,3.4l0,0c-1.9,0-3.4-1.5-3.4-3.4V34.6
				C74.1,32.7,75.6,31.2,77.4,31.2z"/>
			<path class="st1" d="M77.4,31.2c1.9,0,3.4,1.5,3.4,3.4v27.3c0,1.9-1.5,3.4-3.4,3.4S74,63.8,74,61.9V34.6
				C74.1,32.7,75.6,31.2,77.4,31.2 M77.4,29.2c-2.9,0-5.2,2.3-5.4,5.3l0,0.1v0.1v27.3c0,3,2.4,5.4,5.4,5.4s5.4-2.4,5.4-5.4V34.6
				C82.8,31.6,80.4,29.2,77.4,29.2L77.4,29.2z"/>
		</g>
		<g>
			<path class="st6" d="M104.6,31.2L104.6,31.2c1.9,0,3.4,1.5,3.4,3.4v27.3c0,1.9-1.5,3.4-3.4,3.4l0,0c-1.9,0-3.4-1.5-3.4-3.4V34.6
				C101.2,32.7,102.7,31.2,104.6,31.2z"/>
			<path class="st1" d="M104.6,31.2c1.9,0,3.4,1.5,3.4,3.4v27.3c0,1.9-1.5,3.4-3.4,3.4s-3.4-1.5-3.4-3.4V34.6
				C101.2,32.7,102.7,31.2,104.6,31.2 M104.6,29.2c-3,0-5.4,2.4-5.4,5.4v27.3c0,3,2.4,5.4,5.4,5.4s5.4-2.4,5.4-5.4V34.6
				C110,31.6,107.6,29.2,104.6,29.2L104.6,29.2z"/>
		</g>
		<g>
			<path class="st6" d="M63.6,19.3L63.6,19.3c1.9,0,3.4,1.5,3.4,3.4v31c0,1.9-1.5,3.4-3.4,3.4l0,0c-1.9,0-3.4-1.5-3.4-3.4v-31
				C60.2,20.9,61.8,19.3,63.6,19.3z"/>
			<path class="st1" d="M63.6,19.3c1.9,0,3.4,1.5,3.4,3.4v31c0,1.9-1.5,3.4-3.4,3.4s-3.4-1.5-3.4-3.4v-31
				C60.2,20.9,61.8,19.3,63.6,19.3 M63.6,17.3c-2.9,0-5.4,2.5-5.4,5.4v31c0,3,2.4,5.4,5.4,5.4c3,0,5.4-2.4,5.4-5.4v-31
				C69,19.7,66.6,17.3,63.6,17.3L63.6,17.3z"/>
		</g>
		<g>
			<path class="st6" d="M118.4,19.3L118.4,19.3c1.9,0,3.4,1.5,3.4,3.4v31c0,1.9-1.5,3.4-3.4,3.4l0,0c-1.9,0-3.4-1.5-3.4-3.4v-31
				C115,20.9,116.5,19.3,118.4,19.3z"/>
			<path class="st1" d="M118.4,19.3c1.9,0,3.4,1.5,3.4,3.4v31c0,1.9-1.5,3.4-3.4,3.4s-3.4-1.5-3.4-3.4v-31
				C115,20.9,116.5,19.3,118.4,19.3 M118.4,17.3c-3,0-5.4,2.4-5.4,5.4v31c0,3,2.4,5.4,5.4,5.4s5.4-2.4,5.4-5.4v-31
				C123.8,19.7,121.4,17.3,118.4,17.3L118.4,17.3z"/>
		</g>
		<g>
			<path class="st6" d="M91,23.1L91,23.1c1.9,0,3.4,1.5,3.4,3.4v16.8c0,1.9-1.5,3.4-3.4,3.4l0,0c-1.9,0-3.4-1.5-3.4-3.4V26.5
				C87.6,24.7,89.2,23.1,91,23.1z"/>
			<path class="st1" d="M91,23.1c1.9,0,3.4,1.5,3.4,3.4v16.8c0,1.9-1.5,3.4-3.4,3.4s-3.4-1.5-3.4-3.4V26.5
				C87.6,24.7,89.2,23.1,91,23.1 M91,21.1c-2.9,0-5.4,2.5-5.4,5.4v16.8c0,3,2.4,5.4,5.4,5.4s5.4-2.4,5.4-5.4V26.5
				C96.4,23.5,94,21.1,91,21.1L91,21.1z"/>
		</g>
		<g>
			<path class="st6" d="M91.1,5.8L91.1,5.8c0.6,0,1,0.5,1,1v13c0,0.6-0.5,1-1,1l0,0c-0.6,0-1-0.5-1-1v-13
				C90.1,6.3,90.5,5.8,91.1,5.8z"/>
			<path class="st1" d="M91.1,5.8c0.6,0,1,0.5,1,1v13c0,0.6-0.5,1-1,1c-0.6,0-1-0.5-1-1v-13C90.1,6.3,90.5,5.8,91.1,5.8 M91.1,3.8
				c-1.7,0-3,1.3-3,3v13c0,1.7,1.3,3,3,3s3-1.3,3-3v-13C94.1,5.1,92.8,3.8,91.1,3.8L91.1,3.8z"/>
		</g>
		<g>
			<path class="st6" d="M77.4,13.9L77.4,13.9c0.6,0,1,0.5,1,1v13c0,0.6-0.5,1-1,1l0,0c-0.6,0-1-0.5-1-1v-13
				C76.4,14.3,76.9,13.9,77.4,13.9z"/>
			<path class="st1" d="M77.4,13.9c0.6,0,1,0.5,1,1v13c0,0.6-0.5,1-1,1c-0.6,0-1-0.5-1-1v-13C76.4,14.3,76.9,13.9,77.4,13.9
				 M77.4,11.9c-1.7,0-3,1.3-3,3v13c0,1.7,1.3,3,3,3s3-1.3,3-3v-13C80.4,13.2,79.1,11.9,77.4,11.9L77.4,11.9z"/>
		</g>
		<g>
			<path class="st6" d="M104.6,13.9L104.6,13.9c0.6,0,1,0.5,1,1v13c0,0.6-0.5,1-1,1l0,0c-0.6,0-1-0.5-1-1v-13
				C103.6,14.3,104,13.9,104.6,13.9z"/>
			<path class="st1" d="M104.6,13.9c0.6,0,1,0.5,1,1v13c0,0.6-0.5,1-1,1c-0.6,0-1-0.5-1-1v-13C103.6,14.3,104,13.9,104.6,13.9
				 M104.6,11.9c-1.7,0-3,1.3-3,3v13c0,1.7,1.3,3,3,3s3-1.3,3-3v-13C107.6,13.2,106.3,11.9,104.6,11.9L104.6,11.9z"/>
		</g>
		<g>
			<path class="st6" d="M91,49.1L91,49.1c0.6,0,1,0.5,1,1v20.3c0,0.6-0.5,1-1,1l0,0c-0.6,0-1-0.5-1-1V50.1
				C90,49.5,90.5,49.1,91,49.1z"/>
			<path class="st1" d="M91,49.1c0.6,0,1,0.5,1,1v20.3c0,0.6-0.5,1-1,1c-0.6,0-1-0.5-1-1V50.1C90,49.5,90.5,49.1,91,49.1 M91,47.1
				c-1.7,0-3,1.3-3,3v20.3c0,1.7,1.3,3,3,3s3-1.3,3-3V50.1C94,48.4,92.7,47.1,91,47.1L91,47.1z"/>
		</g>
	</g>
</g>
<image style="overflow:visible;" width="1252" height="176" xlink:href="CD4C682E.jpg"  transform="matrix(0.9918 0 0 1 -609.1087 -297.8478)">
</image>
</svg>
